<?xml version="1.0" standalone="no"?>
<!DOCTYPE svg PUBLIC "-//W3C//DTD SVG 20010904//EN"
 "http://www.w3.org/TR/2001/REC-SVG-20010904/DTD/svg10.dtd">
<svg version="1.0" xmlns="http://www.w3.org/2000/svg"
 width="2048.000000pt" height="2048.000000pt" viewBox="0 0 2048.000000 2048.000000"
 preserveAspectRatio="xMidYMid meet">
<metadata>
Created by potrace 1.14, written by Peter Selinger 2001-2017
</metadata>
<g transform="translate(0.000000,2048.000000) scale(0.100000,-0.100000)"
fill="#000000" stroke="none">
<path d="M0 10240 l0 -10240 10240 0 10240 0 0 10240 0 10240 -10240 0 -10240
0 0 -10240z m9425 7139 c649 -32 1345 -133 2040 -297 l160 -37 3 -1649 c2
-1567 1 -1648 -15 -1643 -592 170 -1304 304 -1918 362 -973 91 -1829 -13
-2361 -286 -372 -191 -544 -446 -544 -807 0 -321 170 -568 502 -730 137 -67
244 -103 461 -157 505 -124 1178 -193 1927 -198 l295 -2 3 733 2 732 1665 0
1665 0 0 -735 0 -735 325 0 325 0 0 98 c-1 660 -52 4714 -65 5035 l-4 127
1659 0 1660 0 0 -87 c0 -49 -5 -524 -10 -1058 -5 -533 -19 -1989 -30 -3235
-19 -2171 -32 -3395 -46 -4437 l-7 -483 -566 -1 c-514 -1 -561 -2 -511 -15
399 -106 763 -332 1027 -638 324 -376 483 -792 483 -1259 0 -301 -58 -561
-184 -822 -262 -546 -757 -958 -1314 -1094 -179 -44 -286 -55 -502 -54 -208 1
-331 15 -500 58 -363 91 -690 282 -951 553 -279 289 -450 627 -520 1028 -32
182 -32 473 0 656 70 401 242 725 547 1032 254 256 541 426 879 521 l120 34
-566 0 -566 1 -6 278 c-4 152 -7 388 -7 525 l0 247 -335 0 -335 0 0 -803 c0
-442 -5 -874 -10 -962 -62 -955 -364 -1716 -954 -2404 -766 -894 -1987 -1479
-3411 -1635 -632 -70 -1357 -66 -1955 10 -1132 143 -2105 540 -2804 1145 -126
108 -349 335 -447 454 -418 508 -668 1074 -759 1725 -45 320 -52 776 -16 1075
117 968 544 1784 1266 2418 123 108 368 297 484 373 l58 38 -23 19 c-236 187
-508 450 -653 632 -111 138 -257 357 -334 500 -319 589 -473 1317 -434 2053
14 262 32 412 77 637 141 696 462 1262 1006 1771 643 603 1515 1010 2651 1238
734 148 1508 198 2373 155z"/>
<path d="M9265 8929 c-750 -28 -1442 -114 -1876 -233 -333 -92 -558 -227 -712
-429 -213 -278 -273 -722 -151 -1109 101 -319 348 -605 659 -765 262 -134 556
-195 940 -195 206 0 339 11 510 43 640 119 1094 476 1261 992 75 233 76 250
81 1020 l5 687 -254 -2 c-139 0 -347 -5 -463 -9z"/>
</g>
</svg>
