<?xml version="1.0" encoding="utf-8"?>
<!-- Generator: Adobe Illustrator 26.3.1, SVG Export Plug-In . SVG Version: 6.00 Build 0)  -->
<svg version="1.1" id="Layer_1" xmlns="http://www.w3.org/2000/svg" xmlns:xlink="http://www.w3.org/1999/xlink" x="0px" y="0px"
	 viewBox="0 0 500 500" style="enable-background:new 0 0 500 500;" xml:space="preserve">
<style type="text/css">
	.st0{fill:#FFFFFF;}
</style>
<g>
	<path class="st0" d="M165.4,231.5c3.6,0,7.1,0,10.8,0c0,2,0,3.9,0,6.1c0.4-0.2,0.6-0.3,0.8-0.4c6.2-7.2,17.8-9.1,27.1-3.5
		c5.6,3.4,9.3,8.3,11,14.6c2.5,9.1,1.2,17.6-4.6,25.1c-6.6,8.4-17.9,11.2-27.1,6.9c-2.6-1.2-4.9-2.9-7-5.1c0,1.7,0,3.4,0,5.1
		c0,1.8,0,3.6,0,5.5c0,1.8,0,3.5,0,5.3c0,1.8,0,3.6,0,5.5c0,1.8,0,3.5,0,5.2c-1.4,0.4-8.6,0.5-10.8,0.1
		C165.4,278.4,165.4,255,165.4,231.5z M190.3,272.2c5.8,0,10.7-3,13.1-8.2c2.4-5.1,2.4-10.4,0-15.5c-4.8-10.1-18-10.6-24.2-3.3
		c-3.2,3.7-4.1,8.1-3.8,12.9C176.1,266.4,182.4,272.2,190.3,272.2z"/>
	<path class="st0" d="M30.9,281c-3.7,0-7.2,0-10.9,0c0-28.9,0-57.7,0-86.6c26.3,0,52.5,0,78.9,0c0,3.1,0,6.3,0,9.4c0,0,0,0-0.1,0.1
		c0,0-0.1,0.1-0.1,0.1c-0.1,0-0.2,0-0.4,0.1c-0.1,0-0.2,0-0.4,0c-0.2,0-0.5,0-0.7,0c-21.8,0-43.7,0-65.5,0c-0.1,0-0.2,0-0.4,0
		c-0.1,0-0.1,0-0.4,0.1c0,2.4,0,4.9,0,7.5c0,2.5,0,5.1,0,7.6c0,2.6,0,5.2,0,7.8c0,2.5,0,5.1,0,7.6c0,2.5,0,5.1,0,7.6s0,5.1,0,7.6
		c0,2.5,0,5.1,0,7.6c0,2.6,0,5.2,0,7.8c0,2.5,0,5.1,0,7.6C30.9,275.8,30.9,278.4,30.9,281z"/>
	<path class="st0" d="M382.1,281c-3.6,0-7.1,0-10.8,0c0-2,0-4,0-6.2c-0.5,0.4-0.7,0.5-0.8,0.7c-6.5,7.4-17.8,8.6-26.3,3.8
		c-6.8-3.9-10.8-9.9-12.3-17.4c-1.6-8.5,0.1-16.3,5.6-23c6.9-8.3,18.6-10.8,27.7-5.8c2.1,1.1,3.9,2.8,6,4.4c0-1.9,0-3.8,0-5.8
		c3.8,0,7.2,0,10.9,0C382.1,248,382.1,264.4,382.1,281z M342.2,256.3c0.4,2,0.5,4,1.2,5.8c2,5.8,6.1,9.3,12.2,10
		c6.1,0.6,11.2-1.6,14.2-7.1c3.2-5.7,3.2-11.7,0-17.4c-5.1-9.2-18.4-9.8-24.5-1.3C343.3,249.3,342.5,252.7,342.2,256.3z"/>
	<path class="st0" d="M485.8,258.8c-13.1,0-26,0-39.1,0c0.3,3.9,1.7,7.1,4.5,9.6c3.8,3.4,8.4,4.4,13.4,3.7c4.7-0.6,8.5-2.8,11.2-6.7
		c0.1-0.1,0.2-0.3,0.5-0.6c2.7,1.9,5.4,3.8,8.2,5.8c-0.3,0.5-0.4,0.9-0.7,1.2c-2.4,3.4-5.5,6-9.3,7.7c-7.5,3.3-15.2,3.7-22.8,0.8
		c-9.1-3.5-14.1-10.4-15.5-19.9c-0.9-6.1,0.1-12,3.2-17.4c4.1-7.1,10.4-11.1,18.6-12.3c3.7-0.5,7.3-0.4,10.8,0.6
		c9,2.5,14.5,8.3,16.5,17.3c0.6,2.7,0.5,5.5,0.7,8.3C486,257.4,485.9,258,485.8,258.8z M474.7,250.6c0-2.2-1.1-4.8-2.9-6.7
		c-3.9-4.1-8.7-5-14-3.8c-5,1.2-8.4,4.1-10.1,9c-0.1,0.4-0.2,0.9-0.3,1.5C456.6,250.6,465.7,250.6,474.7,250.6z"/>
	<path class="st0" d="M154,258.8c-13,0-25.9,0-39,0c0.2,3.4,1.4,6.3,3.6,8.7c3.9,4.1,8.8,5.3,14.3,4.7c4.6-0.5,8.4-2.7,11.1-6.6
		c0.2-0.2,0.4-0.4,0.7-0.8c2.8,2,5.5,3.9,8.2,5.9c-1.8,2.9-4,5.2-6.7,7c-7.5,4.9-15.7,5.7-24.3,3.4c-7.1-2-12.2-6.5-15.3-13.2
		c-1.8-3.9-2.5-8-2.4-12.2c0.3-7.4,2.9-13.8,8.6-18.8c5.8-5.1,12.7-6.9,20.3-6.2c3.2,0.3,6.2,1.1,9,2.6c7.2,3.9,10.9,10.1,11.9,18.1
		C154.3,253.6,154.4,256.1,154,258.8z M142.9,250.6c0.1-0.2,0.2-0.3,0.2-0.4c0-0.2,0-0.5-0.1-0.7c-0.9-3.6-2.9-6.4-6.2-8.1
		c-3-1.7-6.3-2.1-9.7-1.5c-5.4,1-9.3,3.9-11.2,9.2c-0.2,0.5-0.2,1-0.3,1.6C124.9,250.6,133.9,250.6,142.9,250.6z"/>
	<path class="st0" d="M51.6,281.1c-3.8,0-7.2,0-10.7,0c-0.4-1.3-0.6-64.9-0.2-68.1c19.4,0,38.7,0,58.2,0c0,3.2,0,6.3,0,9.6
		c-15.8,0-31.4,0-47.3,0C51.6,242.2,51.6,261.5,51.6,281.1z"/>
	<path class="st0" d="M324.7,244.1c-3.1,1.7-6.1,3.3-9.3,5.1c-0.3-0.5-0.6-1-0.9-1.4c-3.7-5.9-10.2-8.6-17-6.8
		c-6.2,1.6-10.6,7.2-11,13.9c-0.3,5.1,1.1,9.6,4.9,13.2c6.6,6.1,17.2,4.9,22.4-2.5c0.5-0.7,1-1.5,1.6-2.4c3.2,1.7,6.2,3.4,9.3,5
		c-3.3,7.5-13.7,16-28.4,13.4c-12-2.1-20.7-12.4-21-24.7c-0.3-12.9,7.9-23.3,20.4-26C308.8,228.1,320.3,234.9,324.7,244.1z"/>
	<path class="st0" d="M412,271.3c6.2,0,12.4,0,18.7,0c0,3.3,0,6.5,0,9.7c-9.9,0-19.7,0-29.8,0c0-13.3,0-26.5,0-39.9
		c-3.5,0-6.8,0-10.2,0c0-3.3,0-6.4,0-9.7c3.3-0.2,6.7,0,10.2-0.1c0-4.6,0-9.1,0-13.6c3.7,0,7.2,0,10.9,0c0,4.5,0,9,0,13.7
		c6.4,0,12.6,0,18.8,0c0,3.3,0,6.3,0,9.6c-2,0.3-4,0.1-6.1,0.1c-2.1,0-4.2,0-6.4,0c-2,0-4.1,0-6.2,0C412,251.3,412,261.2,412,271.3z
		"/>
	<path class="st0" d="M227.6,206.5c3.6,0,7.1,0,10.7,0c0,24.8,0,49.5,0,74.2c-1.3,0.4-8.6,0.5-10.7,0.1
		C227.6,256.2,227.6,231.5,227.6,206.5z"/>
	<path class="st0" d="M72.2,281c-3.8,0-7.3,0-10.9,0c0-16.5,0-32.9,0-49.3c1.3-0.4,35.4-0.5,37.6-0.1c0,3.1,0,6.2,0,9.6
		c-8.9,0-17.7,0-26.7,0C72.2,254.5,72.2,267.7,72.2,281z"/>
	<path class="st0" d="M253.3,281c0-16.6,0-33,0-49.7c3.6,0,7.1,0,10.8,0c0,16.6,0,33,0,49.6C260.5,281.2,257,281.1,253.3,281z"/>
	<path class="st0" d="M265.9,213.2c0,4.1-3.1,7.3-7.2,7.3c-4,0-7.3-3.3-7.4-7.3c-0.1-4,3.2-7.3,7.3-7.3
		C262.6,205.9,265.9,209.1,265.9,213.2z"/>
</g>
</svg>
