<?xml version="1.0" encoding="utf-8"?>
<!-- Generator: Adobe Illustrator 26.3.1, SVG Export Plug-In . SVG Version: 6.00 Build 0)  -->
<svg version="1.1" id="Layer_1" xmlns="http://www.w3.org/2000/svg" xmlns:xlink="http://www.w3.org/1999/xlink" x="0px" y="0px"
	 viewBox="0 0 500 500" style="enable-background:new 0 0 500 500;" xml:space="preserve">
<style type="text/css">
	.st0{fill:#0C0A09;}
</style>
<g>
	<path class="st0" d="M434.4,90.8c-103.4,0-206.7,0-310.1,0c-0.6,0-1.1,0.1-1.7,0.2c-0.3,0-0.5,0.2-2,0.6
		c-0.1,11.5-0.1,23.4-0.2,35.3c0,12.1,0,24.1,0,36.2c0,12.3,0,24.7,0,37c0,12.1,0,24.1,0,36.2s0,24.1,0,36.2s0,24.1,0,36.2
		s0,24.1,0,36.2c0,12.3,0,24.7,0,37c0,12.1,0,24.1,0,36.2c-0.1,11.9-0.1,24-0.1,36.6c-17.4,0-34.2,0-51.3,0C69,318,69,181.8,69,45
		c124.3,0,248.5,0,373.3,0c0,14.8,0,29.6,0,44.5v1L434.4,90.8z"/>
	<path class="st0" d="M218.4,455c-18,0-34.3,0-50.4,0c-2.1-6.2-3-307.3-1-322.2c91.6,0,183.3,0,275.4,0c0,15.1,0,29.9,0,45.5
		c-74.6,0-148.8,0-224,0C218.4,270.8,218.4,362.5,218.4,455z"/>
	<path class="st0" d="M316,454.7c-18.2,0-34.7,0-51.6,0c0-78.2,0-155.9,0-233.4c6.2-1.9,167.4-2.4,178-0.5c0,14.7,0,29.5,0,45.2
		c-42,0-83.7,0-126.5,0C316,329.4,316,391.8,316,454.7z"/>
</g>
</svg>
