<?xml version="1.0" encoding="utf-8"?>
<!-- Generator: Adobe Illustrator 26.3.1, SVG Export Plug-In . SVG Version: 6.00 Build 0)  -->
<svg version="1.1" id="Layer_1" xmlns="http://www.w3.org/2000/svg" xmlns:xlink="http://www.w3.org/1999/xlink" x="0px" y="0px"
	 viewBox="0 0 1988 500" style="enable-background:new 0 0 1988 500;" xml:space="preserve">
<style type="text/css">
	.st0{fill:#0C0A09;}
</style>
<g>
	<path class="st0" d="M626.5,190.8c15,0,29.6,0,45,0c0,8.3,0,16.3,0,25.4c1.7-0.8,2.5-1.3,3.3-1.7c25.9-30,74.2-38,113-14.6
		c23.4,14.2,38.8,34.6,45.9,60.9c10.4,38,5,73.4-19.2,104.7c-27.5,35-74.7,46.7-113,28.8c-10.8-5-20.4-12.1-29.2-21.3
		c0,7.1,0,14.2,0,21.3c0,7.5,0,15,0,22.9c0,7.5,0,14.6,0,22.1s0,15,0,22.9c0,7.5,0,14.6,0,21.7c-5.8,1.7-35.9,2.1-45,0.4
		C626.5,386.4,626.5,288.8,626.5,190.8z M730.3,360.6c24.2,0,44.6-12.5,54.6-34.2c10-21.3,10-43.4,0-64.7
		c-20-42.1-75.1-44.2-100.9-13.8c-13.3,15.4-17.1,33.8-15.8,53.8C671.1,336.4,697.4,360.6,730.3,360.6z"/>
	<path class="st0" d="M65.5,397.3c-15.4,0-30,0-45.5,0c0-120.5,0-240.7,0-361.2c109.7,0,219,0,329.1,0c0,12.9,0,26.3,0,39.2
		c0,0,0,0-0.4,0.4l-0.4,0.4c-0.4,0-0.8,0-1.7,0.4c-0.4,0-0.8,0-1.7,0s-2.1,0-2.9,0c-90.9,0-182.3,0-273.2,0c-0.4,0-0.8,0-1.7,0
		c-0.4,0-0.4,0-1.7,0.4c0,10,0,20.4,0,31.3c0,10.4,0,21.3,0,31.7c0,10.8,0,21.7,0,32.5c0,10.4,0,21.3,0,31.7s0,21.3,0,31.7
		s0,21.3,0,31.7s0,21.3,0,31.7c0,10.8,0,21.7,0,32.5c0,10.4,0,21.3,0,31.7C65.5,375.6,65.5,386.4,65.5,397.3z"/>
	<path class="st0" d="M1530.3,397.3c-15,0-29.6,0-45,0c0-8.3,0-16.7,0-25.9c-2.1,1.7-2.9,2.1-3.3,2.9
		c-27.1,30.9-74.2,35.9-109.7,15.8c-28.4-16.3-45-41.3-51.3-72.6c-6.7-35.5,0.4-68,23.4-95.9c28.8-34.6,77.6-45,115.5-24.2
		c8.8,4.6,16.3,11.7,25,18.4c0-7.9,0-15.8,0-24.2c15.8,0,30,0,45.5,0C1530.3,259.6,1530.3,328,1530.3,397.3z M1363.9,294.2
		c1.7,8.3,2.1,16.7,5,24.2c8.3,24.2,25.4,38.8,50.9,41.7c25.4,2.5,46.7-6.7,59.2-29.6c13.3-23.8,13.3-48.8,0-72.6
		c-21.3-38.4-76.7-40.9-102.2-5.4C1368.5,265,1365.1,279.2,1363.9,294.2z"/>
	<path class="st0" d="M1962.8,304.7c-54.6,0-108.4,0-163.1,0c1.3,16.3,7.1,29.6,18.8,40c15.8,14.2,35,18.4,55.9,15.4
		c19.6-2.5,35.5-11.7,46.7-27.9c0.4-0.4,0.8-1.3,2.1-2.5c11.3,7.9,22.5,15.8,34.2,24.2c-1.3,2.1-1.7,3.8-2.9,5
		c-10,14.2-22.9,25-38.8,32.1c-31.3,13.8-63.4,15.4-95.1,3.3c-38-14.6-58.8-43.4-64.7-83c-3.8-25.4,0.4-50.1,13.3-72.6
		c17.1-29.6,43.4-46.3,77.6-51.3c15.4-2.1,30.4-1.7,45,2.5c37.5,10.4,60.5,34.6,68.8,72.2c2.5,11.3,2.1,22.9,2.9,34.6
		C1963.7,298.8,1963.3,301.3,1962.8,304.7z M1916.5,270.5c0-9.2-4.6-20-12.1-27.9c-16.3-17.1-36.3-20.9-58.4-15.8
		c-20.9,5-35,17.1-42.1,37.5c-0.4,1.7-0.8,3.8-1.3,6.3C1841,270.5,1879,270.5,1916.5,270.5z"/>
	<path class="st0" d="M578.9,304.7c-54.2,0-108,0-162.7,0c0.8,14.2,5.8,26.3,15,36.3c16.3,17.1,36.7,22.1,59.6,19.6
		c19.2-2.1,35-11.3,46.3-27.5c0.8-0.8,1.7-1.7,2.9-3.3c11.7,8.3,22.9,16.3,34.2,24.6c-7.5,12.1-16.7,21.7-27.9,29.2
		c-31.3,20.4-65.5,23.8-101.4,14.2c-29.6-8.3-50.9-27.1-63.8-55.1c-7.5-16.3-10.4-33.4-10-50.9c1.3-30.9,12.1-57.6,35.9-78.4
		c24.2-21.3,53-28.8,84.7-25.9c13.3,1.3,25.9,4.6,37.5,10.8c30,16.3,45.5,42.1,49.6,75.5C580.2,283,580.6,293.4,578.9,304.7z
		 M532.6,270.5c0.4-0.8,0.8-1.3,0.8-1.7c0-0.8,0-2.1-0.4-2.9c-3.8-15-12.1-26.7-25.9-33.8c-12.5-7.1-26.3-8.8-40.5-6.3
		c-22.5,4.2-38.8,16.3-46.7,38.4c-0.8,2.1-0.8,4.2-1.3,6.7C457.5,270.5,495.1,270.5,532.6,270.5z"/>
	<path class="st0" d="M151.8,397.7c-15.8,0-30,0-44.6,0c-1.7-5.4-2.5-270.7-0.8-284c80.9,0,161.4,0,242.8,0c0,13.3,0,26.3,0,40
		c-65.9,0-131,0-197.3,0C151.8,235.4,151.8,315.9,151.8,397.7z"/>
	<path class="st0" d="M1290.9,243.4c-12.9,7.1-25.4,13.8-38.8,21.3c-1.3-2.1-2.5-4.2-3.8-5.8c-15.4-24.6-42.5-35.9-70.9-28.4
		c-25.9,6.7-44.2,30-45.9,58c-1.3,21.3,4.6,40,20.4,55.1c27.5,25.4,71.7,20.4,93.4-10.4c2.1-2.9,4.2-6.3,6.7-10
		c13.3,7.1,25.9,14.2,38.8,20.9c-13.8,31.3-57.1,66.7-118.5,55.9c-50.1-8.8-86.3-51.7-87.6-103c-1.3-53.8,33-97.2,85.1-108.4
		C1224.6,176.6,1272.5,205,1290.9,243.4z"/>
	<path class="st0" d="M1655,356.8c25.9,0,51.7,0,78,0c0,13.8,0,27.1,0,40.5c-41.3,0-82.2,0-124.3,0c0-55.5,0-110.5,0-166.4
		c-14.6,0-28.4,0-42.5,0c0-13.8,0-26.7,0-40.5c13.8-0.8,27.9,0,42.5-0.4c0-19.2,0-38,0-56.7c15.4,0,30,0,45.5,0
		c0,18.8,0,37.5,0,57.1c26.7,0,52.6,0,78.4,0c0,13.8,0,26.3,0,40c-8.3,1.3-16.7,0.4-25.4,0.4c-8.8,0-17.5,0-26.7,0
		c-8.3,0-17.1,0-25.9,0C1655,273.4,1655,314.7,1655,356.8z"/>
	<path class="st0" d="M885.9,86.5c15,0,29.6,0,44.6,0c0,103.4,0,206.5,0,309.5c-5.4,1.7-35.9,2.1-44.6,0.4
		C885.9,293.8,885.9,190.8,885.9,86.5z"/>
	<path class="st0" d="M237.7,397.3c-15.8,0-30.4,0-45.5,0c0-68.8,0-137.2,0-205.6c5.4-1.7,147.7-2.1,156.8-0.4c0,12.9,0,25.9,0,40
		c-37.1,0-73.8,0-111.4,0C237.7,286.7,237.7,341.8,237.7,397.3z"/>
	<path class="st0" d="M993.1,397.3c0-69.2,0-137.6,0-207.3c15,0,29.6,0,45,0c0,69.2,0,137.6,0,206.9
		C1023.1,398.1,1008.5,397.7,993.1,397.3z"/>
	<path class="st0" d="M1045.6,114.5c0,17.1-12.9,30.4-30,30.4c-16.7,0-30.4-13.8-30.9-30.4c-0.4-16.7,13.3-30.4,30.4-30.4
		C1031.9,84,1045.6,97.4,1045.6,114.5z"/>
</g>
</svg>
