<?xml version="1.0" encoding="utf-8"?>
<!-- Generator: Adobe Illustrator 26.3.1, SVG Export Plug-In . SVG Version: 6.00 Build 0)  -->
<svg version="1.1" id="Layer_1" xmlns="http://www.w3.org/2000/svg" xmlns:xlink="http://www.w3.org/1999/xlink" x="0px" y="0px"
	 viewBox="0 0 500 500" style="enable-background:new 0 0 500 500;" xml:space="preserve">
<style type="text/css">
	.st0{fill-rule:evenodd;clip-rule:evenodd;fill:#FFFFFF;}
	.st1{fill:#FFFFFF;}
</style>
<g>
	<g>
		<path class="st0" d="M183.3,287.4c9.9,0,31.5,0,61.3-13.2c34.8-14.9,102.6-39.7,152.3-66.2c34.8-18.2,49.7-43,49.7-76.2
			c0-44.7-36.4-82.8-82.8-82.8H173.3c-64.6,0-117.5,53-117.5,117.5C54.1,234.4,103.8,287.4,183.3,287.4z"/>
		<path class="st0" d="M214.7,368.5c0-31.5,19.9-61.3,49.7-72.8l59.6-24.8c61.3-24.8,127.5,19.9,127.5,84.4
			c0,51.3-41.4,92.7-92.7,92.7h-64.6C251.1,448,214.7,413.2,214.7,368.5z"/>
		<path class="st1" d="M122,302.3L122,302.3c-38.1,0-67.9,29.8-67.9,67.9v8.3c0,38.1,29.8,67.9,67.9,67.9l0,0
			c38.1,0,67.9-29.8,67.9-67.9v-8.3C191.5,333.8,160.1,302.3,122,302.3z"/>
	</g>
</g>
</svg>
