<?xml version="1.0" encoding="utf-8"?>
<!-- Generator: Adobe Illustrator 26.4.0, SVG Export Plug-In . SVG Version: 6.00 Build 0)  -->
<svg version="1.1" id="Layer_1" xmlns="http://www.w3.org/2000/svg" xmlns:xlink="http://www.w3.org/1999/xlink" x="0px" y="0px"
	 viewBox="0 0 177.2 57.4" style="enable-background:new 0 0 177.2 57.4;" xml:space="preserve">
<style type="text/css">
	.st0{fill:#373636;}
	.st1{fill-rule:evenodd;clip-rule:evenodd;fill:#373636;}
	.st2{fill:#FFFFFF;}
	.st3{fill-rule:evenodd;clip-rule:evenodd;fill:#FFFFFF;}
	.st4{fill:#38685D;}
	.st5{fill-rule:evenodd;clip-rule:evenodd;fill:#38685D;}
	.st6{fill-rule:evenodd;clip-rule:evenodd;fill:#CFA9CB;}
	.st7{fill:#DD6947;}
</style>
<path class="st2" d="M57.2,40.7c3.6,0,6.7-1.8,7.9-5.4c0.2-0.7-0.1-1.2-0.8-1.2h-1.3c-0.6,0-1,0.3-1.3,0.9c-1.1,2.1-2.5,2.8-4.4,2.8
	c-3.3,0-5.3-2.3-5.3-6.1c0-3.8,2.1-6.1,5.2-6.1c1.9,0,3.5,0.8,4.5,2.8c0.3,0.6,0.7,0.9,1.3,0.9h1.3c0.7,0,1-0.4,0.8-1.1
	c-1.4-3.9-4.7-5.4-8-5.4c-5,0-8.7,3.7-8.7,9C48.5,37,52,40.7,57.2,40.7z M146.9,30.1c0.4-2.9,2.4-4.7,5.1-4.7s4.7,1.9,5,4.7H146.9z
	 M152.1,40.7c3.2,0,6.3-1.5,7.9-4.8c0.4-0.8,0-1.3-0.7-1.3h-1.3c-0.6,0-1,0.3-1.3,0.8c-1,1.8-2.8,2.6-4.6,2.6
	c-3.1,0-5.1-2.1-5.4-5.6h12.6c0.7,0,1.1-0.4,1.1-1.1c-0.1-5.4-3.6-8.6-8.5-8.6c-4.8,0-8.7,3.5-8.7,9
	C143.3,37.2,147.1,40.7,152.1,40.7L152.1,40.7z M132.2,32.1h1.1c0.7,0,1.1-0.4,1.2-1.1c0.7-4.6,3.4-5.2,6.2-5.1
	c0.6,0,1.1-0.4,1.1-1.1v-1.1c0-0.7-0.3-1.1-1-1.1c-2.6-0.1-4.8,0.8-6.1,3.3c-0.1,0.1-0.3,0.1-0.3-0.1l-0.2-1.9c-0.1-0.7-0.4-1-1.1-1
	h-5.2c-0.6,0-1.1,0.5-1.1,1.1v0.6c0,0.6,0.5,1.1,1.1,1.1h2.1c0.6,0,1.1,0.5,1.1,1.1V31C131.1,31.6,131.6,32.1,132.2,32.1L132.2,32.1
	z M127.6,40.4h10.7c0.7,0,1.1-0.4,1.1-1.1v-0.6c0-0.7-0.4-1.1-1.1-1.1h-2.7c-0.7,0-1.1-0.4-1.1-1.1v-1.9c0-0.7-0.4-1.1-1.1-1.1h-1.2
	c-0.7,0-1.1,0.4-1.1,1.1v1.9c0,0.7-0.4,1.1-1.1,1.1h-2.4c-0.7,0-1.1,0.4-1.1,1.1v0.6C126.5,39.9,126.9,40.4,127.6,40.4L127.6,40.4z
	 M111,30.1c0.4-2.9,2.4-4.7,5.1-4.7s4.7,1.9,5,4.7H111z M116.3,40.7c3.2,0,6.3-1.5,7.9-4.8c0.4-0.8,0-1.3-0.7-1.3h-1.3
	c-0.6,0-1,0.3-1.3,0.8c-1,1.8-2.8,2.6-4.6,2.6c-3.1,0-5.1-2.1-5.4-5.6h12.6c0.7,0,1.1-0.4,1.1-1.1c-0.1-5.4-3.6-8.6-8.5-8.6
	c-4.8,0-8.7,3.5-8.7,9C107.5,37.2,111.2,40.7,116.3,40.7L116.3,40.7z M76.6,40.7c5.1,0,8.8-3.8,8.8-9c0-5.2-3.7-9-8.8-9
	c-5.1,0-8.8,3.9-8.8,9c0,1.2,0.2,2.5,0.8,4c0.3,0.7,0.9,0.8,1.5,0.4l1-0.7c0.5-0.4,0.7-0.8,0.5-1.5c-0.3-0.9-0.3-1.6-0.3-2.3
	c0-3.6,2.2-6.1,5.3-6.1c3.2,0,5.3,2.4,5.3,6.1c0,3.7-2.1,6.1-5.3,6.1c-1.1,0-2.1-0.2-3.4-1.1c-0.5-0.4-1-0.5-1.5-0.1L71,37.2
	c-0.6,0.4-0.7,1.1-0.1,1.5C72.7,40.2,74.8,40.7,76.6,40.7L76.6,40.7z M89.8,40.4h1.1c0.6,0,1.1-0.5,1.1-1.1v-8.2
	c0-3.5,1.9-5.5,4.7-5.5c2.6,0,4.1,1.7,4.1,4.9v8.8c0,0.6,0.5,1.1,1.1,1.1h1.2c0.6,0,1.1-0.5,1.1-1.1v-9.4c0-4.6-2.4-7.2-6.4-7.2
	c-2.7,0-4.3,1.1-5.5,2.7c-0.1,0.1-0.3,0.1-0.3-0.1v-7.4c0-0.6-0.5-1.1-1.1-1.1h-1.1c-0.6,0-1.1,0.5-1.1,1.1v21.5
	C88.7,39.9,89.2,40.4,89.8,40.4z"/>
<g>
	<g>
		<path class="st3" d="M24.4,31c0.6,0,1.9,0,3.7-0.8c2.1-0.9,6.2-2.4,9.2-4c2.1-1.1,3-2.6,3-4.6c0-2.7-2.2-5-5-5H23.8
			c-3.9,0-7.1,3.2-7.1,7.1C16.6,27.8,19.6,31,24.4,31z"/>
		<path class="st3" d="M26.3,35.9c0-1.9,1.2-3.7,3-4.4l3.6-1.5c3.7-1.5,7.7,1.2,7.7,5.1c0,3.1-2.5,5.6-5.6,5.6l-3.9,0
			C28.5,40.7,26.3,38.6,26.3,35.9z"/>
		<path class="st2" d="M20.7,31.9L20.7,31.9c-2.3,0-4.1,1.8-4.1,4.1v0.5c0,2.3,1.8,4.1,4.1,4.1h0c2.3,0,4.1-1.8,4.1-4.1V36
			C24.9,33.8,23,31.9,20.7,31.9z"/>
	</g>
</g>
</svg>
