<?xml version="1.0" encoding="utf-8"?>
<!-- Generator: Adobe Illustrator 26.3.1, SVG Export Plug-In . SVG Version: 6.00 Build 0)  -->
<svg version="1.1" id="Layer_1" xmlns="http://www.w3.org/2000/svg" xmlns:xlink="http://www.w3.org/1999/xlink" x="0px" y="0px"
	 viewBox="0 0 2341.3 500" style="enable-background:new 0 0 2341.3 500;" xml:space="preserve">
<style type="text/css">
	.st0{fill:none;}
	.st1{fill:#0C0A09;}
	.st2{fill:#0A0A0A;}
</style>
<rect x="29.8" y="38.5" class="st0" width="734.4" height="431"/>
<g>
	<path class="st1" d="M1408.4,222.9c0-7,0-12.9,0-19c15.7,0,30.6,0,46.5,0c0,2.5,0,4.8,0,7.1c0,46.5,0.5,93.1-0.3,139.6
		c-0.2,12.8-2.6,26.1-6.8,38.2c-6.4,18.8-20.8,31.2-39.9,36.5c-26.8,7.6-53.4,6.6-78.1-7.6c-17.6-10.1-27.2-25.8-29.6-46.9
		c14.9,0,29.4-0.1,43.8,0.2c1.3,0,2.9,2,3.7,3.4c7.6,12.6,20.8,17.4,38,13.8c12.7-2.7,20-11.6,21.4-26.7c0.7-8.2,1.1-16.5,1.6-25.3
		c-7.7,5.7-13.9,11.7-21.2,15.3c-27.1,13.6-61.1,4-78.9-21.8c-20.2-29.2-18.9-76,2.4-104.3c22-29.3,72.4-32.8,94.7-4.1
		C1406.2,221.6,1406.7,221.8,1408.4,222.9z M1374.9,241.8c-3,0.5-6,0.7-8.9,1.6c-19.1,5.8-28.5,26.1-22.3,48.4
		c4.3,15.4,16.7,24.9,32.4,24.6c14.5-0.2,27.7-10.3,30.2-25.4c1.5-8.5,1.1-17.7-0.7-26.1C1402.4,250.8,1389.7,242.2,1374.9,241.8z"
		/>
	<path class="st1" d="M1667,289.9c-6.5,24.4-19.6,42.3-40.5,54.3c-35.4,20.4-95.7,17.2-125.6-22.2c-18.6-24.5-23.9-52.4-18.5-82.2
		c6.8-38,28.5-63.6,66.2-73.6c47.9-12.7,100.4,5.6,116.8,57.4c0.5,1.5,0.7,3.1,1.3,5.7c-16.7,0-32.7,0.1-48.7-0.2
		c-1.6,0-3.4-2.1-4.4-3.6c-11.2-17.6-27.8-22.9-47.4-19.5c-18.7,3.2-30,15.6-35.1,33.3c-5.8,20.4-4.4,40.1,8.7,57.9
		c17.6,23.7,56.9,22.5,72.8-2.5c2.3-3.7,4.7-5,8.9-4.9C1636.2,290.1,1651,289.9,1667,289.9z"/>
	<path class="st1" d="M1040.6,222.5c0-6.6,0-12.4,0-18.6c15.4,0,30.4,0,45.8,0c0,50.2,0,100.2,0,150.8c-14.9,0-29.8,0-45.6,0
		c0-5.9,0-11.8,0-17.9c-7.4,5.3-13.5,11.2-20.8,14.7c-30,14.6-66.3,2.8-82.2-27.9c-15.6-30-15.3-61.1,1.2-91
		c20.5-37.2,76.1-41.4,99.3-11.4C1038.5,221.5,1039,221.6,1040.6,222.5z M1040.2,278.9c-0.1-1.7-0.1-4.1-0.3-6.4
		c-2.1-24.2-28-38.1-48.7-26.1c-11.4,6.6-16.1,17.4-16.7,29.9c-1.4,25.8,15.3,41.3,35.3,40.2
		C1027.6,315.6,1040.1,300.6,1040.2,278.9z"/>
	<path class="st1" d="M1982.8,223.3c0-7.6,0-13.3,0-19.4c15.8,0,30.8,0,46.2,0c0,50.5,0,100.4,0,150.8c-15.3,0-30.1,0-46,0
		c0-5.9,0-11.8,0-17.9c-7.1,5.3-13.1,11-20.2,14.4c-32,15.8-70.7,1.1-85.4-32.9c-11.4-26.3-11.2-53.3,0.4-79.5
		C1896.7,196.2,1954.9,189,1982.8,223.3z M1982.6,278.4c-0.1-1.4-0.1-3.9-0.3-6.5c-1.7-14.8-13.5-27.6-26.9-29.5
		c-15.4-2.2-29.9,5.6-35.5,20.2c-4.8,12.7-4.7,25.8,2.3,37.8c5.7,9.9,14.6,15.7,26.3,16.1C1968.6,317.1,1982.4,302.1,1982.6,278.4z"
		/>
	<path class="st1" d="M1846,354.9c-15.6,0-30.5,0-46.3,0c0-2.8,0-5.3,0-7.7c0-25.5,0.2-51-0.1-76.5c-0.1-11.4-4.2-21.2-15.1-26.5
		c-9.9-4.8-20.1-4.6-29.5,1.3c-10.1,6.4-13,16.7-13,27.9c-0.1,24.5,0,49.1,0,73.6c0,2.5,0,5.1,0,7.7c-15.6,0-30.7,0-46.3,0
		c0-66.6,0-133,0-199.8c15.2,0,30.3,0,46.1,0c0,21.8,0,43.6,0,66.7c2.1-1.5,3.2-2.1,4-3c18.5-17.8,40.6-20.6,63.9-13.2
		c23.2,7.4,34.6,26.1,35.8,48.9C1847.2,287.7,1846,320.9,1846,354.9z"/>
	<path class="st1" d="M2247.8,354.8c0-18.7,0.1-36.7,0-54.7c-0.1-11.2,0.3-22.5-0.8-33.7c-1.6-15.8-13.1-25.5-28.2-25.4
		c-15.2,0.1-25.9,9.3-28.1,24.8c-0.9,6.6-1.1,13.5-1.1,20.3c-0.2,22.9-0.1,45.7-0.1,68.9c-15.6,0-30.5,0-46,0
		c0-50.3,0-100.5,0-150.9c15.2,0,30.3,0,46.1,0c0,5.9,0,11.3,0,16.4c7.9-4.8,14.8-10.9,22.7-13.8c38.3-13.9,79,4.4,81.2,51
		c1.5,31.3,0.4,62.6,0.5,94c0,0.9-0.2,1.8-0.4,3.1C2278.5,354.8,2263.7,354.8,2247.8,354.8z"/>
	<path class="st1" d="M1270.7,355c-14.9,0-29.5,0-45.1,0c0-2.6,0-5.2,0-7.6c0-23.4,0.1-46.8-0.1-70.1c0-4.4-0.4-8.9-1.3-13.2
		c-2.7-14.2-13.5-23-27.7-23c-14.6,0-25.6,8.9-28.2,23.1c-0.8,4.4-1,8.9-1,13.3c-0.1,23.1-0.1,46.3-0.1,69.4c0,2.5,0,5.1,0,8
		c-15.8,0-31,0-46.5,0c0-50.3,0-100.2,0-150.7c15.3,0,30.6,0,46.8,0c0,5.7,0,11.2,0,18.2c17.5-19.2,38.2-23,60.8-18.6
		c24,4.8,41.4,24.6,42.4,50.3c1.3,32.9,0.7,65.9,0.7,98.8C1271.4,353.4,1271.1,353.8,1270.7,355z"/>
	<path class="st1" d="M806.7,354.8c0-63.4,0-126.2,0-189.6c15.3,0,30.5,0,46.1,0c0,51.1,0,101.9,0,153.7c20.4,0,40.1,0,60.5,0
		c0,12.3,0,23.9,0,36C878,354.8,842.8,354.8,806.7,354.8z"/>
	<path class="st1" d="M2063,204c15.4,0,30.6,0,46.1,0c0,50.2,0,100.2,0,150.7c-15.3,0-30.6,0-46.1,0C2063,304.4,2063,254.4,2063,204
		z"/>
	<path class="st1" d="M2086.4,187.7c-12.6,0-22.3-5.7-26-15.3c-3.9-10.1-1.3-21,6.6-28.1c7.9-7.1,22.6-8.8,32.8-3.9
		c10.1,4.9,14.7,13.1,14,25C2112.9,178.9,2101.8,187.7,2086.4,187.7z"/>
</g>
<g>
	<path class="st2" d="M652.3,81.2c15.6,3.5,31,7.7,43.9,17.8c39.4,30.8,47,85.9,16.4,128.2c-22.1,30.6-48.6,56.9-85.8,69.3
		c-6,2-7.1,6.8-9,11.7c-17.8,43.8-49.6,75.2-92.1,93.9c-34.8,15.3-68.4,7.9-95.9-18.8c-25.9-25.1-33.5-65.4-17.3-98.9
		c20.1-41.6,51.8-72.1,95.3-89.3c6-2.4,8.1-6.3,10.4-11.7c19.7-46,52.8-78.7,99.4-97.3c6.3-2.5,13.4-3.3,20.1-4.8
		C642.5,81.2,647.4,81.2,652.3,81.2z M643.7,118.7c-6.1-0.3-13.4,0.5-20,3.8c-27.9,14-49.7,34.7-66.4,60.9
		c-3.9,6.1-1.6,9.1,4.8,11.3c28.3,9.3,46.8,28.6,56.3,56.5c2.6,7.6,6.2,9.2,12.9,4.7c22.9-15.4,43.6-33.2,57.3-57.5
		C709,162.6,684.9,119,643.7,118.7z M491.5,372.3c5.1-0.7,10.7-0.4,15.3-2.2c31.7-12.8,54.7-35.5,72.2-64.3c2.9-4.7,1.2-7.5-4-9.2
		c-29.3-9.7-49.1-29-58.4-58.5c-2.1-6.6-5.5-7.3-10.7-3.9c-5.8,3.8-11.9,7.3-17,11.9c-19.1,17-39.1,33.4-46.9,59.4
		C432.1,339.2,456.3,371.8,491.5,372.3z M594.1,272.9c0.5,16.5-4.2,31.5-13.4,45c-14.4,21.2-33.1,38.1-54,52.7
		c-7.2,5-15.3,8.1-23.8,10.2c-36.4,9.4-72.4-14-77.7-50.9c-3.2-22.5,2.1-43.2,15.4-61.8c15.8-22,35.8-39.3,58.3-54.1
		c3.5-2.3,11.6-3.8,9.4-7.4c-3.1-5.1-9.5-0.1-13.5,2.2c-32,18.1-59,41.9-75.7,74.9c-12.6,24.8-11.9,50.4,5.6,73.5
		c25.7,33.8,65.5,43.2,102.8,22.4c29.4-16.4,53.9-39,70.7-68.6c17-29.8,9.2-70.1-16.9-91.4c-2.5-2-5.6-6.2-8.6-2.5
		c-2.3,2.7,1.8,5.4,3.8,7.6C589.5,238.1,593.8,254.8,594.1,272.9z M529.6,176.2c30.8-27.9,56.5-62,99.1-78.4
		C597.5,96.6,540.4,142.4,529.6,176.2z M634.6,268.4c22.2-1.6,65-46.9,61.1-63.3C680.2,230.5,657.7,248.1,634.6,268.4z"/>
	<path class="st2" d="M292.5,387.7c-9.7,4.1-18.4,4.9-27.8,3.3c-7.6-1.2-15.2,1.7-20.6,7.9c-4.3,4.8-9.4,4.1-14.4,2.3
		c-5.4-1.9-0.3-6.8-2.8-11.5c-8.8,7.9-19.2,1-29,2.9c-1.9,0.4-4,0.1-3.3-2.3c2.8-10.1-4.8-5.3-7.6-4.8c-10.2,1.9-19.5,8.7-30.9,5.4
		c-1.7-0.5-4.1,1.1-5.2-1.4c-2.6-5.8-7.9-6.8-15.9-6.7c8.8-9.3,17.2-12.6,27.4-10.7c7.6,1.4,15.2,2.4,22.8,1.5
		c8.1-1,13.6-8.6,9.5-14.7c-7.3-11.2-6.6-23.8-8.2-36c-0.9-6.7-3.1-11.8-8.7-15.6c-25.7-17.9-39.3-42.8-44.2-73.4
		c-2.9-18-4.4-36.4-13.1-53.2c-3.7-7-7.8-11.7-16.6-11.3c-4.7,0.2-9.6-1.5-14-3.3c-4.6-1.9-7.9-3-9.1,3.3c-0.3,1.6-0.7,3.9-3,3.3
		c-1.4-0.4-2.6-2-3.5-3.4c-7.7-13.1-6-34.5,4.2-46c4.8-5.5,8.6-11.4,12.5-17.6c10.1-16.2,27.2-17.5,44.1-17.3
		c24.5,0.3,41.5,13.9,52.4,34c15.7,28.9,38,50.8,62.7,72.2c30.9,26.7,55.3,59.9,75.3,95.8c8.2,14.8,18.4,28.4,25.6,43.9
		c3,6.4,8,12.3,14.2,16.3c13.6,8.8,19.4,24.7,32,34.5c4.2,3.3,0.1,5.4-3.4,5.4c-25.4-0.5-50.4-2.1-65.2-27.5
		c-4.2-7.2-11.2-8.9-18.4-10.2c-10.6-1.9-21.3-3.2-31.8-5.1c-7.3-1.3-11.1,1.1-12.1,8.7c-0.4,3.3-2.3,6.5-3.7,9.6
		c-1.4,3.1-6.5,5.3-2.7,9.7c3.3,3.9,7.4,6.3,12.8,4.9C280.4,378.6,286.6,381.3,292.5,387.7z M225.6,341.5
		c-6.8,9.2-8.1,20.4-18.6,25.6c-3.7,1.8-0.2,6.4,3,6c6.6-1,10.6,2.2,15.6,5.6c4.7,3.2,10.8,1.4,15.5-2.3c2.4-1.9,3.4-5.3,1-7.3
		C233.6,362.2,232.5,351,225.6,341.5z"/>
</g>
</svg>
