<?xml version="1.0" encoding="utf-8"?>
<!-- Generator: Adobe Illustrator 26.3.1, SVG Export Plug-In . SVG Version: 6.00 Build 0)  -->
<svg version="1.1" id="Layer_1" xmlns="http://www.w3.org/2000/svg" xmlns:xlink="http://www.w3.org/1999/xlink" x="0px" y="0px"
	 viewBox="0 0 500 500" style="enable-background:new 0 0 500 500;" xml:space="preserve">
<style type="text/css">
	.st0{fill:none;}
	.st1{fill:#0A0A0A;}
</style>
<rect x="-10" y="104.7" class="st0" width="519" height="304.6"/>
<g>
	<path class="st1" d="M429.9,134.8c11,2.5,21.9,5.4,31,12.6c27.8,21.8,33.2,60.7,11.6,90.6c-15.6,21.7-34.3,40.2-60.6,49
		c-4.2,1.4-5,4.8-6.4,8.2c-12.6,31-35,53.1-65.1,66.4c-24.6,10.8-48.3,5.6-67.8-13.3c-18.3-17.7-23.7-46.2-12.2-69.9
		c14.2-29.4,36.6-51,67.4-63.1c4.2-1.7,5.7-4.5,7.3-8.2c13.9-32.5,37.3-55.6,70.3-68.8c4.5-1.8,9.5-2.3,14.2-3.4
		C423,134.8,426.5,134.8,429.9,134.8z M423.8,161.4c-4.3-0.2-9.4,0.3-14.1,2.7c-19.7,9.9-35.1,24.5-46.9,43c-2.7,4.3-1.1,6.5,3.4,8
		c20,6.6,33.1,20.2,39.8,40c1.8,5.4,4.4,6.5,9.1,3.4c16.2-10.9,30.8-23.5,40.5-40.6C470,192.4,452.9,161.6,423.8,161.4z
		 M316.3,340.6c3.6-0.5,7.5-0.3,10.8-1.6c22.4-9,38.7-25.1,51-45.4c2-3.3,0.9-5.3-2.8-6.5c-20.7-6.8-34.7-20.5-41.2-41.4
		c-1.5-4.7-3.9-5.2-7.6-2.8c-4.1,2.7-8.4,5.2-12,8.4c-13.5,12-27.6,23.6-33.1,42C274.3,317.2,291.4,340.2,316.3,340.6z M388.8,270.3
		c0.4,11.7-3,22.3-9.5,31.8c-10.2,15-23.4,26.9-38.1,37.2c-5.1,3.5-10.8,5.7-16.8,7.2c-25.8,6.6-51.2-9.9-54.9-36
		c-2.3-15.9,1.5-30.5,10.9-43.6c11.1-15.5,25.3-27.7,41.2-38.3c2.5-1.6,8.2-2.7,6.6-5.2c-2.2-3.6-6.7-0.1-9.6,1.5
		c-22.6,12.8-41.7,29.6-53.5,52.9c-8.9,17.5-8.4,35.6,4,51.9c18.2,23.9,46.3,30.5,72.6,15.8c20.8-11.6,38.1-27.6,50-48.5
		c12-21.1,6.5-49.5-12-64.6c-1.7-1.4-3.9-4.4-6.1-1.8c-1.6,1.9,1.3,3.8,2.7,5.4C385.6,245.7,388.6,257.5,388.8,270.3z M343.2,202
		c21.8-19.7,39.9-43.8,70.1-55.4C391.2,145.8,350.9,178.1,343.2,202z M417.4,267.2c15.7-1.2,45.9-33.2,43.2-44.7
		C449.6,240.4,433.7,252.8,417.4,267.2z"/>
	<path class="st1" d="M175.6,351.5c-6.8,2.9-13,3.5-19.7,2.4c-5.4-0.9-10.7,1.2-14.6,5.6c-3,3.4-6.7,2.9-10.2,1.6
		c-3.8-1.4-0.2-4.8-2-8.1c-6.3,5.6-13.5,0.7-20.5,2c-1.3,0.3-2.8,0.1-2.4-1.6c2-7.1-3.4-3.8-5.4-3.4c-7.2,1.3-13.8,6.2-21.8,3.8
		c-1.2-0.3-2.9,0.7-3.7-1c-1.9-4.1-5.6-4.8-11.2-4.7c6.2-6.5,12.1-8.9,19.3-7.5c5.3,1,10.7,1.7,16.1,1c5.7-0.7,9.6-6.1,6.7-10.4
		c-5.2-7.9-4.7-16.8-5.8-25.4c-0.6-4.7-2.2-8.3-6.1-11c-18.2-12.6-27.8-30.2-31.2-51.9c-2-12.7-3.1-25.8-9.3-37.6
		c-2.6-5-5.5-8.3-11.8-8c-3.3,0.1-6.8-1-9.9-2.3c-3.2-1.3-5.6-2.1-6.5,2.4c-0.2,1.1-0.5,2.8-2.1,2.3c-1-0.3-1.9-1.4-2.4-2.4
		c-5.4-9.2-4.2-24.4,2.9-32.5c3.4-3.9,6.1-8.1,8.8-12.4c7.1-11.5,19.2-12.4,31.2-12.2c17.3,0.2,29.3,9.8,37,24
		c11.1,20.4,26.9,35.9,44.3,51c21.9,18.9,39.1,42.3,53.2,67.7c5.8,10.4,13,20.1,18.1,31c2.1,4.5,5.7,8.7,10,11.5
		c9.6,6.2,13.7,17.5,22.6,24.4c3,2.3,0.1,3.8-2.4,3.8c-17.9-0.3-35.6-1.5-46.1-19.4c-3-5.1-7.9-6.3-13-7.2c-7.5-1.3-15-2.3-22.5-3.6
		c-5.2-0.9-7.8,0.8-8.5,6.1c-0.3,2.3-1.6,4.6-2.6,6.8c-1,2.2-4.6,3.7-1.9,6.9c2.4,2.7,5.2,4.4,9.1,3.5
		C167.1,345,171.5,346.9,175.6,351.5z M128.4,318.8c-4.8,6.5-5.7,14.4-13.2,18.1c-2.6,1.3-0.2,4.6,2.2,4.2c4.7-0.7,7.5,1.6,11.1,3.9
		c3.3,2.2,7.6,1,10.9-1.6c1.7-1.3,2.4-3.8,0.7-5.1C134,333.5,133.2,325.6,128.4,318.8z"/>
</g>
</svg>
