<?xml version="1.0" encoding="utf-8"?>
<!-- Generator: Adobe Illustrator 26.3.1, SVG Export Plug-In . SVG Version: 6.00 Build 0)  -->
<svg version="1.1" id="Layer_1" xmlns="http://www.w3.org/2000/svg" xmlns:xlink="http://www.w3.org/1999/xlink" x="0px" y="0px"
	 viewBox="0 0 500 500" style="enable-background:new 0 0 500 500;" xml:space="preserve">
<style type="text/css">
	.st0{fill:#FAFAF9;}
</style>
<ellipse transform="matrix(0.1602 -0.9871 0.9871 0.1602 -18.9396 715.7336)" class="st0" cx="411.2" cy="369" rx="55.3" ry="55.3"/>
<path class="st0" d="M298.8,79.9v83.2c-26.8-19.9-70.8-35-114.1-35c-38.5,0-59.8,14.4-59.8,37.1c0,24.1,24.7,33.7,70.8,46
	c60.5,15.8,126.5,36.4,126.5,114.8c0,72.9-57.1,120.3-154.7,120.3c-52.9,0-99.7-14.4-133.4-38.5v-90.1
	c30.9,27.5,74.2,49.5,129.3,49.5c42.6,0,66.7-15.8,66.7-40.5c0-26.8-29.6-35.7-80.4-50.9C88.4,258.7,32.7,235.3,32.7,167.3
	S88.4,49.7,181.2,49.7C225.2,49.7,270.6,61.4,298.8,79.9L298.8,79.9z"/>
</svg>
