<?xml version="1.0" encoding="utf-8"?>
<!-- Generator: Adobe Illustrator 26.3.1, SVG Export Plug-In . SVG Version: 6.00 Build 0)  -->
<svg version="1.1" id="Layer_1" xmlns="http://www.w3.org/2000/svg" xmlns:xlink="http://www.w3.org/1999/xlink" x="0px" y="0px"
	 viewBox="0 0 2179.6 500" style="enable-background:new 0 0 2179.6 500;" xml:space="preserve">
<style type="text/css">
	.st0{fill:#0C0A09;}
</style>
<path class="st0" d="M206.4,163.2v48.7c-15.7-11.6-41.4-20.5-66.7-20.5c-22.5,0-35,8.4-35,21.7c0,14.1,14.5,19.7,41.4,26.9
	c35.4,9.2,74,21.3,74,67.1c0,42.6-33.4,70.4-90.4,70.4c-30.9,0-58.3-8.4-78-22.5v-52.7c18.1,16.1,43.4,28.9,75.6,28.9
	c24.9,0,39-9.2,39-23.7c0-15.7-17.3-20.9-47-29.8c-35.8-10.1-68.4-23.8-68.4-63.5s32.6-68.7,86.8-68.7
	C163.4,145.5,189.9,152.4,206.4,163.2L206.4,163.2z M329.9,150.7h60.3V197h-60.3v89.2c0,29.8,18.9,41.4,44.6,41.4
	c6,0,12.9-0.8,19.7-2V373c-7.2,1.6-17.3,3.2-31.8,3.2c-55.1,0-86.4-33-86.4-87.2v-92h-32.2v-46.2h32.6V99.3h53.5L329.9,150.7
	L329.9,150.7z M420.3,261.7c0-70.4,48.7-116.2,98.9-116.2c32.6,0,59.5,16.1,74.8,41.4l5.6-36.2h46.6v221.1h-46.6l-5.6-36.2
	c-15.3,25.3-42.2,41.8-74.8,41.8C469,377.5,420.3,331.2,420.3,261.7z M591.6,261.3c0-38.6-24.5-65.5-57.1-65.5s-58.3,27.3-58.3,65.5
	s24.9,65.5,58.3,65.5S591.6,299.9,591.6,261.3z M759.6,185.3c14.5-24.5,43.4-39.8,72.8-39.8c51.5,0,97.7,45,97.7,115.8
	s-48.2,116.2-99.7,116.2c-31.8,0-58.7-16.5-74-41.8l-5.6,36.2h-46.6V49.4h55.5L759.6,185.3L759.6,185.3z M758.8,261.3
	c0,38.6,24.9,65.5,57.5,65.5s57.9-26.9,57.9-65.1s-24.9-65.9-58.3-65.9S758.8,222.7,758.8,261.3L758.8,261.3z M973,83.2
	c0-17.3,13.7-30.9,31.4-30.9s30.9,13.7,30.9,30.9s-13.7,30.5-30.9,30.5C987.1,113.7,973,100.5,973,83.2z M976.7,150.7h55.5v221.1
	h-55.5L976.7,150.7L976.7,150.7z M1091.2,49.4h55.5v322.4h-55.5V49.4z M1202.2,83.2c0-17.3,13.7-30.9,31.4-30.9
	c17.7,0,30.9,13.7,30.9,30.9s-13.7,30.5-30.9,30.5S1202.2,100.5,1202.2,83.2L1202.2,83.2z M1205.8,150.7h55.5v221.1h-55.5V150.7z
	 M1385.9,150.7h60.3V197h-60.3v89.2c0,29.8,18.9,41.4,44.6,41.4c6,0,12.9-0.8,19.7-2V373c-7.2,1.6-17.3,3.2-31.8,3.2
	c-55.1,0-86.4-33-86.4-87.2v-92h-32.2v-46.2h32.6V99.3h53.5L1385.9,150.7L1385.9,150.7z M1568,456.2h-55.9l37.8-91.2l-83.2-214.3
	h59.9l51.5,152.7h1.2l51.8-152.7h57.1L1568,456.2L1568,456.2z M1792.7,261.7c0-70.4,48.7-116.2,98.9-116.2
	c32.6,0,59.5,16.1,74.8,41.4l5.6-36.2h46.6v221.1H1972l-5.6-36.2c-15.3,25.3-42.2,41.8-74.8,41.8
	C1841.4,377.5,1792.7,331.2,1792.7,261.7z M1964,261.3c0-38.6-24.5-65.5-57.1-65.5s-58.3,27.3-58.3,65.5s24.9,65.5,58.3,65.5
	S1964,299.9,1964,261.3z M2073.7,83.2c0-17.3,13.7-30.9,31.4-30.9S2136,66,2136,83.2s-13.7,30.5-30.9,30.5
	C2087.8,113.7,2073.7,100.5,2073.7,83.2z M2077.3,150.7h55.5v221.1h-55.5V150.7z"/>
<path class="st0" d="M1690.4,341.7c0-18.5,14.1-32.6,32.6-32.6s32.6,14.1,32.6,32.6s-14.5,32.6-32.6,32.6S1690.4,359.8,1690.4,341.7
	z"/>
</svg>
