<?xml version="1.0" encoding="utf-8"?>
<!-- Generator: Adobe Illustrator 26.3.1, SVG Export Plug-In . SVG Version: 6.00 Build 0)  -->
<svg version="1.1" id="Layer_1" xmlns="http://www.w3.org/2000/svg" xmlns:xlink="http://www.w3.org/1999/xlink" x="0px" y="0px"
	 viewBox="0 0 500 500" style="enable-background:new 0 0 500 500;" xml:space="preserve">
<style type="text/css">
	.st0{fill:#0C0A09;}
</style>
<g id="Symbol">
	<path class="st0" d="M346,105c-37.8,0-67.3,28.4-94,64.6c-36.7-46.8-67.4-64.6-104.2-64.6c-74.9,0-132.4,97.5-132.4,200.8
		c0,64.6,31.3,105.3,83.6,105.3c37.7,0,64.8-17.8,112.9-102c0,0,20.1-35.5,33.9-59.9c4.8,7.8,9.9,16.2,15.3,25.3l22.6,38
		c44,73.6,68.5,98.6,112.9,98.6c51,0,79.4-41.3,79.4-107.2C476,195.8,417.3,105,346,105z M175.2,286.4
		c-39.1,61.2-52.6,74.9-74.3,74.9c-22.4,0-35.7-19.6-35.7-54.7c0-74.9,37.4-151.6,81.9-151.6c24.1,0,44.3,13.9,75.2,58.1
		C192.9,258.2,175.2,286.4,175.2,286.4z M322.6,278.7l-27-45c-7.3-11.9-14.3-22.8-21.1-32.8c24.3-37.6,44.4-56.3,68.3-56.3
		c49.6,0,89.3,73,89.3,162.8c0,34.2-11.2,54-34.4,54C375.4,361.3,364.8,346.6,322.6,278.7z"/>
</g>
</svg>
