<?xml version="1.0" encoding="utf-8"?>
<!-- Generator: Adobe Illustrator 26.3.1, SVG Export Plug-In . SVG Version: 6.00 Build 0)  -->
<svg version="1.1" id="Layer_1" xmlns="http://www.w3.org/2000/svg" xmlns:xlink="http://www.w3.org/1999/xlink" x="0px" y="0px"
	 viewBox="0 0 2683.5 500" style="enable-background:new 0 0 2683.5 500;" xml:space="preserve">
<style type="text/css">
	.st0{fill:#FAFAF9;}
</style>
<g id="Wordmark">
	<path class="st0" d="M775.8,66.8H851l127.8,231.1l127.8-231.1h73.5v379.8h-61.3V155.5l-112,201.6h-57.5l-112-201.6v291.1h-61.3
		V66.8z"/>
	<path class="st0" d="M1377.8,453.4c-28.4,0-53.4-6.3-74.9-18.9c-21.5-12.6-38.3-30-50.3-52.2c-12-22.2-18-47.7-18-76.5
		c0-29.1,5.9-54.9,17.6-77.3c11.8-22.4,28.1-40,49-52.6c20.9-12.7,44.9-19,72-19c26.9,0,50.1,6.4,69.6,19.1
		c19.4,12.8,34.4,30.6,44.9,53.6c10.5,23,15.7,49.9,15.7,80.8v16.8h-208.1c3.8,23.2,13.2,41.4,28.1,54.7
		c14.9,13.3,33.8,19.9,56.6,19.9c18.3,0,34-2.7,47.2-8.1c13.2-5.4,25.6-13.7,37.2-24.7l32.6,39.9
		C1464.5,438.5,1424.8,453.4,1377.8,453.4z M1422.6,228.1c-12.8-13.1-29.7-19.7-50.5-19.7c-20.3,0-37.2,6.7-50.9,20.1
		c-13.7,13.4-22.3,31.4-25.9,54h149.2C1442.7,259.3,1435.4,241.2,1422.6,228.1z"/>
	<path class="st0" d="M1577.7,213.8h-56.4v-50.2h56.4v-83h59.1v83h85.7v50.2h-85.7V341c0,21.2,3.6,36.3,10.9,45.3
		c7.2,9,19.6,13.6,37.2,13.6c7.8,0,14.4-0.3,19.8-0.9c5.4-0.6,11.4-1.5,17.9-2.6V446c-7.4,2.1-15,3.8-22.7,4.9
		c-8.8,1.3-17.6,1.9-26.5,1.9c-63.8,0-95.8-34.9-95.8-104.7L1577.7,213.8z"/>
	<path class="st0" d="M2030.8,446.6h-58.1V407c-10.3,14.8-23.4,26.3-39.3,34.3c-15.9,8-34,12.1-54.3,12.1c-25,0-47.1-6.4-66.3-19.1
		c-19.3-12.7-34.4-30.3-45.4-52.6c-11-22.3-16.5-47.9-16.5-76.6c0-28.9,5.6-54.5,16.8-76.8c11.2-22.2,26.7-39.7,46.5-52.4
		c19.8-12.7,42.5-19,68.2-19c19.4,0,36.7,3.8,52.1,11.3c15.2,7.3,28.3,18.3,38.3,31.9v-36.4h58.1L2030.8,446.6z M1971.6,262.6
		c-6.3-16.1-16.3-28.8-30-38.1c-13.7-9.3-29.4-14-47.3-14c-25.3,0-45.5,8.5-60.5,25.5c-15,17-22.5,40-22.5,68.9
		c0,29.1,7.2,52.2,21.7,69.2c14.5,17,34.1,25.5,58.9,25.5c18.3,0,34.5-4.7,48.8-14.1c14.3-9.4,24.6-22.1,30.9-38L1971.6,262.6z"/>
</g>
<g id="Symbol">
	<path class="st0" d="M479.6,53.9c-49.3,0-87.8,37.1-122.7,84.3c-47.9-61-88-84.3-136-84.3C123,53.9,48.1,181.2,48.1,316
		c0,84.3,40.8,137.5,109.1,137.5c49.2,0,84.5-23.2,147.4-133.1c0,0,26.2-46.3,44.2-78.2c6.3,10.2,13,21.2,20,33l29.5,49.6
		c57.4,96.1,89.4,128.7,147.4,128.7c66.6,0,103.6-53.9,103.6-140C649.3,172.4,572.7,53.9,479.6,53.9z M256.7,290.6
		c-51,79.9-68.6,97.8-97,97.8c-29.2,0-46.6-25.6-46.6-71.4c0-97.8,48.8-197.8,106.9-197.8c31.5,0,57.8,18.2,98.1,75.9
		C279.9,253.8,256.7,290.6,256.7,290.6z M449.1,280.6l-35.3-58.8c-9.5-15.5-18.7-29.8-27.5-42.8c31.8-49,58-73.5,89.1-73.5
		c64.8,0,116.6,95.3,116.6,212.4c0,44.6-14.6,70.5-44.9,70.5C518.1,388.5,504.2,369.3,449.1,280.6z"/>
</g>
<g>
	<path class="st0" d="M2426.2,451.6l-33.6-85.8h-168.7l-33.6,85.8h-66.7l152.5-379.5h65.6l152.5,379.5H2426.2z M2244.6,311.4h127.3
		l-63.6-162.9L2244.6,311.4z"/>
	<path class="st0" d="M2604.8,72.1v379.5h-64.6V72.1H2604.8z"/>
</g>
</svg>
