<?xml version="1.0" encoding="utf-8"?>
<!-- Generator: Adobe Illustrator 26.3.1, SVG Export Plug-In . SVG Version: 6.00 Build 0)  -->
<svg version="1.1" id="Layer_1" xmlns="http://www.w3.org/2000/svg" xmlns:xlink="http://www.w3.org/1999/xlink" x="0px" y="0px"
	 viewBox="0 0 2166.3 500" style="enable-background:new 0 0 2166.3 500;" xml:space="preserve">
<style type="text/css">
	.st0{fill:#0C0A09;}
	.st1{fill-rule:evenodd;clip-rule:evenodd;fill:#0C0A09;}
</style>
<path class="st0" d="M614,334V169.7h43.4v61.1h49.1v-61.1h43.4V334h-43.4v-65.1h-49.1V334H614z"/>
<path class="st0" d="M821.2,337.1c-13.8,0-23.8-4.5-30.1-13.8c-6.2-9.5-9.3-21.9-9.3-37.7v-78h43.4v72.3c0,8.1,1,13.4,3.1,16.2
	c2.1,2.6,5.5,4.1,9.5,4.1c4.1,0,7.4-1,10-2.6c2.6-1.7,5.5-4.5,8.1-8.6v-81.3h43.4V334H864l-3.1-16.7h-1c-5,6-10.7,11-16.9,14.3
	C837,335.2,829.8,337.1,821.2,337.1z"/>
<path class="st0" d="M974.8,386c-9.5,0-18.4-1.2-26.5-3.3c-8.1-1.9-14.5-5.2-19.6-9.8c-4.8-4.5-7.2-10.5-7.2-18.1
	c0-10,6-18.1,17.6-24.3v-1c-3.1-2.4-6-5.2-8.3-8.6c-2.1-3.6-3.3-7.9-3.3-13.1c0-4.3,1.2-8.6,3.8-12.9s6.2-7.9,10.3-11v-1
	c-4.5-3.1-8.6-7.4-12.2-12.9c-3.3-5.7-5-12.2-5-19.6c0-10.5,2.6-19.1,7.6-25.8c5.2-6.9,11.9-11.9,20.3-15.3s16.9-5,26.2-5
	c7.4,0,14.1,1,20.3,3.1h47v31.2h-18.1c0.5,1.4,1,3.3,1.2,5.7c0.5,2.4,0.7,4.8,0.7,7.4c0,10-2.4,18.1-6.9,24.3
	c-4.5,6-10.7,10.5-18.4,13.4c-7.6,2.9-16.5,4.3-25.8,4.3c-4.3,0-8.8-0.5-14.1-1.7c-1.9,1.9-3.1,4.3-3.1,7.4c0,2.6,1.4,4.5,4.1,5.7
	c2.9,1.2,7.4,1.7,13.6,1.7h19c15.7,0,28.1,2.6,36.7,7.9c8.8,5,13.1,13.4,13.1,25c0,9.1-3.1,17.2-9.1,24.1s-14.3,12.4-25.3,16.2
	C1002.7,384.1,989.8,386,974.8,386z M978.9,268.4c4.1,0,7.4-1.4,9.8-4.3c2.6-2.9,3.8-7.4,3.8-13.4s-1.2-10.3-3.8-12.9
	c-2.6-2.9-5.7-4.3-9.8-4.3s-7.4,1.4-9.8,4.3c-2.6,2.6-3.8,6.9-3.8,12.9s1.2,10.5,3.8,13.4C971.5,267,974.8,268.4,978.9,268.4z
	 M982,359.3c7.2,0,12.9-1.2,17.6-3.3c4.8-1.9,7.2-4.8,7.2-8.3c0-3.3-1.4-5.5-4.5-6.2c-2.9-1-6.9-1.2-12.4-1.2h-9.8
	c-5,0-8.8-0.2-11.7-0.5c-2.6-0.2-4.8-0.5-6.7-1c-3.1,3.1-4.5,6-4.5,9.1c0,4.1,2.4,6.9,6.9,8.8C968.6,358.3,974.6,359.3,982,359.3z"
	/>
<path class="st0" d="M1112.7,386c-9.5,0-18.4-1.2-26.5-3.3c-8.1-1.9-14.5-5.2-19.6-9.8c-4.8-4.5-7.2-10.5-7.2-18.1
	c0-10,6-18.1,17.6-24.3v-1c-3.1-2.4-6-5.2-8.3-8.6c-2.1-3.6-3.3-7.9-3.3-13.1c0-4.3,1.2-8.6,3.8-12.9c2.6-4.3,6.2-7.9,10.3-11v-1
	c-4.5-3.1-8.6-7.4-12.2-12.9c-3.3-5.7-5-12.2-5-19.6c0-10.5,2.6-19.1,7.6-25.8c5.2-6.9,11.9-11.9,20.3-15.3c8.3-3.3,16.9-5,26.2-5
	c7.4,0,14.1,1,20.3,3.1h47v31.2h-18.1c0.5,1.4,1,3.3,1.2,5.7c0.5,2.4,0.7,4.8,0.7,7.4c0,10-2.4,18.1-6.9,24.3
	c-4.5,6-10.7,10.5-18.4,13.4c-7.6,2.9-16.5,4.3-25.8,4.3c-4.3,0-8.8-0.5-14.1-1.7c-1.9,1.9-3.1,4.3-3.1,7.4c0,2.6,1.4,4.5,4.1,5.7
	c2.9,1.2,7.4,1.7,13.6,1.7h18.8c15.7,0,28.1,2.6,36.7,7.9c8.8,5,13.1,13.4,13.1,25c0,9.1-3.1,17.2-9.1,24.1s-14.3,12.4-25.3,16.2
	C1140.6,384.1,1127.7,386,1112.7,386z M1116.7,268.4c4.1,0,7.4-1.4,9.8-4.3c2.6-2.9,3.8-7.4,3.8-13.4s-1.2-10.3-3.8-12.9
	c-2.6-2.9-5.7-4.3-9.8-4.3s-7.4,1.4-9.8,4.3c-2.6,2.6-3.8,6.9-3.8,12.9s1.2,10.5,3.8,13.4C1109.3,267,1112.7,268.4,1116.7,268.4z
	 M1119.8,359.3c7.2,0,12.9-1.2,17.6-3.3c4.8-1.9,7.2-4.8,7.2-8.3c0-3.3-1.4-5.5-4.5-6.2c-2.9-1-6.9-1.2-12.4-1.2h-9.8
	c-5,0-8.8-0.2-11.7-0.5c-2.6-0.2-4.8-0.5-6.7-1c-3.1,3.1-4.5,6-4.5,9.1c0,4.1,2.4,6.9,6.9,8.8
	C1106.5,358.3,1112.4,359.3,1119.8,359.3z"/>
<path class="st0" d="M1204.7,334V207.6h43.4V334H1204.7z M1226.4,192.1c-7.2,0-12.9-1.9-17.2-5.7c-4.3-4.1-6.7-9.3-6.7-16
	s2.1-11.7,6.7-15.7c4.3-4.1,10-6,17.2-6s12.9,1.9,17.2,6c4.3,3.8,6.7,9.1,6.7,15.7c0,6.7-2.1,11.9-6.7,16
	C1239.1,190.2,1233.4,192.1,1226.4,192.1z"/>
<path class="st0" d="M1277.5,334V207.6h35.3l3.1,15.3h1c5-4.8,10.7-9.1,17.2-12.6c6.7-3.8,14.1-5.5,22.7-5.5
	c14.1,0,24.1,4.8,30.1,14.1c6.2,9.3,9.3,21.7,9.3,37.4V334h-43.4v-72.3c0-8.1-1-13.4-3.1-16.2c-1.9-2.6-5.2-4.1-9.5-4.1
	c-4.1,0-7.4,1-10,2.6c-2.6,1.7-5.7,4.1-9.1,7.2V334H1277.5z"/>
<path class="st0" d="M1470.4,386c-9.5,0-18.4-1.2-26.5-3.3c-8.1-1.9-14.5-5.2-19.6-9.8c-4.8-4.5-7.2-10.5-7.2-18.1
	c0-10,6-18.1,17.6-24.3v-1c-3.1-2.4-6-5.2-8.3-8.6c-2.1-3.6-3.3-7.9-3.3-13.1c0-4.3,1.2-8.6,3.8-12.9c2.6-4.3,6.2-7.9,10.3-11v-1
	c-4.5-3.1-8.6-7.4-12.2-12.9c-3.3-5.7-5-12.2-5-19.6c0-10.5,2.6-19.1,7.6-25.8c5.2-6.9,11.9-11.9,20.3-15.3s16.9-5,26.2-5
	c7.4,0,14.1,1,20.3,3.1h47v31.2h-18.1c0.5,1.4,1,3.3,1.2,5.7c0.5,2.4,0.7,4.8,0.7,7.4c0,10-2.4,18.1-6.9,24.3
	c-4.5,6-10.7,10.5-18.4,13.4c-7.6,2.9-16.2,4.3-25.8,4.3c-4.3,0-8.8-0.5-14.1-1.7c-1.9,1.9-3.1,4.3-3.1,7.4c0,2.6,1.4,4.5,4.1,5.7
	c2.9,1.2,7.4,1.7,13.6,1.7h18.8c15.7,0,28.1,2.6,36.7,7.9c8.8,5,13.1,13.4,13.1,25c0,9.1-3.1,17.2-9.1,24.1s-14.3,12.4-25.3,16.2
	C1498.3,384.1,1485.4,386,1470.4,386z M1474.5,268.4c4.1,0,7.4-1.4,9.8-4.3c2.6-2.9,3.8-7.4,3.8-13.4s-1.2-10.3-3.8-12.9
	c-2.6-2.9-5.7-4.3-9.8-4.3c-4.1,0-7.4,1.4-9.8,4.3c-2.6,2.6-3.8,6.9-3.8,12.9s1.2,10.5,3.8,13.4
	C1467.1,267,1470.4,268.4,1474.5,268.4z M1477.6,359.3c7.2,0,12.9-1.2,17.6-3.3c4.8-1.9,7.2-4.8,7.2-8.3c0-3.3-1.4-5.5-4.5-6.2
	c-2.9-1-6.9-1.2-12.4-1.2h-9.8c-5,0-8.8-0.2-11.7-0.5c-2.6-0.2-4.8-0.5-6.7-1c-3.1,3.1-4.5,6-4.5,9.1c0,4.1,2.4,6.9,6.9,8.8
	C1464.2,358.3,1470.2,359.3,1477.6,359.3z"/>
<path class="st0" d="M1616.4,334V169.7h107.1v36.5h-63.7v31.2h54.9v36.5H1660V334H1616.4z"/>
<path class="st0" d="M1771.2,337.1c-7.9,0-14.8-1.7-20.5-5.2c-5.5-3.8-9.8-8.6-12.9-14.3c-3.1-6-4.5-12.4-4.5-19.3
	c0-13.1,5.5-23.4,16.2-30.8c10.7-7.6,28.4-12.6,52.5-15.3c-1-8.8-6.9-13.1-17.6-13.1c-4.5,0-9.3,1-14.3,2.9c-5,1.7-11,4.3-17.4,7.9
	l-15.3-28.4c8.8-5.5,17.9-9.5,26.9-12.4c9.3-2.9,18.8-4.3,28.6-4.3c16.5,0,29.3,4.8,38.6,14.1c9.3,9.3,13.8,24.3,13.8,45.1v70H1810
	l-3.1-12.2h-1c-5,4.5-10.5,8.3-16.2,11.2C1784.3,335.7,1778.1,337.1,1771.2,337.1z M1786.2,303.7c3.6,0,6.4-0.7,8.8-2.4
	c2.4-1.7,4.5-3.8,6.9-6.2V278c-10.3,1.4-17.4,3.8-21.5,6.9c-3.8,3.1-5.7,6.2-5.7,9.8C1774.7,300.6,1778.5,303.7,1786.2,303.7z"/>
<path class="st0" d="M1930.9,337.1c-11.9,0-22.7-2.6-32.4-7.9c-9.5-5.2-17.2-12.6-22.9-22.4c-5.5-10-8.3-21.9-8.3-35.8
	c0-14.1,3.1-25.8,9.3-35.5c6.4-10,14.8-17.4,25-22.7c10.3-5.2,21.5-7.9,33.4-7.9c7.6,0,14.3,1.2,20.5,3.6s11.7,5.5,16.5,9.5
	l-20.3,27.9c-2.6-2.4-5.2-4.1-7.4-4.8c-2.1-1-4.5-1.2-6.9-1.2c-8.1,0-14.3,2.9-18.8,8.6c-4.5,5.5-6.9,13.1-6.9,22.7
	s2.4,17.2,7.2,22.9c4.8,5.5,10.5,8.3,17.2,8.3c3.6,0,6.9-0.7,10.3-2.4c3.6-1.7,6.9-3.6,9.8-5.7l16.7,28.4
	c-6.2,5.5-13.1,9.5-20.7,11.7C1944.5,335.9,1937.4,337.1,1930.9,337.1z"/>
<path class="st0" d="M2043.8,337.1c-12.4,0-23.4-2.6-33.4-7.9c-9.8-5.2-17.4-12.6-23.1-22.4c-5.7-10-8.6-21.9-8.6-35.8
	c0-13.6,2.9-25.3,8.6-35.1c6-10,13.4-17.6,22.7-22.9c9.3-5.5,19.1-8.1,29.3-8.1c12.4,0,22.7,2.9,30.8,8.3
	c8.3,5.5,14.3,12.6,18.1,21.9c4.1,9.3,6,19.6,6,30.8c0,3.8-0.2,7.4-0.7,11c-0.2,3.3-0.7,5.7-1,7.4h-72c1.9,7.6,5.7,12.9,11,16
	c5.2,2.9,11.4,4.3,18.4,4.3c8.1,0,16.7-2.6,25.8-7.6l14.1,25.8c-6.7,4.8-14.3,8.3-22.7,11C2058.8,335.7,2050.9,337.1,2043.8,337.1z
	 M2020.1,255.8h37.4c0-4.8-1.2-9.1-3.8-12.6c-2.4-3.8-6.9-5.5-13.4-5.5c-4.8,0-8.8,1.4-12.6,4.3
	C2024,244.6,2021.6,249.4,2020.1,255.8z"/>
<path class="st0" d="M499.3,384.6c2.4-3.6,4.1-7.6,4.8-11.9c0.7-4.3,0.5-8.6-0.5-12.9c-1.7-6-4.8-11-9.3-14.5
	c2.1-3.6,3.6-7.4,4.1-11.4c1.2-8.8-1.7-17.6-8.3-24.8c-5.2-5.7-12.4-8.6-20.5-8.6c-1,0-1.9,0-2.9,0.2c6.2-19.6,9.3-39.8,9.3-60.3
	C476,129,385.8,38.9,274.5,38.9s-201.7,90-201.7,201.4c0,20.5,3.1,40.8,9.1,60.1h-0.2c-8.1,0-15.3,3.1-20.5,8.6
	c-6.7,7.2-9.5,16-8.3,24.8c0.5,4.1,1.9,7.9,4.1,11.4c-4.5,3.6-7.6,8.6-9.3,14.5c-1.2,4.1-1.2,8.6-0.5,12.9s2.4,8.3,4.8,11.9
	c-0.5,0.7-0.7,1.4-1.2,2.1c-4.1,7.6-4.3,16.2-0.7,24.1c5.2,12.2,18.6,21.5,44.4,31.7c16,6.4,30.5,10.5,30.8,10.5
	c21.2,5.5,40.3,8.3,56.8,8.3c27.2,0,47.5-7.4,60.6-22.2c21.9,3.6,44.4,3.3,66.1-0.5c12.9,15,33.4,22.4,60.8,22.4
	c16.5,0,35.8-2.9,56.8-8.3c0.2,0,14.8-4.1,30.8-10.5c25.8-10.3,38.9-19.8,44.4-31.7c3.6-7.9,3.3-16.5-0.7-24.1
	C500.2,386,499.7,385.3,499.3,384.6z M233.1,416.1c-1,1.9-2.1,3.8-3.6,5.7c-3.3,5-7.9,8.6-12.9,11.4c-9.8,5.2-22.2,7.2-34.8,7.2
	c-19.8,0-40.3-4.5-51.8-7.6c-0.5-0.2-69.9-19.8-61.1-36.5c1.4-2.9,3.8-3.8,6.9-3.8c12.4,0,34.8,18.4,44.6,18.4c2.1,0,3.6-1,4.3-3.1
	c4.1-14.8-62.7-21-57-42.5c1-3.8,3.6-5.2,7.4-5.2c16.5,0,52.9,28.9,60.8,28.9c0.5,0,1-0.2,1.2-0.5c0,0,0,0,0-0.2
	c3.6-6,1.4-10.3-23.1-25.3c-0.7-0.5-1.7-1-2.4-1.4c-27.2-16.5-46.3-26.2-35.3-38.2c1.2-1.4,3.1-1.9,5.2-1.9c2.6,0,5.7,1,9.1,2.4
	c14.3,6,34.3,22.7,42.5,29.8c2.4,2.1,3.8,3.3,3.8,3.3s10.5,11,16.9,11c1.4,0,2.6-0.5,3.6-1.9c4.5-7.6-42-42.7-44.6-57.2
	c-1.7-9.8,1.2-14.8,6.9-14.8c2.6,0,6,1.2,9.5,3.3c11.2,7.2,32.4,43.9,40.3,58.2c2.6,4.8,7.2,6.9,11.2,6.9c8.1,0,14.3-7.9,0.7-18.1
	c-20.3-15.3-13.1-40.1-3.6-41.7c0.5,0,0.7,0,1.2,0c8.8,0,12.6,15.3,12.6,15.3s11.4,28.6,31,48.4C241,383.2,243.4,397.7,233.1,416.1z
	 M296.5,419.4l-1,0.2c-0.5,0-1.2,0.2-1.7,0.2c-1,0-1.9,0.2-2.9,0.2h-1h-0.7H288c-0.5,0-1,0-1.2,0h-1.2h-0.2c-0.2,0-0.7,0-1,0h-0.5
	c-0.5,0-0.7,0-1.2,0h-1.4h-1.2h-1h-0.5c-0.2,0-0.5,0-0.7,0s-0.2,0-0.5,0s-0.5,0-0.7,0h-1c-0.5,0-1,0-1.4,0c-1.2,0-2.4,0-3.6,0h-1
	c-0.2,0-0.5,0-0.7,0h-1h-1.2H266h-0.2h-1c-0.2,0-0.5,0-1,0h-0.7c-1,0-1.7,0-2.6-0.2h-1c-0.5,0-0.7,0-1.2,0s-1,0-1.4-0.2
	c-0.7,0-1.4-0.2-2.1-0.2l0,0c11-24.3,5.5-47-16.7-68.9c-14.5-14.3-24.1-35.8-26-40.3c-4.1-13.8-14.8-29.3-32.4-29.3
	c-1.4,0-3.1,0.2-4.5,0.2c-7.9,1.2-14.5,5.7-19.3,12.4c-5.2-6.4-10.3-11.7-15-14.5c-6.9-4.3-13.8-6.7-20.5-6.7
	c-8.3,0-16,3.3-21.2,9.8l-0.2,0.2c0-0.5-0.2-0.7-0.2-1.2l0,0c-0.2-1.2-0.5-2.6-1-3.8c-0.5-2.1-1-4.3-1.2-6.4c-0.2-1-0.2-1.7-0.5-2.6
	l0,0c0-0.2,0-0.7-0.2-1c0-0.2,0-0.5,0-0.5c0-0.2,0-0.7-0.2-1c0-0.5-0.2-1-0.2-1.4c0-0.5,0-1-0.2-1.4c0-0.5,0-1-0.2-1.4
	c0-0.5,0-1-0.2-1.2l0,0c0-1-0.2-1.7-0.2-2.6c0-1-0.2-1.7-0.2-2.6c0-0.2,0-0.5,0-0.7c0-0.5,0-0.7,0-1.2c0-0.2,0-0.7,0-1V252
	c0-0.5,0-0.7,0-1.2s0-1,0-1.4s0-1,0-1.4s0-0.7,0-1.2v-0.5c0-0.5,0-0.7,0-1.2v-1c0-0.5,0-0.7,0-1.2s0-0.7,0-1.2s0-0.7,0-1.2
	s0-0.7,0-1.2c0-99.9,80.8-180.8,180.8-180.8s180.8,80.8,180.8,180.8c0,0.5,0,0.7,0,1.2s0,0.7,0,1.2s0,0.7,0,1.2c0,0.2,0,0.7,0,1
	s0,0.5,0,1s0,0.7,0,1.2l0,0c0,0.5,0,1,0,1.2c0,0.5,0,0.7,0,1.2v0.2c0,0.5,0,0.7,0,1.2c0,0.2,0,0.7,0,1c0,1.9-0.2,3.8-0.5,5.7
	c0,0.2,0,0.7,0,1l0,0c0,0.5,0,0.7-0.2,1.2c0,0.2,0,0.7,0,1c0,0.7-0.2,1.2-0.2,1.9l-0.2,1c0,0.5,0,0.7-0.2,1.2c0,0.5,0,0.7-0.2,1.2
	c0,0.5-0.2,1-0.2,1.4l-0.2,1.2c0,0.5-0.2,0.7-0.2,1.2s-0.2,0.7-0.2,1.2s-0.2,0.7-0.2,1.2c-0.2,0.7-0.2,1.7-0.5,2.4
	c-0.2,0.7-0.2,1.7-0.5,2.4c0,0.5-0.2,1-0.2,1.4c0,0.5-0.2,0.7-0.2,1.2s-0.2,0.7-0.2,1.2c-5-5-11.9-7.6-19.3-7.6
	c-6.7,0-13.6,2.1-20.5,6.7c-4.5,2.9-9.8,8.1-15,14.5c-4.8-6.7-11.7-11.2-19.3-12.4c-1.4-0.2-2.9-0.2-4.5-0.2
	c-17.6,0-28.4,15.5-32.4,29.3c-1.9,4.8-11.7,26-26,40.5C291.5,372.7,285.8,395.1,296.5,419.4z M483.3,370.7
	C483.3,370.7,483.1,370.7,483.3,370.7c-0.2,0.2-0.2,0.5-0.2,0.7s-0.2,0.5-0.2,0.7s-0.2,0.2-0.2,0.5c-0.2,0.2-0.5,0.7-0.5,1
	c-0.2,0.5-0.5,0.7-1,1.2c-0.2,0.2-0.2,0.5-0.5,0.5c0,0.2-0.2,0.2-0.2,0.5c-0.2,0.2-0.2,0.5-0.5,0.5c-3.1,3.1-8.1,6-13.6,8.6
	c-0.7,0.2-1.2,0.5-1.9,1l-0.7,0.2c-0.5,0.2-1,0.5-1.2,0.5c-0.5,0.2-1,0.5-1.4,0.5l-1.4,0.5c-3.1,1.2-6.2,2.4-9.3,3.8l-1.4,0.5
	l-1.4,0.5c-1,0.2-1.7,0.7-2.6,1l-1.2,0.5l-1.2,0.5l-0.7,0.2c-0.5,0.2-0.7,0.2-1.2,0.5c-9.1,3.8-15.7,7.9-14.3,12.9
	c0,0.2,0,0.2,0.2,0.5c0.2,0.5,0.2,0.7,0.5,1c0.2,0.2,0.2,0.5,0.5,0.5c1.7,1.7,4.5,1.4,8.3,0c0.2,0,0.7-0.2,1-0.2s0.5-0.2,0.7-0.2
	l0.2-0.2c1-0.5,1.7-0.7,2.6-1.2c0.2,0,0.5-0.2,0.7-0.2c4.5-2.1,9.8-5.2,14.8-7.9c0.7-0.5,1.7-0.7,2.4-1.2c1.2-0.7,2.6-1.4,3.8-1.9
	c4.8-2.4,9.5-3.8,13.1-3.8c1.7,0,3.3,0.2,4.5,1.2l0.2,0.2c0.2,0,0.2,0.2,0.5,0.2c0.5,0.5,1,1,1.2,1.4c0,0.2,0.2,0.2,0.2,0.5
	c0,0.2,0.2,0.2,0.2,0.5c1.9,3.3,0.2,6.9-3.3,10.5c-3.3,3.3-8.8,6.7-14.8,9.8c-0.5,0.2-1,0.5-1.4,0.7c-17.9,8.8-41.5,15.5-41.7,15.5
	c-6.2,1.7-15.3,3.8-25.3,5.2l-1.4,0.2H394c-0.5,0-1.2,0.2-1.7,0.2s-1.2,0.2-1.7,0.2c-1.2,0.2-2.4,0.2-3.6,0.5h-0.2
	c-4.3,0.5-8.6,0.7-12.9,1l0,0c-1.4,0-3.1,0-4.5,0c-0.2,0-0.5,0-0.7,0h-0.2c-0.2,0-0.5,0-0.7,0c-1,0-1.9,0-2.6,0
	c-1.4,0-2.9-0.2-4.3-0.2c0,0,0,0-0.2,0c-0.5,0-1.2,0-1.7-0.2c-0.2,0-0.5,0-1,0c-1,0-1.7-0.2-2.6-0.2c-0.5,0-1.2-0.2-1.7-0.2
	s-1.2-0.2-1.7-0.2c-0.2,0-0.5,0-0.7-0.2l0,0c-0.7-0.2-1.7-0.2-2.4-0.5c-0.5,0-1-0.2-1.4-0.2h-0.2c-0.2,0-0.5-0.2-0.7-0.2h-0.2
	l-0.7-0.2c-0.2,0-0.5-0.2-0.7-0.2l0,0l-0.7-0.2c-0.2,0-0.5-0.2-0.7-0.2s-0.5-0.2-0.7-0.2l-0.5-0.2c-0.5-0.2-1-0.2-1.4-0.5l-0.5-0.2
	l-0.2-0.2c-0.7-0.2-1.4-0.5-1.9-1l-0.5-0.2l0,0c-0.2,0-0.2-0.2-0.5-0.2c-0.2-0.2-0.7-0.2-1-0.5l0,0l-0.5-0.2c-0.5-0.2-1-0.5-1.4-0.7
	c-0.2-0.2-0.5-0.2-0.7-0.5l-0.5-0.2c-0.2-0.2-0.5-0.2-0.7-0.5l-0.5-0.2c-0.2-0.2-0.5-0.2-0.5-0.5l-0.2-0.2c-0.5-0.2-0.7-0.5-1-0.7
	c-0.2-0.2-0.5-0.2-0.5-0.5c-0.2-0.2-0.5-0.5-0.7-0.5c-0.2-0.2-0.5-0.2-0.5-0.5l0,0c-0.2-0.2-0.5-0.2-0.5-0.5
	c-0.2-0.2-0.5-0.2-0.5-0.5l0,0c-0.2-0.2-0.5-0.5-0.5-0.5c-0.2-0.2-0.5-0.5-0.5-0.5c-0.2-0.2-0.5-0.5-0.5-0.5
	c-0.2-0.2-0.2-0.5-0.5-0.5l0,0c-0.2-0.2-0.2-0.5-0.5-0.5c-0.2-0.5-0.7-0.7-1-1.2c-0.2-0.5-0.7-1-1-1.4c0-0.2-0.2-0.2-0.2-0.5
	c-0.2-0.2-0.5-0.5-0.5-1c-0.2-0.2-0.5-0.5-0.5-1c-0.2-0.2-0.5-0.5-0.5-1c0-0.2-0.2-0.2-0.2-0.5c-0.2-0.2-0.2-0.5-0.5-0.7l0,0
	c-0.2-0.2-0.2-0.5-0.5-0.7c0-0.2-0.2-0.2-0.2-0.5s-0.2-0.2-0.2-0.5c0,0,0-0.2-0.2-0.2s0,0,0-0.2c-0.2-0.2-0.2-0.5-0.5-1
	c0-0.2-0.2-0.2-0.2-0.5l-0.2-0.5l-0.2-0.5c-0.2-0.2-0.2-0.5-0.5-0.7c0-0.2-0.2-0.2-0.2-0.5c-0.2-0.2-0.2-0.5-0.5-1
	c0,0,0-0.2-0.2-0.2c-0.2-0.2-0.2-0.5-0.2-0.7s0-0.2-0.2-0.5c0-0.2-0.2-0.5-0.2-0.7s0-0.2-0.2-0.5c-0.2-0.5-0.5-1-0.5-1.7
	c0-0.2,0-0.2-0.2-0.5c0-0.2-0.2-0.5-0.2-0.7c-0.2-0.5-0.2-0.7-0.5-1.2c0-0.2,0-0.2,0-0.5c0-0.5-0.2-0.7-0.2-1.2c0-0.2,0-0.5-0.2-0.7
	c0-0.2,0-0.2,0-0.5s0-0.5-0.2-0.7c0-0.5-0.2-0.7-0.2-1.2c0-0.2,0-0.2,0-0.5c0-0.2,0-0.2,0-0.5c0-0.5,0-1-0.2-1.4c0-0.2,0-0.2,0-0.5
	c0-0.2,0-0.5,0-0.7c-0.2-10.3,5-20,16-31c19.6-19.6,31-48.4,31-48.4s0.2-1.2,1-2.9c0-0.2,0.2-0.5,0.2-0.7c0.2-0.2,0.2-0.7,0.5-1
	c0.2-0.5,0.5-1,0.7-1.4c0-0.2,0.2-0.2,0.2-0.5v-0.2c0,0,0-0.2,0.2-0.2c0.2-0.7,0.7-1.4,1.2-1.9c0-0.2,0.2-0.2,0.2-0.5
	c0.2-0.2,0.5-0.7,0.7-1c0.2-0.2,0.2-0.2,0.5-0.5s0.5-0.5,0.7-0.7l0.2-0.2c1.2-1.2,2.4-2.1,3.8-2.6h0.2c0.2,0,0.2,0,0.5,0
	c0.2,0,0.2,0,0.5,0l0,0c0.2,0,0.7,0,1-0.2l0,0c0.2,0,0.2,0,0.5,0s0.5,0,0.7,0s0.5,0,0.7,0c1.7,0.2,3.3,1.4,5,2.9l0.2,0.2
	c0.2,0.5,0.7,0.7,1,1.2c0.2,0.2,0.2,0.2,0.2,0.5c0.2,0.5,0.5,1,0.7,1.4c0,0.2,0.2,0.5,0.2,0.7c0,0,0,0.2,0.2,0.2
	c0,0.2,0.2,0.5,0.2,0.7s0.2,0.5,0.2,0.7c0.5,1,0.7,2.1,1,3.3c0,0.2,0,0.5,0.2,0.7c0.2,1,0.2,1.9,0.2,2.9c0,0.2,0,0.5,0,0.7
	c0,0.7,0,1.2,0,1.9c0,0.2,0,0.5,0,0.7c-0.2,2.4-0.7,4.8-1.4,7.2c-0.2,0.5-0.2,0.7-0.5,1.2c0,0.2-0.2,0.5-0.2,0.7
	c-0.2,0.5-0.5,1-0.7,1.7c-0.2,0.5-0.5,0.7-0.7,1.2c-0.2,0.2-0.2,0.5-0.5,0.7c-0.5,0.7-0.7,1.2-1.2,1.9l-0.2,0.5
	c-0.5,0.5-0.7,1-1.2,1.4c-0.7,1-1.4,1.7-2.4,2.6c-1.2,1.2-2.6,2.4-4.1,3.6c-1.2,1-2.6,1.9-3.6,3.1c-0.2,0.2-0.2,0.2-0.5,0.5
	c-3.6,3.8-4.5,7.2-3.6,9.5c0,0,0,0.2,0.2,0.2c0,0.2,0.2,0.2,0.2,0.5c0,0,0,0.2,0.2,0.2c0.2,0.5,0.5,0.7,1,1.2c0,0,0,0,0.2,0.2
	l0.2,0.2c0.2,0.2,0.2,0.2,0.5,0.5h0.2l0.2,0.2c0.2,0.2,0.5,0.2,0.7,0.5l0.2,0.2c0.5,0.2,1,0.5,1.2,0.5s0.2,0,0.5,0h0.2h0.2h0.2h0.2
	h0.2h0.2c0.2,0,0.2,0,0.5,0h0.2h0.2h0.2h0.2h0.2h0.2l0,0h0.2l0,0h0.2h0.2h0.2h0.2h0.2h0.2c0.2,0,0.2,0,0.5,0c0.5,0,0.7-0.2,1.2-0.2
	s0.7-0.2,1.2-0.5c0.2,0,0.2,0,0.5-0.2c0.2,0,0.5-0.2,0.7-0.2s0.2-0.2,0.5-0.2c0.2-0.2,0.5-0.2,0.7-0.5c0.5-0.2,1-0.7,1.4-1.2
	l0.2-0.2c0,0,0,0,0.2-0.2l0.2-0.2c0.2-0.2,0.5-0.5,0.7-0.7c0.5-0.7,1-1.4,1.4-2.1c3.1-5.7,8.6-15.3,14.8-25c0.2-0.5,0.5-0.7,0.7-1.2
	s0.5-0.7,0.7-1.2s0.7-1.2,1-1.7l0.5-0.5c0.2-0.5,0.5-0.7,0.7-1.2c1-1.4,1.9-2.9,2.9-4.5l0.7-1.2c1.4-2.1,2.9-4.3,4.3-6.2l0.7-1
	c1-1.4,2.1-2.9,3.1-4.3c0.5-0.7,1.2-1.4,1.7-2.1l0.7-0.7c0-0.2,0.2-0.2,0.2-0.5c0.2-0.2,0.5-0.5,0.7-0.7c0-0.2,0.2-0.2,0.2-0.5
	c0.2-0.2,0.5-0.5,0.7-0.7l0.2-0.2c0.2-0.2,0.7-0.7,1-1c0.2-0.2,0.5-0.5,0.7-0.7c1.2-1.2,2.6-2.4,4.1-3.3l0.2-0.2l0.2-0.2
	c0.2-0.2,0.5-0.2,0.7-0.5c5.7-3.1,10.3-3.3,12.9-0.7c1.7,1.7,2.6,4.3,2.4,8.1c0,0.2,0,0.2,0,0.5v0.2c0,0.2,0,0.2,0,0.5
	c0,0.2,0,0.5,0,0.7s0,0.5,0,0.5s0,0,0,0.2s0,0.2,0,0.5c0,0,0,0,0,0.2s0,0.2,0,0.5c0,0,0,0,0,0.2s0,0.5,0,0.7s0,0.2,0,0.2
	c0,0.2-0.2,0.7-0.2,1s-0.2,0.7-0.5,1c0,0.2-0.2,0.5-0.2,0.7s-0.2,0.5-0.5,0.7c-0.2,0.5-0.5,1-1,1.7c-0.2,0.2-0.2,0.5-0.5,0.7
	c0,0.2-0.2,0.2-0.2,0.5c-0.2,0.5-0.5,1-1,1.2c-0.2,0.5-0.7,1-1,1.4c-0.5,0.7-1,1.2-1.4,1.9l-0.5,0.5c-0.7,0.7-1.2,1.7-1.9,2.4
	c-0.5,0.5-0.7,1-1.2,1.4c-0.2,0.2-0.5,0.7-1,1l-0.5,0.5c-0.7,0.7-1.2,1.4-1.9,1.9l-0.5,0.5c-0.2,0.2-0.7,0.7-1,1
	c-0.2,0.2-0.7,0.7-1,1l-1,1c-0.2,0.2-0.7,0.7-1,1c-0.2,0.2-0.7,0.7-1,1c-0.7,0.7-1.4,1.4-1.9,2.1c-9.8,10-19.8,19.8-23.4,26
	c-0.2,0.5-0.5,0.7-0.7,1.2c-0.5,1.2-0.7,2.1-0.5,2.9c0,0.2,0.2,0.5,0.2,0.7s0.2,0.2,0.2,0.5c0,0.2,0.2,0.2,0.5,0.5
	c0.2,0.2,0.2,0.2,0.5,0.2c0.7,0.5,1.7,0.7,2.4,0.7h0.2h0.2h0.2h0.2l0,0h0.2l0,0h0.2l0,0h0.2h0.2c0.2,0,0.5-0.2,0.5-0.2
	c0.2,0,0.5-0.2,0.7-0.2s0.5-0.2,0.7-0.2c0,0,0.2,0,0.2-0.2l0.2-0.2c0.5-0.2,0.7-0.5,1.2-0.7c0.2-0.2,0.7-0.5,1-0.7l0.2-0.2l0.2-0.2
	l0.2-0.2h0.2c0.2,0,0.2-0.2,0.5-0.2c0.5-0.2,0.7-0.7,1.2-1l0,0c0.2-0.2,0.5-0.2,0.7-0.5c1-0.7,1.7-1.4,2.4-2.1l0.5-0.5l0,0l0.2-0.2
	c0.7-0.5,1.2-1,1.7-1.4l0.2-0.2c0.2-0.2,0.2-0.2,0.5-0.5l0.2-0.2l0,0l0,0l0.2-0.2l0.2-0.2l0,0l0,0l0,0l0,0l0,0l0.5-0.5l0.2-0.2
	c0.2,0,0.2-0.2,0.5-0.5l0.2-0.2c0,0,0,0,0.2-0.2l0.2-0.2l0.5-0.5l0.2-0.2c1-1,2.4-1.9,3.8-3.3l0.5-0.5l1-0.7c0.2-0.2,0.7-0.5,1-1
	c1.4-1.2,2.6-2.1,4.3-3.3l1-0.7c0.7-0.7,1.7-1.4,2.6-1.9c0.2-0.2,0.7-0.5,1-0.7c0.5-0.5,1-0.7,1.7-1.2c0.2-0.2,0.7-0.5,1-0.7
	c2.1-1.4,4.1-3.1,6.2-4.5l1-0.7c0.7-0.5,1.2-1,1.9-1.4l0.5-0.5c0.7-0.5,1.2-0.7,1.9-1.2c0.5-0.5,1.2-0.7,1.7-1l0.5-0.5l0.5-0.2
	c0.5-0.2,1.2-0.7,1.7-1l0.5-0.2l1.2-0.7c0.5-0.2,0.7-0.5,1.2-0.7l0.2-0.2c0.2-0.2,0.5-0.2,1-0.5c0.5-0.2,0.7-0.5,1.2-0.5l0.5-0.2
	l0.5-0.2c0.2,0,0.5-0.2,0.5-0.2c1-0.5,2.1-1,3.1-1.4c0.2,0,0.2-0.2,0.5-0.2c0.2-0.2,0.7-0.2,1-0.5c0.2,0,0.7-0.2,1-0.2
	c0.2,0,0.5-0.2,1-0.2l0,0c0.2,0,0.2,0,0.5-0.2l0,0c0.2,0,0.7-0.2,1-0.2l0,0c0.5,0,1-0.2,1.2-0.2s0.2,0,0.5,0s0.5,0,1,0
	c0.2,0,0.2,0,0.5,0s0.5,0,0.7,0h0.2c0.2,0,0.5,0,0.7,0h0.2l0,0h0.2h0.2l0,0h0.2h0.2c0.5,0.2,0.7,0.2,1.2,0.5c0,0,0.2,0,0.2,0.2
	l0.2,0.2c0.2,0.2,0.2,0.2,0.5,0.5l0,0c0,0,0,0,0.2,0.2l0.2,0.2c1,1,1.7,2.1,2.4,3.3v0.2c0,0.2,0,0.2,0.2,0.5c0.2,0.2,0.2,0.7,0.2,1
	c0.2,1.4,0.2,2.9-0.2,4.3c0,0.2,0,0.2-0.2,0.5c-0.2,0.5-0.5,1-0.7,1.4l-0.2,0.2c-0.7,1.2-1.7,2.4-2.6,3.6l-0.2,0.2
	c-0.2,0.2-0.7,0.7-1,1c-0.2,0.2-0.2,0.2-0.5,0.5c-0.2,0.2-0.2,0.2-0.5,0.5l-0.2,0.2c-0.2,0.2-0.2,0.2-0.5,0.5
	c-0.2,0.2-0.7,0.7-1.2,1l-0.2,0.2c-0.5,0.2-0.7,0.7-1.2,1c-0.7,0.5-1.4,1.2-2.1,1.7s-1.4,1-2.1,1.4c-1,0.5-1.7,1.2-2.6,1.7
	c-1.7,1-3.3,2.1-5.2,3.3c-0.5,0.2-1,0.7-1.4,1c-4.8,2.9-9.8,6-15.5,9.3l-1.4,1c-1.7,1-3.1,1.9-4.5,2.9l-0.7,0.5l-1.4,1
	c-0.5,0.2-1,0.7-1.4,1c-0.5,0.2-0.7,0.5-1.2,0.7l-0.7,0.5c-0.2,0.2-0.7,0.5-1,0.7l-0.2,0.2c-0.2,0.2-0.7,0.5-1,0.7l-0.5,0.5
	l-0.7,0.5l-0.5,0.5c-1,0.7-1.9,1.4-2.9,1.9l-0.2,0.2c-0.5,0.2-0.7,0.5-1,0.7c-0.2,0.2-0.2,0.2-0.5,0.2c-0.7,0.5-1.4,1.2-1.9,1.7
	l-0.2,0.2c-0.2,0.2-0.2,0.2-0.5,0.5l-0.2,0.2l-0.2,0.2l-0.2,0.2c-0.2,0.2-0.5,0.5-0.7,0.7l-0.2,0.2c-0.2,0.5-0.7,0.7-1,1.2v0.2
	c-0.2,0.2-0.5,0.7-0.5,1c0,0,0,0.2-0.2,0.2v0.2c0,0,0,0,0,0.2v0.2l0,0c0,0,0,0,0,0.2v0.2c0,0.2-0.2,0.5-0.2,0.7c0,0,0,0,0,0.2
	c0,0,0,0,0,0.2c0,0,0,0,0,0.2v0.2c0,0,0,0,0,0.2l0,0v0.2v0.2l0,0v0.2l0,0v0.2v0.2l0,0v0.2v0.2c0,0.2,0,0.2,0.2,0.5v0.2l0,0v0.2
	c0,0,0,0.2,0.2,0.2c0,0.2,0.2,0.2,0.2,0.5c0,0,0,0.2,0.2,0.2l0.2,0.2c0,0,0,0.2,0.2,0.2c0,0,0,0,0,0.2l0,0l0,0l0,0c0,0,0,0,0.2,0
	c0,0,0,0,0.2,0c0,0,0,0,0.2,0c1.4,0.2,4.3-0.7,7.9-2.9c0.2,0,0.5-0.2,0.7-0.2l1.2-0.7l0.5-0.2c0.5-0.2,0.7-0.5,1.2-0.7
	c0.2-0.2,0.5-0.2,0.7-0.5c5-2.9,11-6.4,16.9-10c0.5-0.2,1.2-0.7,1.7-1l1.2-0.7c0.5-0.2,1.2-0.7,1.7-1c0.7-0.5,1.4-1,2.4-1.2
	c1.7-1,3.6-1.9,5.2-2.9l1.2-0.5c0.7-0.5,1.4-0.7,2.1-1.2c0.7-0.2,1.4-0.7,2.1-1c0.7-0.2,1.4-0.7,2.1-1l0.7-0.2l0,0
	c4.3-1.7,8.1-2.6,11.2-2.6c0.7,0,1.4,0,1.9,0.2l0,0c0.2,0,0.5,0,0.7,0.2l0,0c0.2,0,0.2,0,0.5,0.2c0.2,0,0.2,0,0.5,0.2h0.2
	c0.2,0,0.2,0,0.2,0.2c0.2,0,0.2,0.2,0.5,0.2c0.5,0.2,1,0.7,1.4,1.2c0.2,0.2,0.2,0.5,0.5,0.7c0,0,0,0.2,0.2,0.2
	c0,0.2,0.2,0.2,0.2,0.5s0.2,0.5,0.2,0.5c0,0.2,0.2,0.5,0.2,0.7s0.2,0.5,0.2,0.7C483.8,366.9,483.8,368.8,483.3,370.7z"/>
<path class="st1" d="M333,190.9c2.9,1,5,4.1,6.9,6.9c2.6,3.8,5.2,7.6,9.1,5.5c4.5-2.4,8.3-6.2,10.7-10.7c2.4-4.5,3.6-9.8,2.9-14.8
	c-0.5-5-2.4-10-5.7-14.1c-3.3-4.1-7.6-6.9-12.6-8.3c-5-1.4-10.3-1.4-15,0c-5,1.4-9.3,4.3-12.6,8.3s-5.2,8.8-5.7,13.8
	s0.5,10.3,2.9,14.8c1.7,3.3,5.7,1.7,10,0C327.1,191.2,330.4,190,333,190.9z M210.5,190.9c-2.9,1-5,4.1-6.9,6.9
	c-2.6,3.8-5.2,7.6-9.1,5.5c-4.5-2.4-8.3-6.2-10.7-10.7s-3.6-9.8-2.9-14.8c0.5-5,2.4-10,5.7-14.1s7.6-6.9,12.6-8.3
	c5-1.4,10.3-1.4,15,0c5,1.4,9.3,4.3,12.6,8.3s5.2,8.8,5.7,13.8s-0.5,10.3-2.9,14.8c-1.9,3.3-5.7,1.7-10,0
	C216.7,191.2,213.1,190,210.5,190.9z M314.2,302.3c19.3-15.3,26.5-40.3,26.5-55.6c0-12.2-8.1-8.3-21.2-1.9c-0.2,0.2-0.5,0.2-0.7,0.5
	c-11.9,6-28.1,13.8-45.6,13.8c-17.6,0-33.6-7.9-45.6-13.8c-13.6-6.7-21.9-11-21.9,1.4c0,16,7.6,42,28.4,57
	c2.9-5.5,6.7-10.5,11.4-14.5c4.8-4.1,10.3-6.9,16.2-8.8c2.1-0.7,4.3,2.9,6.4,6.7c2.1,3.6,4.3,7.2,6.4,7.2c2.4,0,4.5-3.6,6.9-7.2
	s4.5-7.2,6.9-6.4c0.7,0.2,1.2,0.5,1.9,0.7C300.4,285.1,309,292.5,314.2,302.3z"/>
<path class="st1" d="M164.2,212.4c-2.9,1.9-6,2.9-9.3,2.9c-2.1,0-4.5-0.5-6.4-1.2c-2.1-1-3.8-2.1-5.5-3.6c-1.7-1.7-2.9-3.3-3.6-5.5
	c-0.7-2.1-1.2-4.3-1.2-6.4c0-3.3,1-6.7,2.9-9.3c1.9-2.9,4.5-5,7.6-6.2s6.4-1.7,9.8-1c3.3,0.7,6.2,2.1,8.6,4.5s4.1,5.5,4.5,8.6
	c0.7,3.3,0.2,6.7-1,9.8C169,207.9,166.8,210.7,164.2,212.4z M406,212.4c-2.9,1.9-6,2.9-9.3,2.9c-2.1,0-4.5-0.5-6.4-1.2
	c-2.1-1-3.8-2.1-5.5-3.6c-1.7-1.7-2.9-3.3-3.6-5.5c-0.7-2.1-1.2-4.3-1.2-6.4c0-3.3,1-6.7,2.9-9.3c1.9-2.9,4.5-5,7.6-6.2
	s6.4-1.7,9.8-1c3.3,0.7,6.2,2.1,8.6,4.5s4.1,5.5,4.5,8.6c0.7,3.3,0.2,6.7-1,9.8C410.8,207.9,408.6,210.7,406,212.4z"/>
</svg>
