<?xml version="1.0" encoding="utf-8"?>
<!-- Generator: Adobe Illustrator 26.3.1, SVG Export Plug-In . SVG Version: 6.00 Build 0)  -->
<svg version="1.1" id="Layer_1" xmlns="http://www.w3.org/2000/svg" xmlns:xlink="http://www.w3.org/1999/xlink" x="0px" y="0px"
	 viewBox="0 0 500 500" style="enable-background:new 0 0 500 500;" xml:space="preserve">
<style type="text/css">
	.st0{fill:#0C0A09;}
	.st1{fill-rule:evenodd;clip-rule:evenodd;fill:#0C0A09;}
</style>
<path class="st0" d="M461.1,371.8c2.3-3.4,3.8-7.2,4.5-11.3c0.7-4.1,0.5-8.1-0.5-12.2c-1.6-5.6-4.5-10.4-8.8-13.7
	c2-3.4,3.4-7,3.8-10.8c1.1-8.3-1.6-16.7-7.9-23.4c-5-5.4-11.7-8.1-19.4-8.1c-0.9,0-1.8,0-2.7,0.2c5.9-18.5,8.8-37.6,8.8-57
	c0-105.2-85.2-190.4-190.4-190.4S58.3,130.2,58.3,235.5c0,19.4,2.9,38.5,8.6,56.8h-0.2c-7.7,0-14.4,2.9-19.4,8.1
	c-6.3,6.8-9,15.1-7.9,23.4c0.5,3.8,1.8,7.4,3.8,10.8c-4.3,3.4-7.2,8.1-8.8,13.7c-1.1,3.8-1.1,8.1-0.5,12.2s2.3,7.9,4.5,11.3
	c-0.5,0.7-0.7,1.4-1.1,2c-3.8,7.2-4.1,15.3-0.7,22.8c5,11.5,17.6,20.3,41.9,30c15.1,6.1,28.8,9.9,29.1,9.9c19.8,5,37.8,7.7,53.6,7.7
	c25.7,0,44.8-7,57.2-21c20.7,3.4,41.9,3.2,62.4-0.5c12.2,14.2,31.5,21.2,57.4,21.2c15.5,0,33.8-2.7,53.6-7.9c0.2,0,14-3.8,29.1-9.9
	c24.3-9.7,36.7-18.7,41.9-30c3.4-7.4,3.2-15.5-0.7-22.8C461.8,372.9,461.6,372.4,461.1,371.8z M209.5,401.5c-0.9,1.8-2,3.6-3.4,5.4
	c-3.2,4.7-7.4,8.1-12.2,10.8c-9.2,5-21,6.8-32.9,6.8c-18.7,0-38.1-4.3-48.9-7.2c-0.2-0.2-65.8-18.7-57.4-34.5
	c1.4-2.7,3.6-3.6,6.5-3.6c11.7,0,32.9,17.3,42.1,17.3c2,0,3.4-0.9,4.1-2.9c3.8-14-59.3-19.8-53.8-40.1c0.9-3.6,3.4-5,7-5
	c15.5,0,50,27.3,57.4,27.3c0.5,0,0.9-0.2,1.1-0.5c0,0,0,0,0-0.2c3.4-5.6,1.4-9.7-21.9-23.9c-0.7-0.5-1.6-0.9-2.3-1.4
	c-25.7-15.5-43.7-24.8-33.3-36c1.1-1.4,2.9-1.8,5-1.8c2.5,0,5.4,0.9,8.6,2.3c13.5,5.6,32.4,21.4,40.1,28.2c2.3,2,3.6,3.2,3.6,3.2
	s9.9,10.4,16,10.4c1.4,0,2.5-0.5,3.4-1.8c4.3-7.2-39.7-40.3-42.1-54.1c-1.6-9.2,1.1-14,6.5-14c2.5,0,5.6,1.1,9,3.2
	c10.6,6.8,30.6,41.5,38.1,55c2.5,4.5,6.8,6.5,10.6,6.5c7.7,0,13.5-7.4,0.7-17.1c-19.1-14.4-12.4-37.8-3.4-39.4c0.5,0,0.7,0,1.1,0
	c8.3,0,11.9,14.4,11.9,14.4s10.8,27,29.3,45.7C217.1,370.4,219.4,384.1,209.5,401.5z M269.6,404.7l-0.9,0.2c-0.5,0-1.1,0.2-1.6,0.2
	c-0.9,0-1.8,0.2-2.7,0.2h-0.9h-0.7h-1.1c-0.5,0-0.9,0-1.1,0h-1.1h-0.2c-0.2,0-0.7,0-0.9,0h-0.5c-0.5,0-0.7,0-1.1,0h-1.4h-1.1h-0.9
	H253c-0.2,0-0.5,0-0.7,0s-0.2,0-0.5,0s-0.5,0-0.7,0h-0.9c-0.5,0-0.9,0-1.4,0c-1.1,0-2.3,0-3.4,0h-0.9c-0.2,0-0.5,0-0.7,0h-0.9h-1.1
	h-1.1h-0.2h-0.9c-0.2,0-0.5,0-0.9,0H238c-0.9,0-1.6,0-2.5-0.2h-0.9c-0.5,0-0.7,0-1.1,0s-0.9,0-1.4-0.2c-0.7,0-1.4-0.2-2-0.2l0,0
	c10.4-23,5.2-44.4-15.8-65.1c-13.7-13.5-22.8-33.8-24.6-38.1c-3.8-13.1-14-27.7-30.6-27.7c-1.4,0-2.9,0.2-4.3,0.2
	c-7.4,1.1-13.7,5.4-18.2,11.7c-5-6.1-9.7-11-14.2-13.7c-6.5-4.1-13.1-6.3-19.4-6.3c-7.9,0-15.1,3.2-20.1,9.2l-0.2,0.2
	c0-0.5-0.2-0.7-0.2-1.1l0,0c-0.2-1.1-0.5-2.5-0.9-3.6c-0.5-2-0.9-4.1-1.1-6.1c-0.2-0.9-0.2-1.6-0.5-2.5l0,0c0-0.2,0-0.7-0.2-0.9
	c0-0.2,0-0.5,0-0.5c0-0.2,0-0.7-0.2-0.9c0-0.5-0.2-0.9-0.2-1.4s0-0.9-0.2-1.4c0-0.5,0-0.9-0.2-1.4c0-0.5,0-0.9-0.2-1.1l0,0
	c0-0.9-0.2-1.6-0.2-2.5s-0.2-1.6-0.2-2.5c0-0.2,0-0.5,0-0.7c0-0.5,0-0.7,0-1.1c0-0.2,0-0.7,0-0.9v-0.2c0-0.5,0-0.7,0-1.1
	s0-0.9,0-1.4s0-0.9,0-1.4s0-0.7,0-1.1v-0.5c0-0.5,0-0.7,0-1.1v-0.9c0-0.5,0-0.7,0-1.1s0-0.7,0-1.1s0-0.7,0-1.1s0-0.7,0-1.1
	c0-94.4,76.4-170.8,170.8-170.8S420,140,420,234.4c0,0.5,0,0.7,0,1.1s0,0.7,0,1.1s0,0.7,0,1.1c0,0.2,0,0.7,0,0.9s0,0.5,0,0.9
	c0,0.5,0,0.7,0,1.1l0,0c0,0.5,0,0.9,0,1.1c0,0.5,0,0.7,0,1.1v0.2c0,0.5,0,0.7,0,1.1c0,0.2,0,0.7,0,0.9c0,1.8-0.2,3.6-0.5,5.4
	c0,0.2,0,0.7,0,0.9l0,0c0,0.5,0,0.7-0.2,1.1c0,0.2,0,0.7,0,0.9c0,0.7-0.2,1.1-0.2,1.8l-0.2,0.9c0,0.5,0,0.7-0.2,1.1
	c0,0.5,0,0.7-0.2,1.1c0,0.5-0.2,0.9-0.2,1.4l-0.2,1.1c0,0.5-0.2,0.7-0.2,1.1c0,0.5-0.2,0.7-0.2,1.1c0,0.5-0.2,0.7-0.2,1.1
	c-0.2,0.7-0.2,1.6-0.5,2.3c-0.2,0.7-0.2,1.6-0.5,2.3c0,0.5-0.2,0.9-0.2,1.4s-0.2,0.7-0.2,1.1c0,0.5-0.2,0.7-0.2,1.1
	c-4.7-4.7-11.3-7.2-18.2-7.2c-6.3,0-12.8,2-19.4,6.3c-4.3,2.7-9.2,7.7-14.2,13.7c-4.5-6.3-11-10.6-18.2-11.7
	c-1.4-0.2-2.7-0.2-4.3-0.2c-16.7,0-26.8,14.6-30.6,27.7c-1.8,4.5-11,24.6-24.6,38.3C264.7,360.3,259.5,381.7,269.6,404.7z
	 M445.8,358.7L445.8,358.7c-0.2,0.2-0.2,0.5-0.2,0.7s-0.2,0.5-0.2,0.7s-0.2,0.2-0.2,0.5c-0.2,0.2-0.5,0.7-0.5,0.9
	c-0.2,0.5-0.5,0.7-0.9,1.1c-0.2,0.2-0.2,0.5-0.5,0.5c0,0.2-0.2,0.2-0.2,0.5c-0.2,0.2-0.2,0.5-0.5,0.5c-2.9,2.9-7.7,5.6-12.8,8.1
	c-0.7,0.2-1.1,0.5-1.8,0.9l-0.7,0.2c-0.5,0.2-0.9,0.5-1.1,0.5c-0.5,0.2-0.9,0.5-1.4,0.5l-1.4,0.5c-2.9,1.1-5.9,2.3-8.8,3.6l-1.4,0.5
	L412,379c-0.9,0.2-1.6,0.7-2.5,0.9l-1.1,0.5l-1.1,0.5l-0.7,0.2c-0.5,0.2-0.7,0.2-1.1,0.5c-8.6,3.6-14.9,7.4-13.5,12.2
	c0,0.2,0,0.2,0.2,0.5c0.2,0.5,0.2,0.7,0.5,0.9c0.2,0.2,0.2,0.5,0.5,0.5c1.6,1.6,4.3,1.4,7.9,0c0.2,0,0.7-0.2,0.9-0.2
	c0.2,0,0.5-0.2,0.7-0.2l0.2-0.2c0.9-0.5,1.6-0.7,2.5-1.1c0.2,0,0.5-0.2,0.7-0.2c4.3-2,9.2-5,14-7.4c0.7-0.5,1.6-0.7,2.3-1.1
	c1.1-0.7,2.5-1.4,3.6-1.8c4.5-2.3,9-3.6,12.4-3.6c1.6,0,3.2,0.2,4.3,1.1l0.2,0.2c0.2,0,0.2,0.2,0.5,0.2c0.5,0.5,0.9,0.9,1.1,1.4
	c0,0.2,0.2,0.2,0.2,0.5c0,0.2,0.2,0.2,0.2,0.5c1.8,3.2,0.2,6.5-3.2,9.9c-3.2,3.2-8.3,6.3-14,9.2c-0.5,0.2-0.9,0.5-1.4,0.7
	c-16.9,8.3-39.2,14.6-39.4,14.6c-5.9,1.6-14.4,3.6-23.9,5l-1.4,0.2h-0.2c-0.5,0-1.1,0.2-1.6,0.2s-1.1,0.2-1.6,0.2
	c-1.1,0.2-2.3,0.2-3.4,0.5h-0.2c-4.1,0.5-8.1,0.7-12.2,0.9l0,0c-1.4,0-2.9,0-4.3,0c-0.2,0-0.5,0-0.7,0h-0.2c-0.2,0-0.5,0-0.7,0
	c-0.9,0-1.8,0-2.5,0c-1.4,0-2.7-0.2-4.1-0.2c0,0,0,0-0.2,0c-0.5,0-1.1,0-1.6-0.2c-0.2,0-0.5,0-0.9,0c-0.9,0-1.6-0.2-2.5-0.2
	c-0.5,0-1.1-0.2-1.6-0.2s-1.1-0.2-1.6-0.2c-0.2,0-0.5,0-0.7-0.2l0,0c-0.7-0.2-1.6-0.2-2.3-0.5c-0.5,0-0.9-0.2-1.4-0.2h-0.2
	c-0.2,0-0.5-0.2-0.7-0.2H316l-0.7-0.2c-0.2,0-0.5-0.2-0.7-0.2l0,0l-0.7-0.2c-0.2,0-0.5-0.2-0.7-0.2s-0.5-0.2-0.7-0.2l-0.5-0.2
	c-0.5-0.2-0.9-0.2-1.4-0.5l-0.5-0.2l-0.2-0.2c-0.7-0.2-1.4-0.5-1.8-0.9l-0.5-0.2l0,0c-0.2,0-0.2-0.2-0.5-0.2
	c-0.2-0.2-0.7-0.2-0.9-0.5l0,0l-0.5-0.2c-0.5-0.2-0.9-0.5-1.4-0.7c-0.2-0.2-0.5-0.2-0.7-0.5l-0.5-0.2c-0.2-0.2-0.5-0.2-0.7-0.5
	l-0.5-0.2c-0.2-0.2-0.5-0.2-0.5-0.5l-0.2-0.2c-0.5-0.2-0.7-0.5-0.9-0.7c-0.2-0.2-0.5-0.2-0.5-0.5c-0.2-0.2-0.5-0.5-0.7-0.5
	c-0.2-0.2-0.5-0.2-0.5-0.5l0,0c-0.2-0.2-0.5-0.2-0.5-0.5c-0.2-0.2-0.5-0.2-0.5-0.5l0,0c-0.2-0.2-0.5-0.5-0.5-0.5
	c-0.2-0.2-0.5-0.5-0.5-0.5c-0.2-0.2-0.5-0.5-0.5-0.5c-0.2-0.2-0.2-0.5-0.5-0.5l0,0c-0.2-0.2-0.2-0.5-0.5-0.5
	c-0.2-0.5-0.7-0.7-0.9-1.1c-0.2-0.5-0.7-0.9-0.9-1.4c0-0.2-0.2-0.2-0.2-0.5c-0.2-0.2-0.5-0.5-0.5-0.9c-0.2-0.2-0.5-0.5-0.5-0.9
	c-0.2-0.2-0.5-0.5-0.5-0.9c0-0.2-0.2-0.2-0.2-0.5c-0.2-0.2-0.2-0.5-0.5-0.7l0,0c-0.2-0.2-0.2-0.5-0.5-0.7c0-0.2-0.2-0.2-0.2-0.5
	c0-0.2-0.2-0.2-0.2-0.5c0,0,0-0.2-0.2-0.2s0,0,0-0.2c-0.2-0.2-0.2-0.5-0.5-0.9c0-0.2-0.2-0.2-0.2-0.5l-0.2-0.5l-0.2-0.5
	c-0.2-0.2-0.2-0.5-0.5-0.7c0-0.2-0.2-0.2-0.2-0.5c-0.2-0.2-0.2-0.5-0.5-0.9c0,0,0-0.2-0.2-0.2c-0.2-0.2-0.2-0.5-0.2-0.7
	s0-0.2-0.2-0.5c0-0.2-0.2-0.5-0.2-0.7s0-0.2-0.2-0.5c-0.2-0.5-0.5-0.9-0.5-1.6c0-0.2,0-0.2-0.2-0.5c0-0.2-0.2-0.5-0.2-0.7
	c-0.2-0.5-0.2-0.7-0.5-1.1c0-0.2,0-0.2,0-0.5c0-0.5-0.2-0.7-0.2-1.1c0-0.2,0-0.5-0.2-0.7c0-0.2,0-0.2,0-0.5c0-0.2,0-0.5-0.2-0.7
	c0-0.5-0.2-0.7-0.2-1.1c0-0.2,0-0.2,0-0.5c0-0.2,0-0.2,0-0.5c0-0.5,0-0.9-0.2-1.4c0-0.2,0-0.2,0-0.5c0-0.2,0-0.5,0-0.7
	c-0.2-9.7,4.7-18.9,15.1-29.3c18.5-18.5,29.3-45.7,29.3-45.7s0.2-1.1,0.9-2.7c0-0.2,0.2-0.5,0.2-0.7c0.2-0.2,0.2-0.7,0.5-0.9
	c0.2-0.5,0.5-0.9,0.7-1.4c0-0.2,0.2-0.2,0.2-0.5v-0.2c0,0,0-0.2,0.2-0.2c0.2-0.7,0.7-1.4,1.1-1.8c0-0.2,0.2-0.2,0.2-0.5
	c0.2-0.2,0.5-0.7,0.7-0.9c0.2-0.2,0.2-0.2,0.5-0.5c0.2-0.2,0.5-0.5,0.7-0.7l0.2-0.2c1.1-1.1,2.3-2,3.6-2.5h0.2c0.2,0,0.2,0,0.5,0
	s0.2,0,0.5,0l0,0c0.2,0,0.7,0,0.9-0.2l0,0c0.2,0,0.2,0,0.5,0c0.2,0,0.5,0,0.7,0s0.5,0,0.7,0c1.6,0.2,3.2,1.4,4.7,2.7l0.2,0.2
	c0.2,0.5,0.7,0.7,0.9,1.1c0.2,0.2,0.2,0.2,0.2,0.5c0.2,0.5,0.5,0.9,0.7,1.4c0,0.2,0.2,0.5,0.2,0.7c0,0,0,0.2,0.2,0.2
	c0,0.2,0.2,0.5,0.2,0.7s0.2,0.5,0.2,0.7c0.5,0.9,0.7,2,0.9,3.2c0,0.2,0,0.5,0.2,0.7c0.2,0.9,0.2,1.8,0.2,2.7c0,0.2,0,0.5,0,0.7
	c0,0.7,0,1.1,0,1.8c0,0.2,0,0.5,0,0.7c-0.2,2.3-0.7,4.5-1.4,6.8c-0.2,0.5-0.2,0.7-0.5,1.1c0,0.2-0.2,0.5-0.2,0.7
	c-0.2,0.5-0.5,0.9-0.7,1.6c-0.2,0.5-0.5,0.7-0.7,1.1c-0.2,0.2-0.2,0.5-0.5,0.7c-0.5,0.7-0.7,1.1-1.1,1.8l-0.2,0.5
	c-0.5,0.5-0.7,0.9-1.1,1.4c-0.7,0.9-1.4,1.6-2.3,2.5c-1.1,1.1-2.5,2.3-3.8,3.4c-1.1,0.9-2.5,1.8-3.4,2.9c-0.2,0.2-0.2,0.2-0.5,0.5
	c-3.4,3.6-4.3,6.8-3.4,9c0,0,0,0.2,0.2,0.2c0,0.2,0.2,0.2,0.2,0.5c0,0,0,0.2,0.2,0.2c0.2,0.5,0.5,0.7,0.9,1.1c0,0,0,0,0.2,0.2
	l0.2,0.2c0.2,0.2,0.2,0.2,0.5,0.5h0.2l0.2,0.2c0.2,0.2,0.5,0.2,0.7,0.5l0.2,0.2c0.5,0.2,0.9,0.5,1.1,0.5s0.2,0,0.5,0h0.2h0.2h0.2
	h0.2h0.2h0.2c0.2,0,0.2,0,0.5,0h0.2h0.2h0.2h0.2h0.2h0.2l0,0h0.2l0,0h0.2h0.2h0.2h0.2h0.2h0.2c0.2,0,0.2,0,0.5,0
	c0.5,0,0.7-0.2,1.1-0.2c0.5,0,0.7-0.2,1.1-0.5c0.2,0,0.2,0,0.5-0.2c0.2,0,0.5-0.2,0.7-0.2s0.2-0.2,0.5-0.2c0.2-0.2,0.5-0.2,0.7-0.5
	c0.5-0.2,0.9-0.7,1.4-1.1l0.2-0.2c0,0,0,0,0.2-0.2l0.2-0.2c0.2-0.2,0.5-0.5,0.7-0.7c0.5-0.7,0.9-1.4,1.4-2c2.9-5.4,8.1-14.4,14-23.7
	c0.2-0.5,0.5-0.7,0.7-1.1c0.2-0.5,0.5-0.7,0.7-1.1c0.2-0.5,0.7-1.1,0.9-1.6l0.5-0.5c0.2-0.5,0.5-0.7,0.7-1.1
	c0.9-1.4,1.8-2.7,2.7-4.3l0.7-1.1c1.4-2,2.7-4.1,4.1-5.9l0.7-0.9c0.9-1.4,2-2.7,2.9-4.1c0.5-0.7,1.1-1.4,1.6-2l0.7-0.7
	c0-0.2,0.2-0.2,0.2-0.5c0.2-0.2,0.5-0.5,0.7-0.7c0-0.2,0.2-0.2,0.2-0.5c0.2-0.2,0.5-0.5,0.7-0.7l0.2-0.2c0.2-0.2,0.7-0.7,0.9-0.9
	c0.2-0.2,0.5-0.5,0.7-0.7c1.1-1.1,2.5-2.3,3.8-3.2l0.2-0.2l0.2-0.2c0.2-0.2,0.5-0.2,0.7-0.5c5.4-2.9,9.7-3.2,12.2-0.7
	c1.6,1.6,2.5,4.1,2.3,7.7c0,0.2,0,0.2,0,0.5v0.2c0,0.2,0,0.2,0,0.5c0,0.2,0,0.5,0,0.7s0,0.5,0,0.5s0,0,0,0.2s0,0.2,0,0.5
	c0,0,0,0,0,0.2s0,0.2,0,0.5c0,0,0,0,0,0.2s0,0.5,0,0.7s0,0.2,0,0.2c0,0.2-0.2,0.7-0.2,0.9c0,0.2-0.2,0.7-0.5,0.9
	c0,0.2-0.2,0.5-0.2,0.7s-0.2,0.5-0.5,0.7c-0.2,0.5-0.5,0.9-0.9,1.6c-0.2,0.2-0.2,0.5-0.5,0.7c0,0.2-0.2,0.2-0.2,0.5
	c-0.2,0.5-0.5,0.9-0.9,1.1c-0.2,0.5-0.7,0.9-0.9,1.4c-0.5,0.7-0.9,1.1-1.4,1.8l1.3,0.7c-0.7,0.7-1.1,1.6-1.8,2.3
	c-0.5,0.5-0.7,0.9-1.1,1.4c-0.2,0.2-0.5,0.7-0.9,0.9l-0.5,0.5c-0.7,0.7-1.1,1.4-1.8,1.8l-0.5,0.5c-0.2,0.2-0.7,0.7-0.9,0.9
	s-0.7,0.7-0.9,0.9l-0.9,0.9c-0.2,0.2-0.7,0.7-0.9,0.9c-0.2,0.2-0.7,0.7-0.9,0.9c-0.7,0.7-1.4,1.4-1.8,2
	c-9.2,9.5-18.7,18.7-22.1,24.6c-0.2,0.5-0.5,0.7-0.7,1.1c-0.5,1.1-0.7,2-0.5,2.7c0,0.2,0.2,0.5,0.2,0.7s0.2,0.2,0.2,0.5
	c0,0.2,0.2,0.2,0.5,0.5s0.2,0.2,0.5,0.2c0.7,0.5,1.6,0.7,2.3,0.7h0.2h0.2h0.2h0.2l0,0h0.2l0,0h0.2l0,0h0.2h0.2
	c0.2,0,0.5-0.2,0.5-0.2c0.2,0,0.5-0.2,0.7-0.2s0.5-0.2,0.7-0.2c0,0,0.2,0,0.2-0.2l0.2-0.2c0.5-0.2,0.7-0.5,1.1-0.7
	c0.2-0.2,0.7-0.5,0.9-0.7l0.2-0.2l0.2-0.2l0.2-0.2h0.2c0.2,0,0.2-0.2,0.5-0.2c0.5-0.2,0.7-0.7,1.1-0.9l0,0c0.2-0.2,0.5-0.2,0.7-0.5
	c0.9-0.7,1.6-1.4,2.3-2l0.5-0.5l0,0l0.2-0.2c0.7-0.5,1.1-0.9,1.6-1.4l0.2-0.2c0.2-0.2,0.2-0.2,0.5-0.5l0.2-0.2l0,0l0,0l0.2-0.2
	l0.2-0.2l0,0l0,0l0,0l0,0l0,0l0.5-0.5l0.2-0.2c0.2,0,0.2-0.2,0.5-0.5l0.2-0.2c0,0,0,0,0.2-0.2l0.2-0.2l0.5-0.5l0.2-0.2
	c0.9-0.9,2.3-1.8,3.6-3.2l0.5-0.5l0.9-0.7c0.2-0.2,0.7-0.5,0.9-0.9c1.4-1.1,2.5-2,4.1-3.2l0.9-0.7c0.7-0.7,1.6-1.4,2.5-1.8
	c0.2-0.2,0.7-0.5,0.9-0.7c0.5-0.5,0.9-0.7,1.6-1.1c0.2-0.2,0.7-0.5,0.9-0.7c2-1.4,3.8-2.9,5.9-4.3l0.9-0.7c0.7-0.5,1.1-0.9,1.8-1.4
	l0.5-0.5c0.7-0.5,1.1-0.7,1.8-1.1c0.5-0.5,1.1-0.7,1.6-0.9l0.5-0.5l0.5-0.2c0.5-0.2,1.1-0.7,1.6-0.9l0.5-0.2l1.1-0.7
	c0.5-0.2,0.7-0.5,1.1-0.7l0.2-0.2c0.2-0.2,0.5-0.2,0.9-0.5c0.5-0.2,0.7-0.5,1.1-0.5l0.5-0.2l0.5-0.2c0.2,0,0.5-0.2,0.5-0.2
	c0.9-0.5,2-0.9,2.9-1.4c0.2,0,0.2-0.2,0.5-0.2c0.2-0.2,0.7-0.2,0.9-0.5c0.2,0,0.7-0.2,0.9-0.2s0.5-0.2,0.9-0.2l0,0
	c0.2,0,0.2,0,0.5-0.2l0,0c0.2,0,0.7-0.2,0.9-0.2l0,0c0.5,0,0.9-0.2,1.1-0.2s0.2,0,0.5,0c0.2,0,0.5,0,0.9,0c0.2,0,0.2,0,0.5,0
	c0.2,0,0.5,0,0.7,0h0.2c0.2,0,0.5,0,0.7,0h0.2l0,0h0.2h0.2l0,0h0.2h0.2c0.5,0.2,0.7,0.2,1.1,0.5c0,0,0.2,0,0.2,0.2l0.2,0.2
	c0.2,0.2,0.2,0.2,0.5,0.5l0,0c0,0,0,0,0.2,0.2l0.2,0.2c0.9,0.9,1.6,2,2.3,3.2v0.2c0,0.2,0,0.2,0.2,0.5c0.2,0.2,0.2,0.7,0.2,0.9
	c0.2,1.4,0.2,2.7-0.2,4.1c0,0.2,0,0.2-0.2,0.5c-0.2,0.5-0.5,0.9-0.7,1.4l-0.2,0.2c-0.7,1.1-1.6,2.3-2.5,3.4l-0.2,0.2
	c-0.2,0.2-0.7,0.7-0.9,0.9c-0.2,0.2-0.2,0.2-0.5,0.5c-0.2,0.2-0.2,0.2-0.5,0.5l-0.2,0.2c-0.2,0.2-0.2,0.2-0.5,0.5
	c-0.2,0.2-0.7,0.7-1.1,0.9l-0.2,0.2c-0.5,0.2-0.7,0.7-1.1,0.9c-0.7,0.5-1.4,1.1-2,1.6c-0.7,0.5-1.4,0.9-2,1.4
	c-0.9,0.5-1.6,1.1-2.5,1.6c-1.6,0.9-3.2,2-5,3.2c-0.5,0.2-0.9,0.7-1.4,0.9c-4.5,2.7-9.2,5.6-14.6,8.8l-1.4,0.9
	c-1.6,0.9-2.9,1.8-4.3,2.7l-0.7,0.5l-1.4,0.9c-0.5,0.2-0.9,0.7-1.4,0.9c-0.5,0.2-0.7,0.5-1.1,0.7l-0.7,0.5c-0.2,0.2-0.7,0.5-0.9,0.7
	l-0.2,0.2c-0.2,0.2-0.7,0.5-0.9,0.7l0.2-0.4l-0.7,0.5l-0.5,0.5c-0.9,0.7-1.8,1.4-2.7,1.8l-0.2,0.2c-0.5,0.2-0.7,0.5-0.9,0.7
	c-0.2,0.2-0.2,0.2-0.5,0.2c-0.7,0.5-1.4,1.1-1.8,1.6l-0.2,0.2c-0.2,0.2-0.2,0.2-0.5,0.5l-0.2,0.2l-0.2,0.2l-0.2,0.2
	c-0.2,0.2-0.5,0.5-0.7,0.7l-0.2,0.2c-0.2,0.5-0.7,0.7-0.9,1.1v0.2c-0.2,0.2-0.5,0.7-0.5,0.9c0,0,0,0.2-0.2,0.2v0.2c0,0,0,0,0,0.2
	v0.2l0,0c0,0,0,0,0,0.2v0.2c0,0.2-0.2,0.5-0.2,0.7c0,0,0,0,0,0.2c0,0,0,0,0,0.2c0,0,0,0,0,0.2v0.2c0,0,0,0,0,0.2l0,0v0.2v0.2l0,0
	v0.2l0,0v0.2v0.2l0,0v0.2v0.2c0,0.2,0,0.2,0.2,0.5v0.2l0,0v0.2c0,0,0,0.2,0.2,0.2c0,0.2,0.2,0.2,0.2,0.5c0,0,0,0.2,0.2,0.2l0.2,0.2
	c0,0,0,0.2,0.2,0.2c0,0,0,0,0,0.2l0,0l0,0l0,0c0,0,0,0,0.2,0c0,0,0,0,0.2,0c0,0,0,0,0.2,0c1.4,0.2,4.1-0.7,7.4-2.7
	c0.2,0,0.5-0.2,0.7-0.2l1.1-0.7l0.5-0.2c0.5-0.2,0.7-0.5,1.1-0.7c0.2-0.2,0.5-0.2,0.7-0.5c4.7-2.7,10.4-6.1,16-9.5
	c0.5-0.2,1.1-0.7,1.6-0.9l1.1-0.7c0.5-0.2,1.1-0.7,1.6-0.9c0.7-0.5,1.4-0.9,2.3-1.1c1.6-0.9,3.4-1.8,5-2.7l1.1-0.5
	c0.7-0.5,1.4-0.7,2-1.1c0.7-0.2,1.4-0.7,2-0.9c0.7-0.2,1.4-0.7,2-0.9l0.7-0.2l0,0c4.1-1.6,7.7-2.5,10.6-2.5c0.7,0,1.4,0,1.8,0.2l0,0
	c0.2,0,0.5,0,0.7,0.2l0,0c0.2,0,0.2,0,0.5,0.2c0.2,0,0.2,0,0.5,0.2h0.2c0.2,0,0.2,0,0.2,0.2c0.2,0,0.2,0.2,0.5,0.2
	c0.5,0.2,0.9,0.7,1.4,1.1c0.2,0.2,0.2,0.5,0.5,0.7c0,0,0,0.2,0.2,0.2c0,0.2,0.2,0.2,0.2,0.5c0,0.2,0.2,0.5,0.2,0.5
	c0,0.2,0.2,0.5,0.2,0.7s0.2,0.5,0.2,0.7C446.5,355.1,446.5,356.9,445.8,358.7z"/>
<path class="st1" d="M304.1,188.6c2.7,0.9,4.7,3.8,6.5,6.5c2.5,3.6,5,7.2,8.6,5.2c4.3-2.3,7.9-5.9,10.1-10.1c2.3-4.3,3.4-9.2,2.7-14
	c-0.5-4.7-2.3-9.5-5.4-13.3c-3.2-3.8-7.2-6.5-11.9-7.9c-4.7-1.4-9.7-1.4-14.2,0c-4.7,1.4-8.8,4.1-11.9,7.9c-3.2,3.8-5,8.3-5.4,13.1
	c-0.5,4.7,0.5,9.7,2.7,14c1.6,3.2,5.4,1.6,9.5,0C298.2,189,301.6,187.7,304.1,188.6z M188.3,188.6c-2.7,0.9-4.7,3.8-6.5,6.5
	c-2.5,3.6-5,7.2-8.6,5.2c-4.3-2.3-7.9-5.9-10.1-10.1c-2.3-4.3-3.4-9.2-2.7-14c0.5-4.7,2.3-9.5,5.4-13.3c3.2-3.8,7.2-6.5,11.9-7.9
	s9.7-1.4,14.2,0c4.7,1.4,8.8,4.1,11.9,7.9c3.2,3.8,5,8.3,5.4,13.1c0.5,4.7-0.5,9.7-2.7,14c-1.8,3.2-5.4,1.6-9.5,0
	C193.9,189,190.8,187.7,188.3,188.6z M286.1,294c18.2-14.4,25-38.1,25-52.5c0-11.5-7.7-7.9-20.1-1.8c-0.2,0.2-0.5,0.2-0.7,0.5
	c-11.3,5.6-26.6,13.1-43,13.1c-16.7,0-31.8-7.4-43-13.1c-12.8-6.3-20.7-10.4-20.7,1.4c0,15.1,7.2,39.7,26.8,53.8
	c2.7-5.2,6.3-9.9,10.8-13.7c4.5-3.8,9.7-6.5,15.3-8.3c2-0.7,4.1,2.7,6.1,6.3c2,3.4,4.1,6.8,6.1,6.8c2.3,0,4.3-3.4,6.5-6.8
	c2.2-3.4,4.3-6.8,6.5-6.1c0.7,0.2,1.1,0.5,1.8,0.7C273,277.8,281.1,284.8,286.1,294z"/>
<path class="st1" d="M144.4,209.1c-2.7,1.8-5.6,2.7-8.8,2.7c-2,0-4.3-0.5-6.1-1.1c-2-0.9-3.6-2-5.2-3.4c-1.6-1.6-2.7-3.2-3.4-5.2
	c-0.7-2-1.1-4.1-1.1-6.1c0-3.2,0.9-6.3,2.7-8.8c1.8-2.7,4.3-4.7,7.2-5.9c2.9-1.1,6.1-1.6,9.2-0.9c3.2,0.7,5.9,2,8.1,4.3
	s3.8,5.2,4.3,8.1c0.7,3.2,0.2,6.3-0.9,9.2C149.1,204.8,147.1,207.3,144.4,209.1z M372.8,209.1c-2.7,1.8-5.6,2.7-8.8,2.7
	c-2,0-4.3-0.5-6.1-1.1c-2-0.9-3.6-2-5.2-3.4c-1.6-1.6-2.7-3.2-3.4-5.2c-0.7-2-1.1-4.1-1.1-6.1c0-3.2,0.9-6.3,2.7-8.8
	c1.8-2.7,4.3-4.7,7.2-5.9c2.9-1.1,6.1-1.6,9.2-0.9c3.2,0.7,5.9,2,8.1,4.3s3.8,5.2,4.3,8.1c0.7,3.2,0.2,6.3-0.9,9.2
	C377.6,204.8,375.5,207.3,372.8,209.1z"/>
</svg>
