<?xml version="1.0" encoding="utf-8"?>
<!-- Generator: Adobe Illustrator 26.3.1, SVG Export Plug-In . SVG Version: 6.00 Build 0)  -->
<svg version="1.1" id="Layer_1" xmlns="http://www.w3.org/2000/svg" xmlns:xlink="http://www.w3.org/1999/xlink" x="0px" y="0px"
	 viewBox="0 0 2155.4 500" style="enable-background:new 0 0 2155.4 500;" xml:space="preserve">
<style type="text/css">
	.st0{fill:#FAFAF9;}
	.st1{fill:#FFFFFF;}
	.st2{fill-rule:evenodd;clip-rule:evenodd;fill:#FAFAF9;}
	.st3{fill:#D3D3D1;}
</style>
<path class="st0" d="M628.1,334.7V169.8h43.6v61.3H721v-61.3h43.6v164.9H721v-65.3h-49.3v65.3H628.1z"/>
<path class="st0" d="M836.1,337.8c-13.9,0-23.9-4.5-30.2-13.9c-6.2-9.6-9.3-22-9.3-37.8v-78.3h43.6v72.5c0,8.1,1,13.4,3.1,16.3
	c2.2,2.6,5.5,4.1,9.6,4.1s7.4-1,10.1-2.6c2.6-1.7,5.5-4.5,8.1-8.6v-81.6h43.6v126.9h-35.4l-3.1-16.8h-1c-5,6-10.8,11-17,14.4
	C851.9,335.9,844.7,337.8,836.1,337.8z"/>
<path class="st0" d="M990.2,386.9c-9.6,0-18.4-1.2-26.6-3.4c-8.1-1.9-14.6-5.3-19.6-9.8c-4.8-4.5-7.2-10.5-7.2-18.2
	c0-10.1,6-18.2,17.7-24.4v-1c-3.1-2.4-6-5.3-8.4-8.6c-2.2-3.6-3.4-7.9-3.4-13.2c0-4.3,1.2-8.6,3.8-12.9s6.2-7.9,10.3-11v-1
	c-4.5-3.1-8.6-7.4-12.2-12.9c-3.4-5.7-5-12.2-5-19.6c0-10.5,2.6-19.1,7.7-25.9c5.3-6.9,12-12,20.3-15.3c8.4-3.4,17-5,26.3-5
	c7.4,0,14.1,1,20.3,3.1h47.2v31.4h-18.2c0.5,1.4,1,3.4,1.2,5.7c0.5,2.4,0.7,4.8,0.7,7.4c0,10.1-2.4,18.2-6.9,24.4
	c-4.5,6-10.8,10.5-18.4,13.4c-7.7,2.9-16.5,4.3-25.9,4.3c-4.3,0-8.9-0.5-14.1-1.7c-1.9,1.9-3.1,4.3-3.1,7.4c0,2.6,1.4,4.5,4.1,5.7
	c2.9,1.2,7.4,1.7,13.6,1.7h18.9c15.8,0,28.2,2.6,36.9,7.9c8.9,5,13.2,13.4,13.2,25.1c0,9.1-3.1,17.2-9.1,24.2
	c-6,6.9-14.4,12.4-25.4,16.3C1018.2,385,1005.3,386.9,990.2,386.9z M994.3,268.9c4.1,0,7.4-1.4,9.8-4.3c2.6-2.9,3.8-7.4,3.8-13.4
	c0-6-1.2-10.3-3.8-12.9c-2.6-2.9-5.7-4.3-9.8-4.3s-7.4,1.4-9.8,4.3c-2.6,2.6-3.8,6.9-3.8,12.9c0,6,1.2,10.5,3.8,13.4
	C986.9,267.4,990.2,268.9,994.3,268.9z M997.4,360.1c7.2,0,12.9-1.2,17.7-3.4c4.8-1.9,7.2-4.8,7.2-8.4c0-3.4-1.4-5.5-4.5-6.2
	c-2.9-1-6.9-1.2-12.4-1.2h-9.8c-5,0-8.9-0.2-11.7-0.5c-2.6-0.2-4.8-0.5-6.7-1c-3.1,3.1-4.5,6-4.5,9.1c0,4.1,2.4,6.9,6.9,8.9
	C984,359.1,990,360.1,997.4,360.1z"/>
<path class="st0" d="M1128.6,386.9c-9.6,0-18.4-1.2-26.6-3.4c-8.1-1.9-14.6-5.3-19.6-9.8c-4.8-4.5-7.2-10.5-7.2-18.2
	c0-10.1,6-18.2,17.7-24.4v-1c-3.1-2.4-6-5.3-8.4-8.6c-2.2-3.6-3.4-7.9-3.4-13.2c0-4.3,1.2-8.6,3.8-12.9s6.2-7.9,10.3-11v-1
	c-4.5-3.1-8.6-7.4-12.2-12.9c-3.4-5.7-5-12.2-5-19.6c0-10.5,2.6-19.1,7.7-25.9c5.3-6.9,12-12,20.3-15.3c8.4-3.4,17-5,26.3-5
	c7.4,0,14.1,1,20.3,3.1h47.2v31.4h-18.2c0.5,1.4,1,3.4,1.2,5.7c0.5,2.4,0.7,4.8,0.7,7.4c0,10.1-2.4,18.2-6.9,24.4
	c-4.5,6-10.8,10.5-18.4,13.4c-7.7,2.9-16.5,4.3-25.9,4.3c-4.3,0-8.9-0.5-14.1-1.7c-1.9,1.9-3.1,4.3-3.1,7.4c0,2.6,1.4,4.5,4.1,5.7
	c2.9,1.2,7.4,1.7,13.6,1.7h18.9c15.8,0,28.2,2.6,36.9,7.9c8.9,5,13.2,13.4,13.2,25.1c0,9.1-3.1,17.2-9.1,24.2
	c-6,6.9-14.4,12.4-25.4,16.3C1156.6,385,1143.7,386.9,1128.6,386.9z M1132.7,268.9c4.1,0,7.4-1.4,9.8-4.3c2.6-2.9,3.8-7.4,3.8-13.4
	c0-6-1.2-10.3-3.8-12.9c-2.6-2.9-5.7-4.3-9.8-4.3s-7.4,1.4-9.8,4.3c-2.6,2.6-3.8,6.9-3.8,12.9c0,6,1.2,10.5,3.8,13.4
	C1125.2,267.4,1128.6,268.9,1132.7,268.9z M1135.8,360.1c7.2,0,12.9-1.2,17.7-3.4c4.8-1.9,7.2-4.8,7.2-8.4c0-3.4-1.4-5.5-4.5-6.2
	c-2.9-1-6.9-1.2-12.4-1.2h-9.8c-5,0-8.9-0.2-11.7-0.5c-2.6-0.2-4.8-0.5-6.7-1c-3.1,3.1-4.5,6-4.5,9.1c0,4.1,2.4,6.9,6.9,8.9
	C1122.4,359.1,1128.3,360.1,1135.8,360.1z"/>
<path class="st0" d="M1221,334.7V207.8h43.6v126.9H1221z M1242.8,192.3c-7.2,0-12.9-1.9-17.2-5.7c-4.3-4.1-6.7-9.3-6.7-16
	c0-6.7,2.2-11.7,6.7-15.8c4.3-4.1,10.1-6,17.2-6c7.2,0,12.9,1.9,17.2,6c4.3,3.8,6.7,9.1,6.7,15.8c0,6.7-2.2,12-6.7,16
	C1255.4,190.4,1249.7,192.3,1242.8,192.3z"/>
<path class="st0" d="M1294,334.7V207.8h35.4l3.1,15.3h1c5-4.8,10.8-9.1,17.2-12.7c6.7-3.8,14.1-5.5,22.7-5.5
	c14.1,0,24.2,4.8,30.2,14.1c6.2,9.3,9.3,21.8,9.3,37.6v78h-43.6v-72.5c0-8.1-1-13.4-3.1-16.3c-1.9-2.6-5.3-4.1-9.6-4.1
	c-4.1,0-7.4,1-10.1,2.6c-2.6,1.7-5.7,4.1-9.1,7.2v83.1H1294z"/>
<path class="st0" d="M1487.6,386.9c-9.6,0-18.4-1.2-26.6-3.4c-8.1-1.9-14.6-5.3-19.6-9.8c-4.8-4.5-7.2-10.5-7.2-18.2
	c0-10.1,6-18.2,17.7-24.4v-1c-3.1-2.4-6-5.3-8.4-8.6c-2.2-3.6-3.4-7.9-3.4-13.2c0-4.3,1.2-8.6,3.8-12.9c2.6-4.3,6.2-7.9,10.3-11v-1
	c-4.5-3.1-8.6-7.4-12.2-12.9c-3.4-5.7-5-12.2-5-19.6c0-10.5,2.6-19.1,7.7-25.9c5.3-6.9,12-12,20.3-15.3c8.4-3.4,17-5,26.3-5
	c7.4,0,14.1,1,20.3,3.1h47.2v31.4h-18.2c0.5,1.4,1,3.4,1.2,5.7c0.5,2.4,0.7,4.8,0.7,7.4c0,10.1-2.4,18.2-6.9,24.4
	c-4.5,6-10.8,10.5-18.4,13.4c-7.7,2.9-16.3,4.3-25.9,4.3c-4.3,0-8.9-0.5-14.1-1.7c-1.9,1.9-3.1,4.3-3.1,7.4c0,2.6,1.4,4.5,4.1,5.7
	c2.9,1.2,7.4,1.7,13.6,1.7h18.9c15.8,0,28.2,2.6,36.9,7.9c8.9,5,13.2,13.4,13.2,25.1c0,9.1-3.1,17.2-9.1,24.2
	c-6,6.9-14.4,12.4-25.4,16.3C1515.6,385,1502.7,386.9,1487.6,386.9z M1491.7,268.9c4.1,0,7.4-1.4,9.8-4.3c2.6-2.9,3.8-7.4,3.8-13.4
	c0-6-1.2-10.3-3.8-12.9c-2.6-2.9-5.7-4.3-9.8-4.3s-7.4,1.4-9.8,4.3c-2.6,2.6-3.8,6.9-3.8,12.9c0,6,1.2,10.5,3.8,13.4
	C1484.3,267.4,1487.6,268.9,1491.7,268.9z M1494.8,360.1c7.2,0,12.9-1.2,17.7-3.4c4.8-1.9,7.2-4.8,7.2-8.4c0-3.4-1.4-5.5-4.5-6.2
	c-2.9-1-6.9-1.2-12.4-1.2h-9.8c-5,0-8.9-0.2-11.7-0.5c-2.6-0.2-4.8-0.5-6.7-1c-3.1,3.1-4.5,6-4.5,9.1c0,4.1,2.4,6.9,6.9,8.9
	C1481.4,359.1,1487.4,360.1,1494.8,360.1z"/>
<path class="st0" d="M1634.1,334.7V169.8h107.5v36.6h-63.9v31.4h55.1v36.6h-54.8v60.3H1634.1z"/>
<path class="st0" d="M1789.4,337.8c-7.9,0-14.8-1.7-20.6-5.3c-5.5-3.8-9.8-8.6-12.9-14.4c-3.1-6-4.5-12.4-4.5-19.4
	c0-13.2,5.5-23.5,16.3-30.9c10.8-7.7,28.5-12.7,52.7-15.3c-1-8.9-6.9-13.2-17.7-13.2c-4.5,0-9.3,1-14.4,2.9c-5,1.7-11,4.3-17.5,7.9
	l-15.3-28.5c8.9-5.5,18-9.6,27-12.4c9.3-2.9,18.9-4.3,28.7-4.3c16.5,0,29.4,4.8,38.8,14.1s13.9,24.4,13.9,45.2v70.4h-35.4l-3.1-12.2
	h-1c-5,4.5-10.5,8.4-16.3,11.2C1802.6,336.4,1796.4,337.8,1789.4,337.8z M1804.5,304.3c3.6,0,6.5-0.7,8.9-2.4
	c2.4-1.7,4.5-3.8,6.9-6.2v-17.2c-10.3,1.4-17.5,3.8-21.5,6.9c-3.8,3.1-5.7,6.2-5.7,9.8C1793,301.2,1796.9,304.3,1804.5,304.3z"/>
<path class="st0" d="M1949.8,337.8c-12,0-22.7-2.6-32.6-7.9c-9.6-5.3-17.2-12.7-23-22.5c-5.5-10.1-8.4-22-8.4-35.9
	c0-14.1,3.1-25.9,9.3-35.7c6.5-10.1,14.8-17.5,25.1-22.7c10.3-5.3,21.5-7.9,33.5-7.9c7.7,0,14.4,1.2,20.6,3.6
	c6.2,2.4,11.7,5.5,16.5,9.6l-20.3,28c-2.6-2.4-5.3-4.1-7.4-4.8c-2.2-1-4.5-1.2-6.9-1.2c-8.1,0-14.4,2.9-18.9,8.6
	c-4.5,5.5-6.9,13.2-6.9,22.7s2.4,17.2,7.2,23c4.8,5.5,10.5,8.4,17.2,8.4c3.6,0,6.9-0.7,10.3-2.4c3.6-1.7,6.9-3.6,9.8-5.7l16.8,28.5
	c-6.2,5.5-13.2,9.6-20.8,11.7C1963.5,336.6,1956.3,337.8,1949.8,337.8z"/>
<path class="st0" d="M2063,337.8c-12.4,0-23.5-2.6-33.5-7.9c-9.8-5.3-17.5-12.7-23.2-22.5c-5.7-10.1-8.6-22-8.6-35.9
	c0-13.6,2.9-25.4,8.6-35.2c6-10.1,13.4-17.7,22.7-23c9.3-5.5,19.1-8.1,29.4-8.1c12.4,0,22.7,2.9,30.9,8.4c8.4,5.5,14.4,12.7,18.2,22
	c4.1,9.3,6,19.6,6,30.9c0,3.8-0.2,7.4-0.7,11c-0.2,3.4-0.7,5.7-1,7.4h-72.3c1.9,7.7,5.7,12.9,11,16c5.3,2.9,11.5,4.3,18.4,4.3
	c8.1,0,16.8-2.6,25.9-7.7l14.1,25.9c-6.7,4.8-14.4,8.4-22.7,11C2078.1,336.4,2070.2,337.8,2063,337.8z M2039.3,256.2h37.6
	c0-4.8-1.2-9.1-3.8-12.7c-2.4-3.8-6.9-5.5-13.4-5.5c-4.8,0-8.9,1.4-12.7,4.3C2043.2,244.9,2040.8,249.7,2039.3,256.2z"/>
<g>
	<path class="st1" d="M534.5,358.9c-1.2-4.8-3.4-9.3-6.2-13.6c0.5-2.2,1-4.5,1.4-6.7c1.9-14.4-2.9-27.3-12.2-37.6
		c-5-5.5-10.5-9.1-16.3-11.5c3.8-16,5.7-32.6,5.7-49.3c0-7.7-0.5-15.1-1.2-22.3c-0.5-3.6-0.7-7.4-1.4-11
		c-1.7-10.8-4.1-21.3-7.4-31.6c-2.2-6.9-4.5-13.4-7.4-20.1c-4.1-9.8-8.9-19.1-14.4-28.2c-3.6-6-7.4-11.7-11.7-17.5
		c-2.2-2.9-4.3-5.5-6.5-8.1c-6.7-8.1-13.9-15.6-21.5-22.7c-2.6-2.4-5.3-4.5-7.9-6.9c-2.6-2.2-5.5-4.3-8.1-6.5
		c-5.5-4.1-11.5-8.1-17.5-11.7c-33-20.1-71.6-31.6-113-31.6c-120.4,0-218.1,97.7-218.1,218.1c0,16.8,1.9,33.5,5.7,49.8
		c-5.3,2.2-10.1,5.7-14.8,10.8c-9.3,10.1-14.4,23.2-12.2,37.6c0.2,2.4,0.7,4.5,1.4,6.7c-2.9,4.1-4.8,8.9-6.2,13.6
		c-2.9,11-1.9,20.8,1.7,29.4c-4.1,11.2-2.9,23.2,2.2,33.7c3.8,7.7,9.1,13.4,15.8,18.9c7.9,6.2,17.7,11.5,29.7,16.8
		c14.1,6,31.6,11.7,39.5,13.9c20.3,5.3,40,8.6,59.6,8.9c28.2,0.2,52.4-6.5,69.9-23.2c8.6,1,17.2,1.7,25.9,1.7
		c9.1,0,18.2-0.5,27.3-1.7c17.2,17,41.6,23.7,69.9,23.5c19.9-0.2,39.3-3.6,59.6-8.9c7.9-2.2,25.4-7.7,39.5-13.9
		c12-5,21.8-10.5,29.7-16.8c6.5-5.3,12-11.2,15.8-18.9c5.3-10.5,6.2-22.5,2.2-33.7C536.4,379.7,537.4,369.6,534.5,358.9z
		 M514.2,387.6c4.1,7.7,4.3,16.3,0.7,24.2c-5.3,12.2-18.7,21.5-44.5,31.8c-16,6.5-30.6,10.5-30.9,10.5c-21.3,5.5-40.5,8.4-57,8.4
		c-27.5,0-48.1-7.7-61-22.5c-22,3.8-44.5,3.8-66.3,0.5c-12.9,14.8-33.3,22.3-60.6,22.3c-16.5,0-35.9-2.9-57-8.4
		c-0.2,0-14.8-4.1-30.9-10.5c-25.9-10.3-39-19.9-44.5-31.8c-3.6-7.9-3.4-16.5,0.7-24.2c0.5-0.7,0.7-1.4,1.2-2.2
		c-2.4-3.6-4.1-7.7-4.8-12s-0.5-8.6,0.5-12.9c1.7-6,4.8-11,9.3-14.6c-2.2-3.6-3.6-7.4-4.1-11.5c-1.2-8.9,1.7-17.7,8.4-24.9
		c5.3-5.7,12.4-8.6,20.6-8.6h0.2c-6-19.6-9.1-40-9.1-60.3c0-111.8,90.5-202.3,202.3-202.3s202.3,90.5,202.3,202.3
		c0,20.6-3.1,40.9-9.3,60.6c1,0,1.9-0.2,2.9-0.2c8.1,0,15.3,3.1,20.6,8.6c6.7,7.2,9.6,16,8.4,24.9c-0.5,4.1-1.9,7.9-4.1,11.5
		c4.5,3.6,7.7,8.6,9.3,14.6c1.2,4.1,1.2,8.6,0.5,12.9c-0.7,4.3-2.4,8.4-4.8,12C513.4,386.2,513.9,386.9,514.2,387.6z"/>
</g>
<path class="st0" d="M513,385.4c2.4-3.6,4.1-7.7,4.8-12c0.7-4.3,0.5-8.6-0.5-12.9c-1.7-6-4.8-11-9.3-14.6c2.2-3.6,3.6-7.4,4.1-11.5
	c1.2-8.9-1.7-17.7-8.4-24.9c-5.3-5.7-12.4-8.6-20.6-8.6c-1,0-1.9,0-2.9,0.2c6.2-19.6,9.3-40,9.3-60.6
	c0-111.8-90.5-202.3-202.3-202.3S85,128.9,85,240.6c0,20.6,3.1,40.9,9.1,60.3h-0.2c-8.1,0-15.3,3.1-20.6,8.6
	c-6.7,7.2-9.6,16-8.4,24.9c0.5,4.1,1.9,7.9,4.1,11.5c-4.5,3.6-7.7,8.6-9.3,14.6c-1.2,4.1-1.2,8.6-0.5,12.9c0.7,4.3,2.4,8.4,4.8,12
	c-0.5,0.7-0.7,1.4-1.2,2.2c-4.1,7.7-4.3,16.3-0.7,24.2c5.3,12.2,18.7,21.5,44.5,31.8c16,6.5,30.6,10.5,30.9,10.5
	c21.3,5.5,40.5,8.4,57,8.4c27.3,0,47.6-7.4,60.8-22.3c22,3.6,44.5,3.4,66.3-0.5c12.9,15.1,33.5,22.5,61,22.5c16.5,0,35.9-2.9,57-8.4
	c0.2,0,14.8-4.1,30.9-10.5c25.9-10.3,39-19.9,44.5-31.8c3.6-7.9,3.4-16.5-0.7-24.2C513.9,386.9,513.4,386.2,513,385.4z M245.8,417
	c-1,1.9-2.2,3.8-3.6,5.7c-3.4,5-7.9,8.6-12.9,11.5c-9.8,5.3-22.3,7.2-34.9,7.2c-19.9,0-40.5-4.5-51.9-7.7
	c-0.5-0.2-70.1-19.9-61.3-36.6c1.4-2.9,3.8-3.8,6.9-3.8c12.4,0,34.9,18.4,44.8,18.4c2.2,0,3.6-1,4.3-3.1c4.1-14.8-63-21.1-57.2-42.6
	c1-3.8,3.6-5.3,7.4-5.3c16.5,0,53.1,29,61,29c0.5,0,1-0.2,1.2-0.5c0,0,0,0,0-0.2c3.6-6,1.4-10.3-23.2-25.4c-0.7-0.5-1.7-1-2.4-1.4
	c-27.3-16.5-46.4-26.3-35.4-38.3c1.2-1.4,3.1-1.9,5.3-1.9c2.6,0,5.7,1,9.1,2.4c14.4,6,34.5,22.7,42.6,29.9c2.4,2.2,3.8,3.4,3.8,3.4
	s10.5,11,17,11c1.4,0,2.6-0.5,3.6-1.9c4.5-7.7-42.1-42.8-44.8-57.4c-1.7-9.8,1.2-14.8,6.9-14.8c2.6,0,6,1.2,9.6,3.4
	c11.2,7.2,32.6,44,40.5,58.4c2.6,4.8,7.2,6.9,11.2,6.9c8.1,0,14.4-7.9,0.7-18.2c-20.3-15.3-13.2-40.2-3.6-41.9c0.5,0,0.7,0,1.2,0
	c8.9,0,12.7,15.3,12.7,15.3s11.5,28.7,31.1,48.6C253.7,384,256.1,398.6,245.8,417z M309.5,420.4l-1,0.2c-0.5,0-1.2,0.2-1.7,0.2
	c-1,0-1.9,0.2-2.9,0.2h-1h-0.7h-1.2c-0.5,0-1,0-1.2,0h-1.2h-0.2c-0.2,0-0.7,0-1,0h-0.5c-0.5,0-0.7,0-1.2,0h-1.4h-1.2h-1h-0.5
	c-0.2,0-0.5,0-0.7,0c-0.2,0-0.2,0-0.5,0c-0.2,0-0.5,0-0.7,0h-1c-0.5,0-1,0-1.4,0c-1.2,0-2.4,0-3.6,0h-1c-0.2,0-0.5,0-0.7,0h-1h-1.2
	h-1.2h-0.2h-1c-0.2,0-0.5,0-1,0H276c-1,0-1.7,0-2.6-0.2h-1c-0.5,0-0.7,0-1.2,0c-0.5,0-1,0-1.4-0.2c-0.7,0-1.4-0.2-2.2-0.2l0,0
	c11-24.4,5.5-47.2-16.8-69.2c-14.6-14.4-24.2-35.9-26.1-40.5c-4.1-13.9-14.8-29.4-32.6-29.4c-1.4,0-3.1,0.2-4.5,0.2
	c-7.9,1.2-14.6,5.7-19.4,12.4c-5.3-6.5-10.3-11.7-15.1-14.6c-6.9-4.3-13.9-6.7-20.6-6.7c-8.4,0-16,3.4-21.3,9.8l-0.2,0.2
	c0-0.5-0.2-0.7-0.2-1.2l0,0c-0.2-1.2-0.5-2.6-1-3.8c-0.5-2.2-1-4.3-1.2-6.5c-0.2-1-0.2-1.7-0.5-2.6l0,0c0-0.2,0-0.7-0.2-1
	c0-0.2,0-0.5,0-0.5c0-0.2,0-0.7-0.2-1c0-0.5-0.2-1-0.2-1.4s0-1-0.2-1.4c0-0.5,0-1-0.2-1.4c0-0.5,0-1-0.2-1.2l0,0
	c0-1-0.2-1.7-0.2-2.6s-0.2-1.7-0.2-2.6c0-0.2,0-0.5,0-0.7c0-0.5,0-0.7,0-1.2c0-0.2,0-0.7,0-1v-0.2c0-0.5,0-0.7,0-1.2
	c0-0.5,0-1,0-1.4s0-1,0-1.4c0-0.5,0-0.7,0-1.2v-0.5c0-0.5,0-0.7,0-1.2v-1c0-0.5,0-0.7,0-1.2c0-0.5,0-0.7,0-1.2s0-0.7,0-1.2
	c0-0.5,0-0.7,0-1.2c0-100.3,81.1-181.4,181.4-181.4s181.4,81.1,181.4,181.4c0,0.5,0,0.7,0,1.2c0,0.5,0,0.7,0,1.2s0,0.7,0,1.2
	c0,0.2,0,0.7,0,1c0,0.2,0,0.5,0,1s0,0.7,0,1.2l0,0c0,0.5,0,1,0,1.2c0,0.5,0,0.7,0,1.2v0.2c0,0.5,0,0.7,0,1.2c0,0.2,0,0.7,0,1
	c0,1.9-0.2,3.8-0.5,5.7c0,0.2,0,0.7,0,1l0,0c0,0.5,0,0.7-0.2,1.2c0,0.2,0,0.7,0,1c0,0.7-0.2,1.2-0.2,1.9l-0.2,1c0,0.5,0,0.7-0.2,1.2
	c0,0.5,0,0.7-0.2,1.2c0,0.5-0.2,1-0.2,1.4l-0.2,1.2c0,0.5-0.2,0.7-0.2,1.2c0,0.5-0.2,0.7-0.2,1.2c0,0.5-0.2,0.7-0.2,1.2
	c-0.2,0.7-0.2,1.7-0.5,2.4c-0.2,0.7-0.2,1.7-0.5,2.4c0,0.5-0.2,1-0.2,1.4c0,0.5-0.2,0.7-0.2,1.2s-0.2,0.7-0.2,1.2
	c-5-5-12-7.7-19.4-7.7c-6.7,0-13.6,2.2-20.6,6.7c-4.5,2.9-9.8,8.1-15.1,14.6c-4.8-6.7-11.7-11.2-19.4-12.4c-1.4-0.2-2.9-0.2-4.5-0.2
	c-17.7,0-28.5,15.6-32.6,29.4c-1.9,4.8-11.7,26.1-26.1,40.7C304.5,373.5,298.7,396,309.5,420.4z M496.9,371.6
	C496.9,371.6,496.7,371.6,496.9,371.6c-0.2,0.2-0.2,0.5-0.2,0.7s-0.2,0.5-0.2,0.7c0,0.2-0.2,0.2-0.2,0.5c-0.2,0.2-0.5,0.7-0.5,1
	c-0.2,0.5-0.5,0.7-1,1.2c-0.2,0.2-0.2,0.5-0.5,0.5c0,0.2-0.2,0.2-0.2,0.5c-0.2,0.2-0.2,0.5-0.5,0.5c-3.1,3.1-8.1,6-13.6,8.6
	c-0.7,0.2-1.2,0.5-1.9,1l-0.7,0.2c-0.5,0.2-1,0.5-1.2,0.5c-0.5,0.2-1,0.5-1.4,0.5l-1.4,0.5c-3.1,1.2-6.2,2.4-9.3,3.8l-1.4,0.5
	l-1.4,0.5c-1,0.2-1.7,0.7-2.6,1l-1.2,0.5L456,395l-0.7,0.2c-0.5,0.2-0.7,0.2-1.2,0.5c-9.1,3.8-15.8,7.9-14.4,12.9
	c0,0.2,0,0.2,0.2,0.5c0.2,0.5,0.2,0.7,0.5,1c0.2,0.2,0.2,0.5,0.5,0.5c1.7,1.7,4.5,1.4,8.4,0c0.2,0,0.7-0.2,1-0.2
	c0.2,0,0.5-0.2,0.7-0.2l0.2-0.2c1-0.5,1.7-0.7,2.6-1.2c0.2,0,0.5-0.2,0.7-0.2c4.5-2.2,9.8-5.3,14.8-7.9c0.7-0.5,1.7-0.7,2.4-1.2
	c1.2-0.7,2.6-1.4,3.8-1.9c4.8-2.4,9.6-3.8,13.2-3.8c1.7,0,3.4,0.2,4.5,1.2l0.2,0.2c0.2,0,0.2,0.2,0.5,0.2c0.5,0.5,1,1,1.2,1.4
	c0,0.2,0.2,0.2,0.2,0.5c0,0.2,0.2,0.2,0.2,0.5c1.9,3.4,0.2,6.9-3.4,10.5c-3.4,3.4-8.9,6.7-14.8,9.8c-0.5,0.2-1,0.5-1.4,0.7
	c-18,8.9-41.6,15.6-41.9,15.6c-6.2,1.7-15.3,3.8-25.4,5.3l-1.4,0.2h-0.2c-0.5,0-1.2,0.2-1.7,0.2c-0.5,0-1.2,0.2-1.7,0.2
	c-1.2,0.2-2.4,0.2-3.6,0.5H400c-4.3,0.5-8.6,0.7-12.9,1l0,0c-1.4,0-3.1,0-4.5,0c-0.2,0-0.5,0-0.7,0h-0.2c-0.2,0-0.5,0-0.7,0
	c-1,0-1.9,0-2.6,0c-1.4,0-2.9-0.2-4.3-0.2c0,0,0,0-0.2,0c-0.5,0-1.2,0-1.7-0.2c-0.2,0-0.5,0-1,0c-1,0-1.7-0.2-2.6-0.2
	c-0.5,0-1.2-0.2-1.7-0.2s-1.2-0.2-1.7-0.2c-0.2,0-0.5,0-0.7-0.2l0,0c-0.7-0.2-1.7-0.2-2.4-0.5c-0.5,0-1-0.2-1.4-0.2h-0.2
	c-0.2,0-0.5-0.2-0.7-0.2h-0.2l-0.7-0.2c-0.2,0-0.5-0.2-0.7-0.2l0,0l-0.7-0.2c-0.2,0-0.5-0.2-0.7-0.2s-0.5-0.2-0.7-0.2l-0.5-0.2
	c-0.5-0.2-1-0.2-1.4-0.5l-0.5-0.2l-0.2-0.2c-0.7-0.2-1.4-0.5-1.9-1l-0.5-0.2l0,0c-0.2,0-0.2-0.2-0.5-0.2c-0.2-0.2-0.7-0.2-1-0.5l0,0
	l-0.5-0.2c-0.5-0.2-1-0.5-1.4-0.7c-0.2-0.2-0.5-0.2-0.7-0.5l-0.5-0.2c-0.2-0.2-0.5-0.2-0.7-0.5l-0.5-0.2c-0.2-0.2-0.5-0.2-0.5-0.5
	l-0.2-0.2c-0.5-0.2-0.7-0.5-1-0.7c-0.2-0.2-0.5-0.2-0.5-0.5c-0.2-0.2-0.5-0.5-0.7-0.5c-0.2-0.2-0.5-0.2-0.5-0.5l0,0
	c-0.2-0.2-0.5-0.2-0.5-0.5c-0.2-0.2-0.5-0.2-0.5-0.5l0,0c-0.2-0.2-0.5-0.5-0.5-0.5c-0.2-0.2-0.5-0.5-0.5-0.5
	c-0.2-0.2-0.5-0.5-0.5-0.5c-0.2-0.2-0.2-0.5-0.5-0.5l0,0c-0.2-0.2-0.2-0.5-0.5-0.5c-0.2-0.5-0.7-0.7-1-1.2s-0.7-1-1-1.4
	c0-0.2-0.2-0.2-0.2-0.5c-0.2-0.2-0.5-0.5-0.5-1c-0.2-0.2-0.5-0.5-0.5-1c-0.2-0.2-0.5-0.5-0.5-1c0-0.2-0.2-0.2-0.2-0.5
	c-0.2-0.2-0.2-0.5-0.5-0.7l0,0c-0.2-0.2-0.2-0.5-0.5-0.7c0-0.2-0.2-0.2-0.2-0.5c0-0.2-0.2-0.2-0.2-0.5c0,0,0-0.2-0.2-0.2
	c-0.2,0,0,0,0-0.2c-0.2-0.2-0.2-0.5-0.5-1c0-0.2-0.2-0.2-0.2-0.5l-0.2-0.5l-0.2-0.5c-0.2-0.2-0.2-0.5-0.5-0.7c0-0.2-0.2-0.2-0.2-0.5
	c-0.2-0.2-0.2-0.5-0.5-1c0,0,0-0.2-0.2-0.2c-0.2-0.2-0.2-0.5-0.2-0.7c0-0.2,0-0.2-0.2-0.5c0-0.2-0.2-0.5-0.2-0.7
	c0-0.2,0-0.2-0.2-0.5c-0.2-0.5-0.5-1-0.5-1.7c0-0.2,0-0.2-0.2-0.5c0-0.2-0.2-0.5-0.2-0.7c-0.2-0.5-0.2-0.7-0.5-1.2
	c0-0.2,0-0.2,0-0.5c0-0.5-0.2-0.7-0.2-1.2c0-0.2,0-0.5-0.2-0.7c0-0.2,0-0.2,0-0.5s0-0.5-0.2-0.7c0-0.5-0.2-0.7-0.2-1.2
	c0-0.2,0-0.2,0-0.5c0-0.2,0-0.2,0-0.5c0-0.5,0-1-0.2-1.4c0-0.2,0-0.2,0-0.5c0-0.2,0-0.5,0-0.7c-0.2-10.3,5-20.1,16-31.1
	c19.6-19.6,31.1-48.6,31.1-48.6s0.2-1.2,1-2.9c0-0.2,0.2-0.5,0.2-0.7c0.2-0.2,0.2-0.7,0.5-1c0.2-0.5,0.5-1,0.7-1.4
	c0-0.2,0.2-0.2,0.2-0.5V311c0,0,0-0.2,0.2-0.2c0.2-0.7,0.7-1.4,1.2-1.9c0-0.2,0.2-0.2,0.2-0.5c0.2-0.2,0.5-0.7,0.7-1
	c0.2-0.2,0.2-0.2,0.5-0.5c0.2-0.2,0.5-0.5,0.7-0.7l0.2-0.2c1.2-1.2,2.4-2.2,3.8-2.6h0.2c0.2,0,0.2,0,0.5,0c0.2,0,0.2,0,0.5,0l0,0
	c0.2,0,0.7,0,1-0.2l0,0c0.2,0,0.2,0,0.5,0c0.2,0,0.5,0,0.7,0s0.5,0,0.7,0c1.7,0.2,3.4,1.4,5,2.9l0.2,0.2c0.2,0.5,0.7,0.7,1,1.2
	c0.2,0.2,0.2,0.2,0.2,0.5c0.2,0.5,0.5,1,0.7,1.4c0,0.2,0.2,0.5,0.2,0.7c0,0,0,0.2,0.2,0.2c0,0.2,0.2,0.5,0.2,0.7
	c0,0.2,0.2,0.5,0.2,0.7c0.5,1,0.7,2.2,1,3.4c0,0.2,0,0.5,0.2,0.7c0.2,1,0.2,1.9,0.2,2.9c0,0.2,0,0.5,0,0.7c0,0.7,0,1.2,0,1.9
	c0,0.2,0,0.5,0,0.7c-0.2,2.4-0.7,4.8-1.4,7.2c-0.2,0.5-0.2,0.7-0.5,1.2c0,0.2-0.2,0.5-0.2,0.7c-0.2,0.5-0.5,1-0.7,1.7
	c-0.2,0.5-0.5,0.7-0.7,1.2c-0.2,0.2-0.2,0.5-0.5,0.7c-0.5,0.7-0.7,1.2-1.2,1.9l-0.2,0.5c-0.5,0.5-0.7,1-1.2,1.4
	c-0.7,1-1.4,1.7-2.4,2.6c-1.2,1.2-2.6,2.4-4.1,3.6c-1.2,1-2.6,1.9-3.6,3.1c-0.2,0.2-0.2,0.2-0.5,0.5c-3.6,3.8-4.5,7.2-3.6,9.6
	c0,0,0,0.2,0.2,0.2c0,0.2,0.2,0.2,0.2,0.5c0,0,0,0.2,0.2,0.2c0.2,0.5,0.5,0.7,1,1.2c0,0,0,0,0.2,0.2l0.2,0.2
	c0.2,0.2,0.2,0.2,0.5,0.5h0.2l0.2,0.2c0.2,0.2,0.5,0.2,0.7,0.5l0.2,0.2c0.5,0.2,1,0.5,1.2,0.5c0.2,0,0.2,0,0.5,0h0.2h0.2h0.2h0.2
	h0.2h0.2c0.2,0,0.2,0,0.5,0h0.2h0.2h0.2h0.2h0.2h0.2l0,0h0.2l0,0h0.2h0.2h0.2h0.2h0.2h0.2c0.2,0,0.2,0,0.5,0c0.5,0,0.7-0.2,1.2-0.2
	c0.5,0,0.7-0.2,1.2-0.5c0.2,0,0.2,0,0.5-0.2c0.2,0,0.5-0.2,0.7-0.2c0.2,0,0.2-0.2,0.5-0.2c0.2-0.2,0.5-0.2,0.7-0.5
	c0.5-0.2,1-0.7,1.4-1.2l0.2-0.2c0,0,0,0,0.2-0.2l0.2-0.2c0.2-0.2,0.5-0.5,0.7-0.7c0.5-0.7,1-1.4,1.4-2.2c3.1-5.7,8.6-15.3,14.8-25.1
	c0.2-0.5,0.5-0.7,0.7-1.2c0.2-0.5,0.5-0.7,0.7-1.2c0.2-0.5,0.7-1.2,1-1.7l0.5-0.5c0.2-0.5,0.5-0.7,0.7-1.2c1-1.4,1.9-2.9,2.9-4.5
	l0.7-1.2c1.4-2.2,2.9-4.3,4.3-6.2l0.7-1c1-1.4,2.2-2.9,3.1-4.3c0.5-0.7,1.2-1.4,1.7-2.2l0.7-0.7c0-0.2,0.2-0.2,0.2-0.5
	c0.2-0.2,0.5-0.5,0.7-0.7c0-0.2,0.2-0.2,0.2-0.5c0.2-0.2,0.5-0.5,0.7-0.7l0.2-0.2c0.2-0.2,0.7-0.7,1-1c0.2-0.2,0.5-0.5,0.7-0.7
	c1.2-1.2,2.6-2.4,4.1-3.4l0.2-0.2l0.2-0.2c0.2-0.2,0.5-0.2,0.7-0.5c5.7-3.1,10.3-3.4,12.9-0.7c1.7,1.7,2.6,4.3,2.4,8.1
	c0,0.2,0,0.2,0,0.5v0.2c0,0.2,0,0.2,0,0.5c0,0.2,0,0.5,0,0.7s0,0.5,0,0.5s0,0,0,0.2s0,0.2,0,0.5c0,0,0,0,0,0.2s0,0.2,0,0.5
	c0,0,0,0,0,0.2c0,0.2,0,0.5,0,0.7c0,0.2,0,0.2,0,0.2c0,0.2-0.2,0.7-0.2,1c0,0.2-0.2,0.7-0.5,1c0,0.2-0.2,0.5-0.2,0.7
	s-0.2,0.5-0.5,0.7c-0.2,0.5-0.5,1-1,1.7c-0.2,0.2-0.2,0.5-0.5,0.7c0,0.2-0.2,0.2-0.2,0.5c-0.2,0.5-0.5,1-1,1.2c-0.2,0.5-0.7,1-1,1.4
	c-0.5,0.7-1,1.2-1.4,1.9l-0.5,0.5c-0.7,0.7-1.2,1.7-1.9,2.4c-0.5,0.5-0.7,1-1.2,1.4c-0.2,0.2-0.5,0.7-1,1l-0.5,0.5
	c-0.7,0.7-1.2,1.4-1.9,1.9l-0.5,0.5c-0.2,0.2-0.7,0.7-1,1c-0.2,0.2-0.7,0.7-1,1l-1,1c-0.2,0.2-0.7,0.7-1,1c-0.2,0.2-0.7,0.7-1,1
	c-0.7,0.7-1.4,1.4-1.9,2.2c-9.8,10.1-19.9,19.9-23.5,26.1c-0.2,0.5-0.5,0.7-0.7,1.2c-0.5,1.2-0.7,2.2-0.5,2.9c0,0.2,0.2,0.5,0.2,0.7
	s0.2,0.2,0.2,0.5c0,0.2,0.2,0.2,0.5,0.5c0.2,0.2,0.2,0.2,0.5,0.2c0.7,0.5,1.7,0.7,2.4,0.7h0.2h0.2h0.2h0.2l0,0h0.2l0,0h0.2l0,0h0.2
	h0.2c0.2,0,0.5-0.2,0.5-0.2c0.2,0,0.5-0.2,0.7-0.2s0.5-0.2,0.7-0.2c0,0,0.2,0,0.2-0.2l0.2-0.2c0.5-0.2,0.7-0.5,1.2-0.7
	c0.2-0.2,0.7-0.5,1-0.7l0.2-0.2l0.2-0.2l0.2-0.2h0.2c0.2,0,0.2-0.2,0.5-0.2c0.5-0.2,0.7-0.7,1.2-1l0,0c0.2-0.2,0.5-0.2,0.7-0.5
	c1-0.7,1.7-1.4,2.4-2.2l0.5-0.5l0,0l0.2-0.2c0.7-0.5,1.2-1,1.7-1.4l0.2-0.2c0.2-0.2,0.2-0.2,0.5-0.5l0.2-0.2l0,0l0,0l0.2-0.2
	l0.2-0.2l0,0l0,0l0,0l0,0l0,0l0.5-0.5l0.2-0.2c0.2,0,0.2-0.2,0.5-0.5l0.2-0.2c0,0,0,0,0.2-0.2l0.2-0.2l0.5-0.5l0.2-0.2
	c1-1,2.4-1.9,3.8-3.4l0.5-0.5l1-0.7c0.2-0.2,0.7-0.5,1-1c1.4-1.2,2.6-2.2,4.3-3.4l1-0.7c0.7-0.7,1.7-1.4,2.6-1.9
	c0.2-0.2,0.7-0.5,1-0.7c0.5-0.5,1-0.7,1.7-1.2c0.2-0.2,0.7-0.5,1-0.7c2.2-1.4,4.1-3.1,6.2-4.5l1-0.7c0.7-0.5,1.2-1,1.9-1.4l0.5-0.5
	c0.7-0.5,1.2-0.7,1.9-1.2c0.5-0.5,1.2-0.7,1.7-1l0.5-0.5l0.5-0.2c0.5-0.2,1.2-0.7,1.7-1l0.5-0.2l1.2-0.7c0.5-0.2,0.7-0.5,1.2-0.7
	l0.2-0.2c0.2-0.2,0.5-0.2,1-0.5c0.5-0.2,0.7-0.5,1.2-0.5l0.5-0.2l0.5-0.2c0.2,0,0.5-0.2,0.5-0.2c1-0.5,2.2-1,3.1-1.4
	c0.2,0,0.2-0.2,0.5-0.2c0.2-0.2,0.7-0.2,1-0.5c0.2,0,0.7-0.2,1-0.2c0.2,0,0.5-0.2,1-0.2l0,0c0.2,0,0.2,0,0.5-0.2l0,0
	c0.2,0,0.7-0.2,1-0.2l0,0c0.5,0,1-0.2,1.2-0.2c0.2,0,0.2,0,0.5,0c0.2,0,0.5,0,1,0c0.2,0,0.2,0,0.5,0c0.2,0,0.5,0,0.7,0h0.2
	c0.2,0,0.5,0,0.7,0h0.2l0,0h0.2h0.2l0,0h0.2h0.2c0.5,0.2,0.7,0.2,1.2,0.5c0,0,0.2,0,0.2,0.2l0.2,0.2c0.2,0.2,0.2,0.2,0.5,0.5l0,0
	c0,0,0,0,0.2,0.2l0.2,0.2c1,1,1.7,2.2,2.4,3.4v0.2c0,0.2,0,0.2,0.2,0.5c0.2,0.2,0.2,0.7,0.2,1c0.2,1.4,0.2,2.9-0.2,4.3
	c0,0.2,0,0.2-0.2,0.5c-0.2,0.5-0.5,1-0.7,1.4l-0.2,0.2c-0.7,1.2-1.7,2.4-2.6,3.6l-0.2,0.2c-0.2,0.2-0.7,0.7-1,1
	c-0.2,0.2-0.2,0.2-0.5,0.5c-0.2,0.2-0.2,0.2-0.5,0.5l-0.2,0.2c-0.2,0.2-0.2,0.2-0.5,0.5c-0.2,0.2-0.7,0.7-1.2,1l-0.2,0.2
	c-0.5,0.2-0.7,0.7-1.2,1c-0.7,0.5-1.4,1.2-2.2,1.7c-0.7,0.5-1.4,1-2.2,1.4c-1,0.5-1.7,1.2-2.6,1.7c-1.7,1-3.4,2.2-5.3,3.4
	c-0.5,0.2-1,0.7-1.4,1c-4.8,2.9-9.8,6-15.6,9.3l-1.4,1c-1.7,1-3.1,1.9-4.5,2.9l-0.7,0.5l-1.4,1c-0.5,0.2-1,0.7-1.4,1
	c-0.5,0.2-0.7,0.5-1.2,0.7l-0.7,0.5c-0.2,0.2-0.7,0.5-1,0.7l-0.2,0.2c-0.2,0.2-0.7,0.5-1,0.7l-0.5,0.5l-0.7,0.5l-0.5,0.5
	c-1,0.7-1.9,1.4-2.9,1.9l-0.2,0.2c-0.5,0.2-0.7,0.5-1,0.7c-0.2,0.2-0.2,0.2-0.5,0.2c-0.7,0.5-1.4,1.2-1.9,1.7l-0.2,0.2
	c-0.2,0.2-0.2,0.2-0.5,0.5l-0.2,0.2l-0.2,0.2l-0.2,0.2c-0.2,0.2-0.5,0.5-0.7,0.7l-0.2,0.2c-0.2,0.5-0.7,0.7-1,1.2v0.2
	c-0.2,0.2-0.5,0.7-0.5,1c0,0,0,0.2-0.2,0.2v0.2c0,0,0,0,0,0.2v0.2l0,0c0,0,0,0,0,0.2v0.2c0,0.2-0.2,0.5-0.2,0.7c0,0,0,0,0,0.2
	c0,0,0,0,0,0.2c0,0,0,0,0,0.2v0.2c0,0,0,0,0,0.2l0,0v0.2v0.2l0,0v0.2l0,0v0.2v0.2l0,0v0.2v0.2c0,0.2,0,0.2,0.2,0.5v0.2l0,0v0.2
	c0,0,0,0.2,0.2,0.2c0,0.2,0.2,0.2,0.2,0.5c0,0,0,0.2,0.2,0.2l0.2,0.2c0,0,0,0.2,0.2,0.2c0,0,0,0,0,0.2l0,0l0,0l0,0c0,0,0,0,0.2,0
	c0,0,0,0,0.2,0c0,0,0,0,0.2,0c1.4,0.2,4.3-0.7,7.9-2.9c0.2,0,0.5-0.2,0.7-0.2l1.2-0.7l0.5-0.2c0.5-0.2,0.7-0.5,1.2-0.7
	c0.2-0.2,0.5-0.2,0.7-0.5c5-2.9,11-6.5,17-10.1c0.5-0.2,1.2-0.7,1.7-1l1.2-0.7c0.5-0.2,1.2-0.7,1.7-1c0.7-0.5,1.4-1,2.4-1.2
	c1.7-1,3.6-1.9,5.3-2.9l1.2-0.5c0.7-0.5,1.4-0.7,2.2-1.2c0.7-0.2,1.4-0.7,2.2-1c0.7-0.2,1.4-0.7,2.2-1l0.7-0.2l0,0
	c4.3-1.7,8.1-2.6,11.2-2.6c0.7,0,1.4,0,1.9,0.2l0,0c0.2,0,0.5,0,0.7,0.2l0,0c0.2,0,0.2,0,0.5,0.2c0.2,0,0.2,0,0.5,0.2h0.2
	c0.2,0,0.2,0,0.2,0.2c0.2,0,0.2,0.2,0.5,0.2c0.5,0.2,1,0.7,1.4,1.2c0.2,0.2,0.2,0.5,0.5,0.7c0,0,0,0.2,0.2,0.2
	c0,0.2,0.2,0.2,0.2,0.5c0,0.2,0.2,0.5,0.2,0.5c0,0.2,0.2,0.5,0.2,0.7c0,0.2,0.2,0.5,0.2,0.7C497.4,367.7,497.4,369.6,496.9,371.6z"
	/>
<path class="st2" d="M346.1,191.1c2.9,1,5,4.1,6.9,6.9c2.6,3.8,5.3,7.7,9.1,5.5c4.5-2.4,8.4-6.2,10.8-10.8c2.4-4.5,3.6-9.8,2.9-14.8
	c-0.5-5-2.4-10.1-5.7-14.1c-3.4-4.1-7.7-6.9-12.7-8.4c-5-1.4-10.3-1.4-15.1,0c-5,1.4-9.3,4.3-12.7,8.4c-3.4,4.1-5.3,8.9-5.7,13.9
	c-0.5,5,0.5,10.3,2.9,14.8c1.7,3.4,5.7,1.7,10.1,0C340.1,191.3,343.5,190.1,346.1,191.1z M223.1,191.1c-2.9,1-5,4.1-6.9,6.9
	c-2.6,3.8-5.3,7.7-9.1,5.5c-4.5-2.4-8.4-6.2-10.8-10.8c-2.4-4.5-3.6-9.8-2.9-14.8c0.5-5,2.4-10.1,5.7-14.1c3.4-4.1,7.7-6.9,12.7-8.4
	c5-1.4,10.3-1.4,15.1,0c5,1.4,9.3,4.3,12.7,8.4c3.4,4.1,5.3,8.9,5.7,13.9c0.5,5-0.5,10.3-2.9,14.8c-1.9,3.4-5.7,1.7-10.1,0
	C229.3,191.3,225.7,190.1,223.1,191.1z M327.2,302.9c19.4-15.3,26.6-40.5,26.6-55.8c0-12.2-8.1-8.4-21.3-1.9
	c-0.2,0.2-0.5,0.2-0.7,0.5c-12,6-28.2,13.9-45.7,13.9c-17.7,0-33.7-7.9-45.7-13.9c-13.6-6.7-22-11-22,1.4c0,16,7.7,42.1,28.5,57.2
	c2.9-5.5,6.7-10.5,11.5-14.6c4.8-4.1,10.3-6.9,16.3-8.9c2.2-0.7,4.3,2.9,6.5,6.7c2.2,3.6,4.3,7.2,6.5,7.2c2.4,0,4.5-3.6,6.9-7.2
	c2.4-3.6,4.5-7.2,6.9-6.5c0.7,0.2,1.2,0.5,1.9,0.7C313.3,285.6,322,293.1,327.2,302.9z"/>
<path class="st3" d="M327.2,302.9c-10.1,7.9-23.7,13.4-41.2,13.4c-16.5,0-29.4-4.8-39.3-12c2.9-5.5,6.7-10.5,11.5-14.6
	c4.8-4.1,10.3-6.9,16.3-8.9c4.1-1.2,8.4,13.9,12.9,13.9c4.8,0,9.3-14.8,13.9-13.6c0.7,0.2,1.2,0.5,1.9,0.7
	C313.3,285.6,322,293.1,327.2,302.9z"/>
<path class="st2" d="M176.7,212.6c-2.9,1.9-6,2.9-9.3,2.9c-2.2,0-4.5-0.5-6.5-1.2c-2.2-1-3.8-2.2-5.5-3.6c-1.7-1.7-2.9-3.4-3.6-5.5
	c-0.7-2.2-1.2-4.3-1.2-6.5c0-3.4,1-6.7,2.9-9.3c1.9-2.9,4.5-5,7.7-6.2c3.1-1.2,6.5-1.7,9.8-1c3.4,0.7,6.2,2.2,8.6,4.5
	c2.4,2.4,4.1,5.5,4.5,8.6c0.7,3.4,0.2,6.7-1,9.8C181.5,208.1,179.3,211,176.7,212.6z M419.4,212.6c-2.9,1.9-6,2.9-9.3,2.9
	c-2.2,0-4.5-0.5-6.5-1.2c-2.2-1-3.8-2.2-5.5-3.6c-1.7-1.7-2.9-3.4-3.6-5.5c-0.7-2.2-1.2-4.3-1.2-6.5c0-3.4,1-6.7,2.9-9.3
	c1.9-2.9,4.5-5,7.7-6.2c3.1-1.2,6.5-1.7,9.8-1c3.4,0.7,6.2,2.2,8.6,4.5c2.4,2.4,4.1,5.5,4.5,8.6c0.7,3.4,0.2,6.7-1,9.8
	C424.2,208.1,422,211,419.4,212.6z"/>
</svg>
