<?xml version="1.0" encoding="utf-8"?>
<!-- Generator: Adobe Illustrator 26.3.1, SVG Export Plug-In . SVG Version: 6.00 Build 0)  -->
<svg version="1.1" id="Layer_1" xmlns="http://www.w3.org/2000/svg" xmlns:xlink="http://www.w3.org/1999/xlink" x="0px" y="0px"
	 viewBox="0 0 500 500" style="enable-background:new 0 0 500 500;" xml:space="preserve">
<style type="text/css">
	.st0{fill:#FAFAF9;}
	.st1{fill-rule:evenodd;clip-rule:evenodd;fill:#FAFAF9;}
	.st2{fill:#D3D3D1;}
</style>
<path class="st0" d="M476.9,382.8c2.4-3.6,4.1-7.8,4.9-12.2c0.7-4.4,0.5-8.8-0.5-13.1c-1.7-6.1-4.9-11.2-9.5-14.8
	c2.2-3.6,3.6-7.5,4.1-11.7c1.2-9-1.7-18-8.5-25.3c-5.4-5.8-12.7-8.8-20.9-8.8c-1,0-1.9,0-2.9,0.2c6.3-20,9.5-40.6,9.5-61.6
	C453.1,122,361.1,30,247.5,30S41.9,122,41.9,235.6c0,20.9,3.2,41.6,9.2,61.3h-0.2c-8.3,0-15.6,3.2-20.9,8.8
	c-6.8,7.3-9.7,16.3-8.5,25.3c0.5,4.1,1.9,8,4.1,11.7c-4.6,3.6-7.8,8.8-9.5,14.8c-1.2,4.1-1.2,8.8-0.5,13.1c0.7,4.4,2.4,8.5,4.9,12.2
	c-0.5,0.7-0.7,1.5-1.2,2.2c-4.1,7.8-4.4,16.5-0.7,24.6c5.4,12.4,19,21.9,45.3,32.4c16.3,6.6,31.1,10.7,31.4,10.7
	c21.7,5.6,41.1,8.5,57.9,8.5c27.7,0,48.4-7.5,61.8-22.6c22.4,3.6,45.3,3.4,67.4-0.5c13.1,15.3,34.1,22.9,62,22.9
	c16.8,0,36.5-2.9,57.9-8.5c0.2,0,15.1-4.1,31.4-10.7c26.3-10.5,39.7-20.2,45.3-32.4c3.6-8,3.4-16.8-0.7-24.6
	C477.9,384.3,477.4,383.5,476.9,382.8z M205.4,414.9c-1,1.9-2.2,3.9-3.6,5.8c-3.4,5.1-8,8.8-13.1,11.7c-10,5.4-22.6,7.3-35.5,7.3
	c-20.2,0-41.1-4.6-52.8-7.8c-0.5-0.2-71.3-20.2-62.3-37.2c1.5-2.9,3.9-3.9,7.1-3.9c12.7,0,35.5,18.7,45.5,18.7c2.2,0,3.6-1,4.4-3.2
	c4.1-15.1-64-21.4-58.1-43.3c1-3.9,3.6-5.4,7.5-5.4c16.8,0,54,29.4,62,29.4c0.5,0,1-0.2,1.2-0.5c0,0,0,0,0-0.2
	c3.6-6.1,1.5-10.5-23.6-25.8c-0.7-0.5-1.7-1-2.4-1.5c-27.7-16.8-47.2-26.8-36-38.9c1.2-1.5,3.2-1.9,5.4-1.9c2.7,0,5.8,1,9.2,2.4
	c14.6,6.1,35,23.1,43.3,30.4c2.4,2.2,3.9,3.4,3.9,3.4s10.7,11.2,17.3,11.2c1.5,0,2.7-0.5,3.6-1.9c4.6-7.8-42.8-43.6-45.5-58.4
	c-1.7-10,1.2-15.1,7.1-15.1c2.7,0,6.1,1.2,9.7,3.4c11.4,7.3,33.1,44.8,41.1,59.4c2.7,4.9,7.3,7.1,11.4,7.1c8.3,0,14.6-8,0.7-18.5
	c-20.7-15.6-13.4-40.9-3.6-42.6c0.5,0,0.7,0,1.2,0c9,0,12.9,15.6,12.9,15.6s11.7,29.2,31.6,49.4
	C213.4,381.3,215.8,396.2,205.4,414.9z M270.1,418.3l-1,0.2c-0.5,0-1.2,0.2-1.7,0.2c-1,0-1.9,0.2-2.9,0.2h-1h-0.7h-1.2
	c-0.5,0-1,0-1.2,0h-1.2h-0.2c-0.2,0-0.7,0-1,0h-0.5c-0.5,0-0.7,0-1.2,0h-1.5h-1.2h-1h-0.5c-0.2,0-0.5,0-0.7,0s-0.2,0-0.5,0
	c-0.2,0-0.5,0-0.7,0h-1c-0.5,0-1,0-1.5,0c-1.2,0-2.4,0-3.6,0h-1c-0.2,0-0.5,0-0.7,0h-1h-1.2h-1.2h-0.2h-1c-0.2,0-0.5,0-1,0H236
	c-1,0-1.7,0-2.7-0.2h-1c-0.5,0-0.7,0-1.2,0c-0.5,0-1,0-1.5-0.2c-0.7,0-1.5-0.2-2.2-0.2l0,0c11.2-24.8,5.6-47.9-17-70.3
	c-14.8-14.6-24.6-36.5-26.5-41.1c-4.1-14.1-15.1-29.9-33.1-29.9c-1.5,0-3.2,0.2-4.6,0.2c-8,1.2-14.8,5.8-19.7,12.7
	c-5.4-6.6-10.5-11.9-15.3-14.8c-7.1-4.4-14.1-6.8-20.9-6.8c-8.5,0-16.3,3.4-21.7,10l-0.2,0.2c0-0.5-0.2-0.7-0.2-1.2l0,0
	c-0.2-1.2-0.5-2.7-1-3.9c-0.5-2.2-1-4.4-1.2-6.6c-0.2-1-0.2-1.7-0.5-2.7l0,0c0-0.2,0-0.7-0.2-1c0-0.2,0-0.5,0-0.5c0-0.2,0-0.7-0.2-1
	c0-0.5-0.2-1-0.2-1.5c0-0.5,0-1-0.2-1.5c0-0.5,0-1-0.2-1.5c0-0.5,0-1-0.2-1.2l0,0c0-1-0.2-1.7-0.2-2.7c0-1-0.2-1.7-0.2-2.7
	c0-0.2,0-0.5,0-0.7c0-0.5,0-0.7,0-1.2c0-0.2,0-0.7,0-1v-0.2c0-0.5,0-0.7,0-1.2s0-1,0-1.5s0-1,0-1.5c0-0.5,0-0.7,0-1.2v-0.5
	c0-0.5,0-0.7,0-1.2v-1c0-0.5,0-0.7,0-1.2s0-0.7,0-1.2c0-0.5,0-0.7,0-1.2c0-0.5,0-0.7,0-1.2c0-101.9,82.5-184.4,184.4-184.4
	s184.4,82.5,184.4,184.4c0,0.5,0,0.7,0,1.2c0,0.5,0,0.7,0,1.2c0,0.5,0,0.7,0,1.2c0,0.2,0,0.7,0,1s0,0.5,0,1c0,0.5,0,0.7,0,1.2l0,0
	c0,0.5,0,1,0,1.2c0,0.5,0,0.7,0,1.2v0.2c0,0.5,0,0.7,0,1.2c0,0.2,0,0.7,0,1c0,1.9-0.2,3.9-0.5,5.8c0,0.2,0,0.7,0,1l0,0
	c0,0.5,0,0.7-0.2,1.2c0,0.2,0,0.7,0,1c0,0.7-0.2,1.2-0.2,1.9l-0.2,1c0,0.5,0,0.7-0.2,1.2c0,0.5,0,0.7-0.2,1.2c0,0.5-0.2,1-0.2,1.5
	l-0.2,1.2c0,0.5-0.2,0.7-0.2,1.2s-0.2,0.7-0.2,1.2c0,0.5-0.2,0.7-0.2,1.2c-0.2,0.7-0.2,1.7-0.5,2.4c-0.2,0.7-0.2,1.7-0.5,2.4
	c0,0.5-0.2,1-0.2,1.5c0,0.5-0.2,0.7-0.2,1.2s-0.2,0.7-0.2,1.2c-5.1-5.1-12.2-7.8-19.7-7.8c-6.8,0-13.9,2.2-20.9,6.8
	c-4.6,2.9-10,8.3-15.3,14.8c-4.9-6.8-11.9-11.4-19.7-12.7c-1.5-0.2-2.9-0.2-4.6-0.2c-18,0-29,15.8-33.1,29.9
	c-1.9,4.9-11.9,26.5-26.5,41.4C265,370.6,259.1,393.5,270.1,418.3z M460.6,368.7C460.6,368.7,460.4,368.7,460.6,368.7
	c-0.2,0.2-0.2,0.5-0.2,0.7s-0.2,0.5-0.2,0.7s-0.2,0.2-0.2,0.5c-0.2,0.2-0.5,0.7-0.5,1c-0.2,0.5-0.5,0.7-1,1.2
	c-0.2,0.2-0.2,0.5-0.5,0.5c0,0.2-0.2,0.2-0.2,0.5c-0.2,0.2-0.2,0.5-0.5,0.5c-3.2,3.2-8.3,6.1-13.9,8.8c-0.7,0.2-1.2,0.5-1.9,1
	l-0.7,0.2c-0.5,0.2-1,0.5-1.2,0.5c-0.5,0.2-1,0.5-1.5,0.5l-1.5,0.5c-3.2,1.2-6.3,2.4-9.5,3.9l-1.5,0.5l-1.5,0.5
	c-1,0.2-1.7,0.7-2.7,1l-1.2,0.5l-1.2,0.5l-0.7,0.2c-0.5,0.2-0.7,0.2-1.2,0.5c-9.2,3.9-16.1,8-14.6,13.1c0,0.2,0,0.2,0.2,0.5
	c0.2,0.5,0.2,0.7,0.5,1c0.2,0.2,0.2,0.5,0.5,0.5c1.7,1.7,4.6,1.5,8.5,0c0.2,0,0.7-0.2,1-0.2c0.2,0,0.5-0.2,0.7-0.2l0.2-0.2
	c1-0.5,1.7-0.7,2.7-1.2c0.2,0,0.5-0.2,0.7-0.2c4.6-2.2,10-5.4,15.1-8c0.7-0.5,1.7-0.7,2.4-1.2c1.2-0.7,2.7-1.5,3.9-1.9
	c4.9-2.4,9.7-3.9,13.4-3.9c1.7,0,3.4,0.2,4.6,1.2l0.2,0.2c0.2,0,0.2,0.2,0.5,0.2c0.5,0.5,1,1,1.2,1.5c0,0.2,0.2,0.2,0.2,0.5
	c0,0.2,0.2,0.2,0.2,0.5c1.9,3.4,0.2,7.1-3.4,10.7c-3.4,3.4-9,6.8-15.1,10c-0.5,0.2-1,0.5-1.5,0.7c-18.2,9-42.3,15.8-42.6,15.8
	c-6.3,1.7-15.6,3.9-25.8,5.4l-1.5,0.2h-0.2c-0.5,0-1.2,0.2-1.7,0.2s-1.2,0.2-1.7,0.2c-1.2,0.2-2.4,0.2-3.6,0.5h-0.2
	c-4.4,0.5-8.8,0.7-13.1,1l0,0c-1.5,0-3.2,0-4.6,0c-0.2,0-0.5,0-0.7,0h-0.2c-0.2,0-0.5,0-0.7,0c-1,0-1.9,0-2.7,0
	c-1.5,0-2.9-0.2-4.4-0.2c0,0,0,0-0.2,0c-0.5,0-1.2,0-1.7-0.2c-0.2,0-0.5,0-1,0c-1,0-1.7-0.2-2.7-0.2c-0.5,0-1.2-0.2-1.7-0.2
	c-0.5,0-1.2-0.2-1.7-0.2c-0.2,0-0.5,0-0.7-0.2l0,0c-0.7-0.2-1.7-0.2-2.4-0.5c-0.5,0-1-0.2-1.5-0.2h-0.2c-0.2,0-0.5-0.2-0.7-0.2h-0.2
	l-0.7-0.2c-0.2,0-0.5-0.2-0.7-0.2l0,0l-0.7-0.2c-0.2,0-0.5-0.2-0.7-0.2s-0.5-0.2-0.7-0.2l-0.5-0.2c-0.5-0.2-1-0.2-1.5-0.5l-0.5-0.2
	l-0.2-0.2c-0.7-0.2-1.5-0.5-1.9-1l-0.5-0.2l0,0c-0.2,0-0.2-0.2-0.5-0.2c-0.2-0.2-0.7-0.2-1-0.5l0,0l-0.5-0.2c-0.5-0.2-1-0.5-1.5-0.7
	c-0.2-0.2-0.5-0.2-0.7-0.5l-0.5-0.2c-0.2-0.2-0.5-0.2-0.7-0.5l-0.5-0.2c-0.2-0.2-0.5-0.2-0.5-0.5l-0.2-0.2c-0.5-0.2-0.7-0.5-1-0.7
	c-0.2-0.2-0.5-0.2-0.5-0.5c-0.2-0.2-0.5-0.5-0.7-0.5c-0.2-0.2-0.5-0.2-0.5-0.5l0,0c-0.2-0.2-0.5-0.2-0.5-0.5
	c-0.2-0.2-0.5-0.2-0.5-0.5l0,0c-0.2-0.2-0.5-0.5-0.5-0.5c-0.2-0.2-0.5-0.5-0.5-0.5c-0.2-0.2-0.5-0.5-0.5-0.5
	c-0.2-0.2-0.2-0.5-0.5-0.5l0,0c-0.2-0.2-0.2-0.5-0.5-0.5c-0.2-0.5-0.7-0.7-1-1.2c-0.2-0.5-0.7-1-1-1.5c0-0.2-0.2-0.2-0.2-0.5
	c-0.2-0.2-0.5-0.5-0.5-1c-0.2-0.2-0.5-0.5-0.5-1c-0.2-0.2-0.5-0.5-0.5-1c0-0.2-0.2-0.2-0.2-0.5c-0.2-0.2-0.2-0.5-0.5-0.7l0,0
	c-0.2-0.2-0.2-0.5-0.5-0.7c0-0.2-0.2-0.2-0.2-0.5c0-0.2-0.2-0.2-0.2-0.5c0,0,0-0.2-0.2-0.2s0,0,0-0.2c-0.2-0.2-0.2-0.5-0.5-1
	c0-0.2-0.2-0.2-0.2-0.5l-0.2-0.5l-0.2-0.5c-0.2-0.2-0.2-0.5-0.5-0.7c0-0.2-0.2-0.2-0.2-0.5c-0.2-0.2-0.2-0.5-0.5-1
	c0,0,0-0.2-0.2-0.2c-0.2-0.2-0.2-0.5-0.2-0.7s0-0.2-0.2-0.5c0-0.2-0.2-0.5-0.2-0.7s0-0.2-0.2-0.5c-0.2-0.5-0.5-1-0.5-1.7
	c0-0.2,0-0.2-0.2-0.5c0-0.2-0.2-0.5-0.2-0.7c-0.2-0.5-0.2-0.7-0.5-1.2c0-0.2,0-0.2,0-0.5c0-0.5-0.2-0.7-0.2-1.2c0-0.2,0-0.5-0.2-0.7
	c0-0.2,0-0.2,0-0.5s0-0.5-0.2-0.7c0-0.5-0.2-0.7-0.2-1.2c0-0.2,0-0.2,0-0.5c0-0.2,0-0.2,0-0.5c0-0.5,0-1-0.2-1.5c0-0.2,0-0.2,0-0.5
	s0-0.5,0-0.7c-0.2-10.5,5.1-20.4,16.3-31.6c20-20,31.6-49.4,31.6-49.4s0.2-1.2,1-2.9c0-0.2,0.2-0.5,0.2-0.7c0.2-0.2,0.2-0.7,0.5-1
	c0.2-0.5,0.5-1,0.7-1.5c0-0.2,0.2-0.2,0.2-0.5v-0.2c0,0,0-0.2,0.2-0.2c0.2-0.7,0.7-1.5,1.2-1.9c0-0.2,0.2-0.2,0.2-0.5
	c0.2-0.2,0.5-0.7,0.7-1c0.2-0.2,0.2-0.2,0.5-0.5c0.2-0.2,0.5-0.5,0.7-0.7l0.2-0.2c1.2-1.2,2.4-2.2,3.9-2.7h0.2c0.2,0,0.2,0,0.5,0
	c0.2,0,0.2,0,0.5,0l0,0c0.2,0,0.7,0,1-0.2l0,0c0.2,0,0.2,0,0.5,0c0.2,0,0.5,0,0.7,0c0.2,0,0.5,0,0.7,0c1.7,0.2,3.4,1.5,5.1,2.9
	l0.2,0.2c0.2,0.5,0.7,0.7,1,1.2c0.2,0.2,0.2,0.2,0.2,0.5c0.2,0.5,0.5,1,0.7,1.5c0,0.2,0.2,0.5,0.2,0.7c0,0,0,0.2,0.2,0.2
	c0,0.2,0.2,0.5,0.2,0.7s0.2,0.5,0.2,0.7c0.5,1,0.7,2.2,1,3.4c0,0.2,0,0.5,0.2,0.7c0.2,1,0.2,1.9,0.2,2.9c0,0.2,0,0.5,0,0.7
	c0,0.7,0,1.2,0,1.9c0,0.2,0,0.5,0,0.7c-0.2,2.4-0.7,4.9-1.5,7.3c-0.2,0.5-0.2,0.7-0.5,1.2c0,0.2-0.2,0.5-0.2,0.7
	c-0.2,0.5-0.5,1-0.7,1.7c-0.2,0.5-0.5,0.7-0.7,1.2c-0.2,0.2-0.2,0.5-0.5,0.7c-0.5,0.7-0.7,1.2-1.2,1.9l-0.2,0.5
	c-0.5,0.5-0.7,1-1.2,1.5c-0.7,1-1.5,1.7-2.4,2.7c-1.2,1.2-2.7,2.4-4.1,3.6c-1.2,1-2.7,1.9-3.6,3.2c-0.2,0.2-0.2,0.2-0.5,0.5
	c-3.6,3.9-4.6,7.3-3.6,9.7c0,0,0,0.2,0.2,0.2c0,0.2,0.2,0.2,0.2,0.5c0,0,0,0.2,0.2,0.2c0.2,0.5,0.5,0.7,1,1.2c0,0,0,0,0.2,0.2
	l0.2,0.2c0.2,0.2,0.2,0.2,0.5,0.5h0.2l0.2,0.2c0.2,0.2,0.5,0.2,0.7,0.5l0.2,0.2c0.5,0.2,1,0.5,1.2,0.5s0.2,0,0.5,0h0.2h0.2h0.2h0.2
	h0.2h0.2c0.2,0,0.2,0,0.5,0h0.2h0.2h0.2h0.2h0.2h0.2l0,0h0.2l0,0h0.2h0.2h0.2h0.2h0.2h0.2c0.2,0,0.2,0,0.5,0c0.5,0,0.7-0.2,1.2-0.2
	s0.7-0.2,1.2-0.5c0.2,0,0.2,0,0.5-0.2c0.2,0,0.5-0.2,0.7-0.2s0.2-0.2,0.5-0.2c0.2-0.2,0.5-0.2,0.7-0.5c0.5-0.2,1-0.7,1.5-1.2
	l0.2-0.2c0,0,0,0,0.2-0.2l0.2-0.2c0.2-0.2,0.5-0.5,0.7-0.7c0.5-0.7,1-1.5,1.5-2.2c3.2-5.8,8.8-15.6,15.1-25.5
	c0.2-0.5,0.5-0.7,0.7-1.2c0.2-0.5,0.5-0.7,0.7-1.2s0.7-1.2,1-1.7l0.5-0.5c0.2-0.5,0.5-0.7,0.7-1.2c1-1.5,1.9-2.9,2.9-4.6l0.7-1.2
	c1.5-2.2,2.9-4.4,4.4-6.3l0.7-1c1-1.5,2.2-2.9,3.2-4.4c0.5-0.7,1.2-1.5,1.7-2.2l0.7-0.7c0-0.2,0.2-0.2,0.2-0.5
	c0.2-0.2,0.5-0.5,0.7-0.7c0-0.2,0.2-0.2,0.2-0.5c0.2-0.2,0.5-0.5,0.7-0.7l0.2-0.2c0.2-0.2,0.7-0.7,1-1c0.2-0.2,0.5-0.5,0.7-0.7
	c1.2-1.2,2.7-2.4,4.1-3.4l0.2-0.2l0.2-0.2c0.2-0.2,0.5-0.2,0.7-0.5c5.8-3.2,10.5-3.4,13.1-0.7c1.7,1.7,2.7,4.4,2.4,8.3
	c0,0.2,0,0.2,0,0.5v0.2c0,0.2,0,0.2,0,0.5c0,0.2,0,0.5,0,0.7s0,0.5,0,0.5s0,0,0,0.2s0,0.2,0,0.5c0,0,0,0,0,0.2c0,0.2,0,0.2,0,0.5
	c0,0,0,0,0,0.2s0,0.5,0,0.7s0,0.2,0,0.2c0,0.2-0.2,0.7-0.2,1c0,0.2-0.2,0.7-0.5,1c0,0.2-0.2,0.5-0.2,0.7s-0.2,0.5-0.5,0.7
	c-0.2,0.5-0.5,1-1,1.7c-0.2,0.2-0.2,0.5-0.5,0.7c0,0.2-0.2,0.2-0.2,0.5c-0.2,0.5-0.5,1-1,1.2c-0.2,0.5-0.7,1-1,1.5
	c-0.5,0.7-1,1.2-1.5,1.9l-0.5,0.5c-0.7,0.7-1.2,1.7-1.9,2.4c-0.5,0.5-0.7,1-1.2,1.5c-0.2,0.2-0.5,0.7-1,1l-0.5,0.5
	c-0.7,0.7-1.2,1.5-1.9,1.9l-0.5,0.5c-0.2,0.2-0.7,0.7-1,1c-0.2,0.2-0.7,0.7-1,1l-1,1c-0.2,0.2-0.7,0.7-1,1c-0.2,0.2-0.7,0.7-1,1
	c-0.7,0.7-1.5,1.5-1.9,2.2c-10,10.2-20.2,20.2-23.8,26.5c-0.2,0.5-0.5,0.7-0.7,1.2c-0.5,1.2-0.7,2.2-0.5,2.9c0,0.2,0.2,0.5,0.2,0.7
	s0.2,0.2,0.2,0.5c0,0.2,0.2,0.2,0.5,0.5c0.2,0.2,0.2,0.2,0.5,0.2c0.7,0.5,1.7,0.7,2.4,0.7h0.2h0.2h0.2h0.2l0,0h0.2l0,0h0.2l0,0h0.2
	h0.2c0.2,0,0.5-0.2,0.5-0.2c0.2,0,0.5-0.2,0.7-0.2s0.5-0.2,0.7-0.2c0,0,0.2,0,0.2-0.2l0.2-0.2c0.5-0.2,0.7-0.5,1.2-0.7
	c0.2-0.2,0.7-0.5,1-0.7l0.2-0.2l0.2-0.2l0.2-0.2h0.2c0.2,0,0.2-0.2,0.5-0.2c0.5-0.2,0.7-0.7,1.2-1l0,0c0.2-0.2,0.5-0.2,0.7-0.5
	c1-0.7,1.7-1.5,2.4-2.2l0.5-0.5l0,0l0.2-0.2c0.7-0.5,1.2-1,1.7-1.5l0.2-0.2c0.2-0.2,0.2-0.2,0.5-0.5l0.2-0.2l0,0l0,0l0.2-0.2
	l0.2-0.2l0,0l0,0l0,0l0,0l0,0l0.5-0.5l0.2-0.2c0.2,0,0.2-0.2,0.5-0.5l0.2-0.2c0,0,0,0,0.2-0.2l0.2-0.2l0.5-0.5l0.2-0.2
	c1-1,2.4-1.9,3.9-3.4l0.5-0.5l1-0.7c0.2-0.2,0.7-0.5,1-1c1.5-1.2,2.7-2.2,4.4-3.4l1-0.7c0.7-0.7,1.7-1.5,2.7-1.9
	c0.2-0.2,0.7-0.5,1-0.7c0.5-0.5,1-0.7,1.7-1.2c0.2-0.2,0.7-0.5,1-0.7c2.2-1.5,4.1-3.2,6.3-4.6l1-0.7c0.7-0.5,1.2-1,1.9-1.5l0.5-0.5
	c0.7-0.5,1.2-0.7,1.9-1.2c0.5-0.5,1.2-0.7,1.7-1l0.5-0.5l0.5-0.2c0.5-0.2,1.2-0.7,1.7-1l0.5-0.2l1.2-0.7c0.5-0.2,0.7-0.5,1.2-0.7
	l0.2-0.2c0.2-0.2,0.5-0.2,1-0.5c0.5-0.2,0.7-0.5,1.2-0.5l0.5-0.2l0.5-0.2c0.2,0,0.5-0.2,0.5-0.2c1-0.5,2.2-1,3.2-1.5
	c0.2,0,0.2-0.2,0.5-0.2c0.2-0.2,0.7-0.2,1-0.5c0.2,0,0.7-0.2,1-0.2c0.2,0,0.5-0.2,1-0.2l0,0c0.2,0,0.2,0,0.5-0.2l0,0
	c0.2,0,0.7-0.2,1-0.2l0,0c0.5,0,1-0.2,1.2-0.2s0.2,0,0.5,0c0.2,0,0.5,0,1,0c0.2,0,0.2,0,0.5,0c0.2,0,0.5,0,0.7,0h0.2
	c0.2,0,0.5,0,0.7,0h0.2l0,0h0.2h0.2l0,0h0.2h0.2c0.5,0.2,0.7,0.2,1.2,0.5c0,0,0.2,0,0.2,0.2l0.2,0.2c0.2,0.2,0.2,0.2,0.5,0.5l0,0
	c0,0,0,0,0.2,0.2l0.2,0.2c1,1,1.7,2.2,2.4,3.4v0.2c0,0.2,0,0.2,0.2,0.5c0.2,0.2,0.2,0.7,0.2,1c0.2,1.5,0.2,2.9-0.2,4.4
	c0,0.2,0,0.2-0.2,0.5c-0.2,0.5-0.5,1-0.7,1.5l-0.2,0.2c-0.7,1.2-1.7,2.4-2.7,3.6l-0.2,0.2c-0.2,0.2-0.7,0.7-1,1
	c-0.2,0.2-0.2,0.2-0.5,0.5c-0.2,0.2-0.2,0.2-0.5,0.5l-0.2,0.2c-0.2,0.2-0.2,0.2-0.5,0.5c-0.2,0.2-0.7,0.7-1.2,1l-0.2,0.2
	c-0.5,0.2-0.7,0.7-1.2,1c-0.7,0.5-1.5,1.2-2.2,1.7c-0.7,0.5-1.5,1-2.2,1.5c-1,0.5-1.7,1.2-2.7,1.7c-1.7,1-3.4,2.2-5.4,3.4
	c-0.5,0.2-1,0.7-1.5,1c-4.9,2.9-10,6.1-15.8,9.5l-1.5,1c-1.7,1-3.2,1.9-4.6,2.9l-0.7,0.5l-1.5,1c-0.5,0.2-1,0.7-1.5,1
	c-0.5,0.2-0.7,0.5-1.2,0.7l-0.7,0.5c-0.2,0.2-0.7,0.5-1,0.7l-0.2,0.2c-0.2,0.2-0.7,0.5-1,0.7l-0.5,0.5l-0.7,0.5l-0.5,0.5
	c-1,0.7-1.9,1.5-2.9,1.9l-0.2,0.2c-0.5,0.2-0.7,0.5-1,0.7c-0.2,0.2-0.2,0.2-0.5,0.2c-0.7,0.5-1.5,1.2-1.9,1.7l-0.2,0.2
	c-0.2,0.2-0.2,0.2-0.5,0.5l-0.2,0.2l-0.2,0.2l-0.2,0.2c-0.2,0.2-0.5,0.5-0.7,0.7l-0.2,0.2c-0.2,0.5-0.7,0.7-1,1.2v0.2
	c-0.2,0.2-0.5,0.7-0.5,1c0,0,0,0.2-0.2,0.2v0.2c0,0,0,0,0,0.2v0.2l0,0c0,0,0,0,0,0.2v0.2c0,0.2-0.2,0.5-0.2,0.7c0,0,0,0,0,0.2
	c0,0,0,0,0,0.2c0,0,0,0,0,0.2v0.2c0,0,0,0,0,0.2l0,0v0.2v0.2l0,0v0.2l0,0v0.2v0.2l0,0v0.2v0.2c0,0.2,0,0.2,0.2,0.5v0.2l0,0v0.2
	c0,0,0,0.2,0.2,0.2c0,0.2,0.2,0.2,0.2,0.5c0,0,0,0.2,0.2,0.2l0.2,0.2c0,0,0,0.2,0.2,0.2c0,0,0,0,0,0.2l0,0l0,0l0,0c0,0,0,0,0.2,0
	c0,0,0,0,0.2,0c0,0,0,0,0.2,0c1.5,0.2,4.4-0.7,8-2.9c0.2,0,0.5-0.2,0.7-0.2l1.2-0.7l0.5-0.2c0.5-0.2,0.7-0.5,1.2-0.7
	c0.2-0.2,0.5-0.2,0.7-0.5c5.1-2.9,11.2-6.6,17.3-10.2c0.5-0.2,1.2-0.7,1.7-1l1.2-0.7c0.5-0.2,1.2-0.7,1.7-1c0.7-0.5,1.5-1,2.4-1.2
	c1.7-1,3.6-1.9,5.4-2.9l1.2-0.5c0.7-0.5,1.5-0.7,2.2-1.2c0.7-0.2,1.5-0.7,2.2-1c0.7-0.2,1.5-0.7,2.2-1l0.7-0.2l0,0
	c4.4-1.7,8.3-2.7,11.4-2.7c0.7,0,1.5,0,1.9,0.2l0,0c0.2,0,0.5,0,0.7,0.2l0,0c0.2,0,0.2,0,0.5,0.2c0.2,0,0.2,0,0.5,0.2h0.2
	c0.2,0,0.2,0,0.2,0.2c0.2,0,0.2,0.2,0.5,0.2c0.5,0.2,1,0.7,1.5,1.2c0.2,0.2,0.2,0.5,0.5,0.7c0,0,0,0.2,0.2,0.2
	c0,0.2,0.2,0.2,0.2,0.5c0,0.2,0.2,0.5,0.2,0.5c0,0.2,0.2,0.5,0.2,0.7s0.2,0.5,0.2,0.7C461.1,364.8,461.1,366.8,460.6,368.7z"/>
<path class="st1" d="M307.3,185.2c2.9,1,5.1,4.1,7.1,7.1c2.7,3.9,5.4,7.8,9.2,5.6c4.6-2.4,8.5-6.3,10.9-10.9
	c2.4-4.6,3.6-10,2.9-15.1c-0.5-5.1-2.4-10.2-5.8-14.4c-3.4-4.1-7.8-7.1-12.9-8.5s-10.5-1.5-15.3,0c-5.1,1.5-9.5,4.4-12.9,8.5
	s-5.4,9-5.8,14.1c-0.5,5.1,0.5,10.5,2.9,15.1c1.7,3.4,5.8,1.7,10.2,0C301.2,185.5,304.6,184.3,307.3,185.2z M182.3,185.2
	c-2.9,1-5.1,4.1-7.1,7.1c-2.7,3.9-5.4,7.8-9.2,5.6c-4.6-2.4-8.5-6.3-10.9-10.9c-2.4-4.6-3.6-10-2.9-15.1c0.5-5.1,2.4-10.2,5.8-14.4
	c3.4-4.1,7.8-7.1,12.9-8.5c5.1-1.5,10.5-1.5,15.3,0c5.1,1.5,9.5,4.4,12.9,8.5s5.4,9,5.8,14.1c0.5,5.1-0.5,10.5-2.9,15.1
	c-1.9,3.4-5.8,1.7-10.2,0C188.6,185.5,184.9,184.3,182.3,185.2z M288.1,298.9c19.7-15.6,27-41.1,27-56.7c0-12.4-8.3-8.5-21.7-1.9
	c-0.2,0.2-0.5,0.2-0.7,0.5c-12.2,6.1-28.7,14.1-46.5,14.1c-18,0-34.3-8-46.5-14.1c-13.9-6.8-22.4-11.2-22.4,1.5
	c0,16.3,7.8,42.8,29,58.1c2.9-5.6,6.8-10.7,11.7-14.8s10.5-7.1,16.5-9c2.2-0.7,4.4,2.9,6.6,6.8c2.2,3.6,4.4,7.3,6.6,7.3
	c2.4,0,4.6-3.6,7.1-7.3c2.4-3.6,4.6-7.3,7.1-6.6c0.7,0.2,1.2,0.5,1.9,0.7C274,281.4,282.7,288.9,288.1,298.9z"/>
<path class="st2" d="M288.1,298.9c-10.2,8-24.1,13.6-41.8,13.6c-16.8,0-29.9-4.9-39.9-12.2c2.9-5.6,6.8-10.7,11.7-14.8
	c4.9-4.1,10.5-7.1,16.5-9c4.1-1.2,8.5,14.1,13.1,14.1c4.9,0,9.5-15.1,14.1-13.9c0.7,0.2,1.2,0.5,1.9,0.7
	C274,281.4,282.7,288.9,288.1,298.9z"/>
<path class="st1" d="M135.1,207.1c-2.9,1.9-6.1,2.9-9.5,2.9c-2.2,0-4.6-0.5-6.6-1.2c-2.2-1-3.9-2.2-5.6-3.6
	c-1.7-1.7-2.9-3.4-3.6-5.6c-0.7-2.2-1.2-4.4-1.2-6.6c0-3.4,1-6.8,2.9-9.5c1.9-2.9,4.6-5.1,7.8-6.3c3.2-1.2,6.6-1.7,10-1
	c3.4,0.7,6.3,2.2,8.8,4.6s4.1,5.6,4.6,8.8c0.7,3.4,0.2,6.8-1,10C139.9,202.5,137.7,205.4,135.1,207.1z M381.8,207.1
	c-2.9,1.9-6.1,2.9-9.5,2.9c-2.2,0-4.6-0.5-6.6-1.2c-2.2-1-3.9-2.2-5.6-3.6c-1.7-1.7-2.9-3.4-3.6-5.6c-0.7-2.2-1.2-4.4-1.2-6.6
	c0-3.4,1-6.8,2.9-9.5c1.9-2.9,4.6-5.1,7.8-6.3c3.2-1.2,6.6-1.7,10-1c3.4,0.7,6.3,2.2,8.8,4.6c2.4,2.4,4.1,5.6,4.6,8.8
	c0.7,3.4,0.2,6.8-1,10C386.6,202.5,384.4,205.4,381.8,207.1z"/>
</svg>
